<svg xmlns="http://www.w3.org/2000/svg" xmlns:xlink="http://www.w3.org/1999/xlink" width="1080" zoomAndPan="magnify" viewBox="0 0 810 809.999993" height="1080" preserveAspectRatio="xMidYMid meet" version="1.0"><defs><clipPath id="06efc82877"><path d="M 114.617188 121 L 695.117188 121 L 695.117188 689 L 114.617188 689 Z M 114.617188 121 " clip-rule="nonzero"/></clipPath><clipPath id="602a862d62"><path d="M 221.894531 498.394531 L 294.644531 498.394531 L 294.644531 553 L 221.894531 553 Z M 221.894531 498.394531 " clip-rule="nonzero"/></clipPath></defs><g clip-path="url(#06efc82877)"><path fill="#015db3" d="M 695.386719 404.933594 C 695.386719 425.863281 659.722656 442.507812 655.269531 462.085938 C 650.675781 482.300781 675.496094 512.730469 666.6875 530.972656 C 657.75 549.515625 618.398438 549.046875 605.683594 564.96875 C 592.90625 580.972656 602.082031 619.210938 586.078125 631.992188 C 570.152344 644.707031 534.929688 627.316406 516.382812 636.261719 C 498.144531 645.058594 489.847656 683.527344 469.632812 688.125 C 450.054688 692.578125 425.9375 661.609375 405.011719 661.609375 C 384.085938 661.609375 359.96875 692.578125 340.386719 688.125 C 320.164062 683.523438 311.871094 645.054688 293.628906 636.257812 C 275.085938 627.3125 239.851562 644.707031 223.929688 631.988281 C 207.925781 619.210938 217.09375 580.96875 204.316406 564.96875 C 191.597656 549.042969 152.25 549.519531 143.304688 530.972656 C 134.507812 512.734375 159.308594 482.300781 154.714844 462.085938 C 150.265625 442.507812 114.601562 425.863281 114.601562 404.933594 C 114.601562 384.007812 150.265625 367.371094 154.714844 347.792969 C 159.308594 327.578125 134.511719 297.144531 143.3125 278.902344 C 152.253906 260.359375 191.601562 260.839844 204.316406 244.917969 C 217.09375 228.917969 207.929688 190.671875 223.933594 177.894531 C 239.859375 165.175781 275.089844 182.578125 293.632812 173.636719 C 311.875 164.835938 320.167969 126.359375 340.386719 121.765625 C 359.96875 117.324219 384.082031 148.28125 405.007812 148.28125 C 425.933594 148.28125 450.046875 117.320312 469.621094 121.765625 C 489.84375 126.359375 498.136719 164.835938 516.375 173.632812 C 534.921875 182.578125 570.144531 165.175781 586.074219 177.894531 C 602.070312 190.671875 592.898438 228.914062 605.679688 244.917969 C 618.394531 260.839844 657.734375 260.367188 666.679688 278.910156 C 675.480469 297.148438 650.671875 327.578125 655.265625 347.792969 C 659.722656 367.371094 695.386719 384.007812 695.386719 404.933594 Z M 695.386719 404.933594 " fill-opacity="1" fill-rule="nonzero"/></g><path fill="#ffffff" d="M 340.34375 408.859375 C 309.832031 408.859375 285.007812 384.03125 285.007812 353.507812 C 285.007812 323.007812 309.832031 298.195312 340.34375 298.195312 C 370.855469 298.195312 395.683594 323.003906 395.683594 353.503906 C 395.683594 384.03125 370.855469 408.859375 340.34375 408.859375 Z M 340.34375 324.945312 C 324.589844 324.945312 311.765625 337.757812 311.765625 353.507812 C 311.765625 369.28125 324.589844 382.113281 340.34375 382.113281 C 356.105469 382.113281 368.929688 369.28125 368.929688 353.507812 C 368.929688 337.757812 356.105469 324.945312 340.34375 324.945312 Z M 340.34375 324.945312 " fill-opacity="1" fill-rule="nonzero"/><path fill="#ffffff" d="M 469.621094 515.453125 C 439.117188 515.453125 414.304688 490.628906 414.304688 460.113281 C 414.304688 429.605469 439.117188 404.777344 469.621094 404.777344 C 500.203125 404.777344 525.085938 429.601562 525.085938 460.113281 C 525.085938 490.628906 500.203125 515.453125 469.621094 515.453125 Z M 469.621094 431.535156 C 453.875 431.535156 441.066406 444.351562 441.066406 460.113281 C 441.066406 475.871094 453.875 488.695312 469.621094 488.695312 C 485.449219 488.695312 498.328125 475.871094 498.328125 460.113281 C 498.328125 444.351562 485.449219 431.535156 469.621094 431.535156 Z M 469.621094 431.535156 " fill-opacity="1" fill-rule="nonzero"/><path fill="#ffffff" d="M 302.589844 512.074219 C 299.0625 512.074219 295.542969 510.691406 292.921875 507.945312 C 287.804688 502.597656 288 494.132812 293.332031 489.035156 L 493.070312 298.085938 C 498.402344 292.980469 506.875 293.175781 511.980469 298.511719 C 517.089844 303.855469 516.902344 312.320312 511.5625 317.425781 L 311.832031 508.363281 C 309.242188 510.835938 305.914062 512.074219 302.589844 512.074219 Z M 302.589844 512.074219 " fill-opacity="1" fill-rule="nonzero"/><g clip-path="url(#602a862d62)"><path fill="#015db3" d="M 293.960938 541.167969 C 293.507812 540.332031 292.921875 539.609375 292.203125 538.992188 C 291.480469 538.371094 290.675781 537.90625 289.78125 537.585938 C 289.097656 537.789062 288.402344 537.953125 287.699219 538.078125 C 286.140625 538.378906 284.667969 538.664062 283.269531 540.042969 C 281.871094 541.425781 281.386719 542.703125 280.875 544.058594 C 280.5625 544.890625 280.238281 545.75 279.6875 546.609375 C 279.765625 547.039062 279.890625 547.453125 280.0625 547.851562 C 280.339844 548.511719 280.699219 549.125 281.144531 549.683594 C 281.589844 550.246094 282.105469 550.734375 282.6875 551.152344 C 283.269531 551.566406 283.898438 551.898438 284.570312 552.140625 C 285.246094 552.382812 285.941406 552.527344 286.65625 552.574219 C 287.371094 552.621094 288.078125 552.570312 288.777344 552.417969 C 289.476562 552.269531 290.144531 552.027344 290.777344 551.6875 C 291.410156 551.351562 291.984375 550.9375 292.5 550.441406 C 293.015625 549.941406 293.453125 549.386719 293.8125 548.765625 C 293.902344 548.617188 293.988281 548.460938 294.066406 548.304688 C 294.511719 547.421875 294.773438 546.488281 294.859375 545.503906 C 294.875 545.289062 294.890625 545.070312 294.890625 544.847656 C 294.894531 543.542969 294.582031 542.316406 293.960938 541.167969 Z M 291.273438 545.929688 C 291.179688 546.269531 291.042969 546.59375 290.863281 546.898438 C 290.6875 547.203125 290.476562 547.484375 290.226562 547.734375 C 289.980469 547.988281 289.707031 548.207031 289.402344 548.390625 C 289.101562 548.570312 288.78125 548.714844 288.441406 548.816406 C 288.105469 548.917969 287.757812 548.976562 287.40625 548.992188 C 287.050781 549.007812 286.703125 548.976562 286.355469 548.902344 C 286.011719 548.832031 285.679688 548.714844 285.363281 548.558594 C 285.046875 548.402344 284.753906 548.207031 284.488281 547.976562 C 284.21875 547.746094 283.984375 547.488281 283.78125 547.199219 C 283.578125 546.90625 283.417969 546.597656 283.292969 546.265625 C 283.167969 545.9375 283.085938 545.59375 283.050781 545.242188 C 283.011719 544.890625 283.019531 544.542969 283.066406 544.191406 C 283.117188 543.84375 283.210938 543.503906 283.347656 543.179688 C 283.484375 542.851562 283.65625 542.546875 283.871094 542.265625 C 284.082031 541.984375 284.328125 541.730469 284.601562 541.511719 C 284.878906 541.289062 285.179688 541.105469 285.5 540.960938 C 285.820312 540.816406 286.15625 540.714844 286.503906 540.652344 C 286.851562 540.59375 287.203125 540.574219 287.554688 540.601562 C 287.910156 540.628906 288.25 540.703125 288.585938 540.816406 C 288.921875 540.929688 289.234375 541.082031 289.53125 541.277344 C 289.828125 541.472656 290.09375 541.699219 290.332031 541.960938 C 290.570312 542.21875 290.773438 542.507812 290.9375 542.820312 C 291.105469 543.128906 291.230469 543.457031 291.3125 543.800781 C 291.394531 544.144531 291.433594 544.492188 291.429688 544.847656 C 291.425781 545.214844 291.371094 545.574219 291.273438 545.929688 Z M 283.765625 538.867188 C 284.195312 538.566406 284.65625 538.324219 285.148438 538.132812 C 285.300781 538.074219 285.457031 538.019531 285.613281 537.96875 C 286.234375 537.78125 286.867188 537.628906 287.507812 537.519531 C 287.667969 537.488281 287.828125 537.457031 287.988281 537.425781 C 288.214844 537.382812 288.441406 537.332031 288.667969 537.28125 C 288.765625 537.257812 288.863281 537.238281 288.957031 537.214844 C 289.464844 537.089844 289.957031 536.929688 290.433594 536.726562 C 290.746094 536.59375 291.046875 536.441406 291.339844 536.265625 C 291.464844 536.191406 291.574219 536.117188 291.675781 536.046875 C 291.9375 535.871094 292.171875 535.664062 292.375 535.425781 C 291.734375 534.949219 291.042969 534.566406 290.296875 534.273438 C 290.234375 534.246094 290.175781 534.222656 290.113281 534.199219 C 289.78125 534.070312 289.441406 533.960938 289.097656 533.871094 C 289.03125 533.851562 288.964844 533.835938 288.898438 533.820312 C 288.539062 533.730469 288.171875 533.660156 287.800781 533.609375 C 287.421875 533.566406 287.039062 533.542969 286.65625 533.539062 C 286.582031 533.539062 286.511719 533.535156 286.4375 533.535156 C 286.136719 533.539062 285.832031 533.550781 285.527344 533.578125 C 284.296875 533.703125 283.128906 534.042969 282.027344 534.597656 L 282.660156 533.679688 L 282.972656 533.226562 C 283.273438 532.792969 283.453125 532.308594 283.515625 531.78125 C 283.582031 531.257812 283.519531 530.746094 283.328125 530.25 L 279.191406 519.398438 L 281.742188 519.804688 C 281.871094 519.828125 282 519.820312 282.128906 519.78125 C 282.257812 519.746094 282.371094 519.6875 282.472656 519.601562 C 282.574219 519.515625 282.652344 519.410156 282.707031 519.289062 C 282.761719 519.171875 282.789062 519.042969 282.789062 518.910156 L 282.789062 514.148438 C 282.789062 514.015625 282.761719 513.890625 282.707031 513.769531 C 282.652344 513.648438 282.574219 513.546875 282.472656 513.457031 C 282.371094 513.371094 282.257812 513.3125 282.128906 513.277344 C 282 513.238281 281.871094 513.230469 281.742188 513.253906 L 275.894531 514.183594 C 275.636719 514.222656 275.421875 514.34375 275.253906 514.542969 C 275.082031 514.742188 274.996094 514.972656 274.996094 515.234375 L 274.996094 516.113281 C 274.910156 516.09375 274.816406 516.082031 274.726562 516.078125 L 270.066406 516.015625 C 269.734375 516.003906 269.464844 515.871094 269.257812 515.613281 L 265.039062 510.417969 C 262.703125 507.554688 258.71875 508.445312 257.96875 512.0625 L 255.777344 520.308594 C 255.707031 520.644531 255.667969 520.984375 255.660156 521.324219 C 255.652344 521.667969 255.679688 522.011719 255.734375 522.347656 C 255.789062 522.6875 255.878906 523.019531 255.996094 523.339844 C 256.113281 523.664062 256.257812 523.972656 256.433594 524.265625 C 256.609375 524.5625 256.8125 524.839844 257.039062 525.097656 C 257.265625 525.355469 257.511719 525.589844 257.78125 525.800781 C 258.054688 526.011719 258.339844 526.195312 258.644531 526.355469 C 258.949219 526.511719 259.265625 526.640625 259.59375 526.742188 L 246.046875 526.742188 C 245.910156 526.742188 245.789062 526.789062 245.691406 526.886719 C 245.59375 526.988281 245.546875 527.105469 245.546875 527.242188 L 245.546875 529.128906 C 245.546875 529.265625 245.59375 529.382812 245.691406 529.484375 C 245.789062 529.582031 245.910156 529.628906 246.046875 529.628906 L 264.828125 529.628906 C 264.964844 529.628906 265.085938 529.582031 265.183594 529.484375 C 265.28125 529.386719 265.328125 529.265625 265.328125 529.128906 L 265.328125 527.636719 L 267.890625 528.003906 L 265.863281 537.019531 C 265.816406 537.289062 265.820312 537.558594 265.878906 537.828125 C 265.9375 538.09375 266.042969 538.339844 266.199219 538.566406 C 266.355469 538.792969 266.546875 538.980469 266.777344 539.132812 C 267.007812 539.28125 267.257812 539.382812 267.527344 539.4375 C 267.792969 539.488281 268.0625 539.488281 268.332031 539.433594 C 268.601562 539.378906 268.851562 539.277344 269.078125 539.125 C 269.308594 538.972656 269.5 538.785156 269.652344 538.554688 C 269.808594 538.328125 269.914062 538.082031 269.96875 537.8125 L 272.472656 527.863281 C 272.578125 527.382812 272.582031 526.898438 272.492188 526.410156 C 272.398438 525.925781 272.21875 525.476562 271.945312 525.0625 C 271.675781 524.648438 271.335938 524.304688 270.925781 524.027344 C 270.515625 523.75 270.070312 523.5625 269.585938 523.464844 C 267.476562 523.042969 264.855469 522.53125 263.492188 522.265625 C 263.371094 522.242188 263.261719 522.195312 263.15625 522.128906 C 263.054688 522.058594 262.96875 521.972656 262.902344 521.867188 C 262.835938 521.765625 262.792969 521.652344 262.769531 521.53125 C 262.75 521.410156 262.75 521.289062 262.78125 521.167969 L 264.050781 515.511719 L 266.433594 518.335938 C 266.835938 518.832031 267.332031 519.214844 267.914062 519.476562 C 268.496094 519.742188 269.109375 519.863281 269.75 519.839844 L 274.726562 519.570312 C 274.984375 519.558594 275.226562 519.496094 275.457031 519.378906 L 277.242188 529.308594 C 277.5 530.75 277.3125 532.128906 276.675781 533.449219 L 274.179688 538.613281 C 273.902344 539.195312 273.488281 539.65625 272.941406 540 C 272.394531 540.339844 271.800781 540.511719 271.15625 540.511719 L 266.429688 540.511719 C 266.191406 540.511719 265.953125 540.484375 265.71875 540.433594 C 265.488281 540.382812 265.261719 540.304688 265.046875 540.203125 C 264.832031 540.101562 264.628906 539.976562 264.4375 539.828125 C 264.25 539.679688 264.082031 539.515625 263.929688 539.332031 C 263.777344 539.144531 263.648438 538.945312 263.539062 538.734375 C 263.433594 538.519531 263.347656 538.296875 263.289062 538.066406 C 263.230469 537.832031 263.199219 537.597656 263.195312 537.359375 C 263.1875 537.121094 263.207031 536.882812 263.253906 536.648438 L 264.5 530.359375 L 246.601562 530.359375 C 246.351562 530.359375 246.121094 530.425781 245.90625 530.554688 C 245.738281 530.660156 245.511719 530.808594 245.242188 530.992188 C 245.09375 531.09375 244.929688 531.148438 244.746094 531.148438 L 237.097656 531.148438 C 236.84375 531.148438 236.625 531.238281 236.445312 531.417969 C 236.265625 531.597656 236.175781 531.816406 236.175781 532.070312 C 236.175781 532.328125 236.265625 532.542969 236.445312 532.722656 C 236.625 532.90625 236.84375 532.996094 237.097656 532.996094 L 245.835938 532.996094 C 246.089844 532.996094 246.308594 533.085938 246.488281 533.265625 C 246.667969 533.445312 246.757812 533.664062 246.757812 533.917969 C 246.757812 534.171875 246.667969 534.390625 246.488281 534.570312 C 246.308594 534.75 246.089844 534.839844 245.835938 534.839844 L 223.808594 534.839844 C 223.554688 534.839844 223.335938 534.933594 223.15625 535.113281 C 222.976562 535.292969 222.886719 535.511719 222.886719 535.765625 C 222.886719 536.019531 222.976562 536.238281 223.15625 536.417969 C 223.335938 536.597656 223.554688 536.6875 223.808594 536.6875 L 241.449219 536.6875 C 241.703125 536.6875 241.925781 536.773438 242.105469 536.957031 C 242.289062 537.136719 242.378906 537.355469 242.378906 537.613281 C 242.378906 537.867188 242.289062 538.085938 242.105469 538.269531 C 241.925781 538.449219 241.703125 538.539062 241.449219 538.535156 L 230.136719 538.535156 C 229.882812 538.535156 229.664062 538.625 229.484375 538.804688 C 229.304688 538.984375 229.214844 539.203125 229.214844 539.457031 C 229.214844 539.714844 229.304688 539.929688 229.484375 540.109375 C 229.664062 540.292969 229.882812 540.382812 230.136719 540.382812 L 237.773438 540.382812 C 237.214844 541.980469 236.9375 543.628906 236.9375 545.320312 L 239.941406 545.320312 C 239.941406 545.339844 239.9375 545.355469 239.9375 545.375 C 239.9375 545.582031 239.953125 545.785156 239.96875 545.988281 C 240.113281 547.730469 240.804688 549.222656 242.046875 550.457031 C 242.429688 550.847656 242.855469 551.191406 243.320312 551.484375 C 243.785156 551.777344 244.277344 552.011719 244.796875 552.191406 C 245.316406 552.371094 245.851562 552.488281 246.394531 552.542969 C 246.941406 552.601562 247.488281 552.59375 248.035156 552.527344 C 248.578125 552.457031 249.109375 552.324219 249.625 552.132812 C 250.136719 551.941406 250.625 551.695312 251.082031 551.390625 C 251.539062 551.089844 251.957031 550.738281 252.335938 550.335938 C 252.710938 549.9375 253.039062 549.5 253.3125 549.027344 C 253.398438 548.886719 253.476562 548.742188 253.546875 548.597656 C 253.964844 547.773438 254.210938 546.90625 254.285156 545.988281 C 254.304688 545.785156 254.316406 545.582031 254.316406 545.375 C 254.316406 545.355469 254.316406 545.339844 254.316406 545.320312 L 271.859375 545.320312 C 272.726562 545.3125 273.542969 545.105469 274.308594 544.703125 C 275.078125 544.296875 275.710938 543.742188 276.210938 543.035156 L 276.511719 542.601562 C 276.445312 543.257812 276.445312 543.917969 276.511719 544.578125 C 276.539062 544.867188 276.585938 545.148438 276.636719 545.425781 C 276.796875 546.28125 277.0625 547.101562 277.433594 547.890625 C 277.554688 547.835938 277.675781 547.773438 277.789062 547.699219 C 277.96875 547.589844 278.140625 547.464844 278.304688 547.324219 C 278.523438 547.136719 278.722656 546.933594 278.902344 546.707031 C 279.007812 546.574219 279.105469 546.4375 279.195312 546.296875 C 279.3125 546.109375 279.417969 545.921875 279.519531 545.734375 C 280.558594 543.777344 280.671875 541.785156 282.859375 539.625 C 283.140625 539.347656 283.441406 539.09375 283.765625 538.867188 Z M 251.09375 545.375 C 251.085938 545.894531 250.980469 546.394531 250.777344 546.875 C 250.570312 547.355469 250.285156 547.777344 249.914062 548.140625 C 249.542969 548.507812 249.113281 548.789062 248.632812 548.988281 C 248.152344 549.183594 247.648438 549.285156 247.128906 549.285156 C 246.609375 549.285156 246.105469 549.183594 245.625 548.988281 C 245.140625 548.789062 244.714844 548.507812 244.34375 548.140625 C 243.972656 547.777344 243.6875 547.355469 243.480469 546.875 C 243.277344 546.394531 243.171875 545.894531 243.164062 545.375 C 243.164062 545.355469 243.167969 545.339844 243.167969 545.320312 L 251.089844 545.320312 C 251.089844 545.339844 251.09375 545.355469 251.09375 545.375 Z M 260.5 506.15625 C 260.402344 505.417969 260.203125 503.859375 260.222656 503.453125 C 260.355469 500.609375 262.339844 498.394531 265.605469 498.546875 C 266.15625 498.574219 266.6875 498.683594 267.199219 498.878906 C 267.714844 499.074219 268.1875 499.347656 268.613281 499.695312 C 269.039062 500.039062 269.402344 500.445312 269.699219 500.90625 C 269.996094 501.371094 270.214844 501.867188 270.351562 502.402344 L 265.351562 502.167969 C 265.207031 502.164062 265.082031 502.207031 264.976562 502.304688 C 264.871094 502.398438 264.816406 502.519531 264.808594 502.664062 L 264.730469 504.355469 C 264.722656 504.519531 264.765625 504.664062 264.855469 504.796875 C 264.949219 504.933594 265.070312 505.023438 265.226562 505.074219 L 270.144531 506.675781 C 269.835938 507.589844 269.386719 508.433594 268.804688 509.203125 C 268.710938 509.320312 268.59375 509.402344 268.453125 509.441406 C 268.308594 509.484375 268.164062 509.476562 268.027344 509.421875 L 260.925781 506.695312 C 260.675781 506.601562 260.535156 506.421875 260.5 506.15625 Z M 231.921875 516.871094 L 222.863281 516.871094 C 222.730469 516.871094 222.605469 516.84375 222.488281 516.792969 C 222.367188 516.738281 222.265625 516.664062 222.175781 516.566406 C 222.089844 516.46875 222.027344 516.359375 221.984375 516.234375 C 221.945312 516.109375 221.929688 515.984375 221.945312 515.855469 C 221.992188 515.375 222.433594 515.027344 222.914062 515.027344 L 234.289062 515.027344 C 234.417969 515.027344 234.542969 515 234.664062 514.945312 C 234.785156 514.894531 234.886719 514.816406 234.976562 514.71875 C 235.0625 514.625 235.125 514.511719 235.167969 514.386719 C 235.207031 514.265625 235.222656 514.136719 235.207031 514.007812 C 235.160156 513.527344 234.71875 513.179688 234.234375 513.179688 L 225.125 513.179688 C 224.871094 513.179688 224.652344 513.089844 224.472656 512.910156 C 224.292969 512.726562 224.199219 512.511719 224.199219 512.253906 C 224.199219 512 224.292969 511.78125 224.472656 511.601562 C 224.652344 511.421875 224.871094 511.332031 225.125 511.332031 L 234.289062 511.332031 C 234.417969 511.332031 234.542969 511.304688 234.664062 511.253906 C 234.785156 511.199219 234.886719 511.125 234.976562 511.027344 C 235.0625 510.929688 235.125 510.820312 235.167969 510.695312 C 235.207031 510.570312 235.222656 510.445312 235.207031 510.3125 C 235.160156 509.832031 234.71875 509.484375 234.234375 509.484375 L 227.871094 509.484375 C 227.738281 509.484375 227.613281 509.457031 227.492188 509.40625 C 227.375 509.351562 227.269531 509.277344 227.183594 509.179688 C 227.097656 509.082031 227.03125 508.972656 226.992188 508.847656 C 226.949219 508.722656 226.9375 508.597656 226.949219 508.464844 C 227 507.984375 227.4375 507.636719 227.921875 507.636719 L 231.921875 507.636719 L 231.921875 506.578125 C 231.921875 506.324219 232.011719 506.109375 232.1875 505.929688 C 232.367188 505.753906 232.582031 505.664062 232.835938 505.664062 L 253.269531 505.664062 C 253.519531 505.664062 253.734375 505.753906 253.914062 505.929688 C 254.09375 506.109375 254.183594 506.324219 254.183594 506.578125 L 254.183594 524.421875 C 254.183594 524.589844 254.148438 524.753906 254.085938 524.910156 C 254.019531 525.066406 253.929688 525.207031 253.808594 525.324219 C 253.6875 525.445312 253.550781 525.539062 253.390625 525.601562 C 253.234375 525.667969 253.074219 525.699219 252.902344 525.699219 L 232.835938 525.699219 C 232.582031 525.699219 232.367188 525.613281 232.1875 525.433594 C 232.011719 525.253906 231.921875 525.039062 231.921875 524.785156 L 231.921875 518.71875 L 234.289062 518.71875 C 234.417969 518.71875 234.542969 518.691406 234.664062 518.640625 C 234.785156 518.585938 234.886719 518.511719 234.976562 518.414062 C 235.0625 518.316406 235.125 518.207031 235.167969 518.082031 C 235.207031 517.957031 235.222656 517.832031 235.207031 517.699219 C 235.160156 517.21875 234.71875 516.871094 234.238281 516.871094 Z M 231.921875 516.871094 " fill-opacity="1" fill-rule="nonzero"/></g></svg>