<svg xmlns="http://www.w3.org/2000/svg" xmlns:xlink="http://www.w3.org/1999/xlink" width="1080" zoomAndPan="magnify" viewBox="0 0 810 809.999993" height="1080" preserveAspectRatio="xMidYMid meet" version="1.0"><defs><clipPath id="69f24b6d3a"><path d="M 107 176 L 723.980469 176 L 723.980469 633 L 107 633 Z M 107 176 " clip-rule="nonzero"/></clipPath></defs><g clip-path="url(#69f24b6d3a)"><path fill="#015db3" d="M 715.464844 536.496094 C 713.574219 533 711.382812 529.707031 708.886719 526.613281 C 706.394531 523.523438 703.636719 520.683594 700.621094 518.097656 C 697.601562 515.511719 694.375 513.222656 690.9375 511.226562 C 687.5 509.234375 683.910156 507.574219 680.167969 506.238281 C 674.386719 507.960938 668.527344 509.347656 662.585938 510.390625 C 649.421875 512.929688 636.988281 515.324219 625.183594 526.984375 C 613.355469 538.664062 609.273438 549.460938 604.957031 560.894531 C 602.296875 567.933594 599.550781 575.203125 594.921875 582.46875 C 595.585938 586.078125 596.636719 589.570312 598.082031 592.941406 C 599.238281 595.722656 600.582031 598.410156 602.109375 601.003906 C 603.640625 603.597656 605.339844 606.070312 607.214844 608.429688 C 609.085938 610.785156 611.113281 613.003906 613.296875 615.078125 C 615.476562 617.152344 617.792969 619.066406 620.238281 620.820312 C 622.6875 622.574219 625.242188 624.148438 627.910156 625.546875 C 630.578125 626.945312 633.328125 628.152344 636.160156 629.167969 C 638.996094 630.183594 641.886719 630.996094 644.835938 631.613281 C 647.78125 632.226562 650.757812 632.632812 653.761719 632.832031 C 656.765625 633.03125 659.769531 633.023438 662.773438 632.804688 C 665.777344 632.585938 668.75 632.164062 671.691406 631.53125 C 674.636719 630.902344 677.523438 630.070312 680.351562 629.035156 C 683.179688 628.003906 685.921875 626.78125 688.582031 625.367188 C 691.238281 623.953125 693.785156 622.363281 696.222656 620.59375 C 698.660156 618.828125 700.964844 616.898438 703.132812 614.8125 C 705.300781 612.722656 707.316406 610.496094 709.175781 608.125 C 711.035156 605.757812 712.722656 603.273438 714.234375 600.671875 C 714.984375 599.398438 715.695312 598.109375 716.359375 596.785156 C 720.121094 589.332031 722.351562 581.441406 723.054688 573.121094 C 723.210938 571.289062 723.335938 569.441406 723.335938 567.566406 C 723.34375 562.140625 722.683594 556.796875 721.347656 551.539062 C 720.015625 546.277344 718.054688 541.265625 715.464844 536.496094 Z M 692.78125 576.71875 C 692.578125 577.433594 692.355469 578.140625 692.109375 578.84375 C 691.863281 579.542969 691.597656 580.234375 691.308594 580.917969 C 691.019531 581.605469 690.710938 582.277344 690.378906 582.941406 C 690.046875 583.605469 689.695312 584.261719 689.324219 584.902344 C 688.953125 585.546875 688.558594 586.175781 688.148438 586.792969 C 687.738281 587.414062 687.304688 588.015625 686.855469 588.609375 C 686.40625 589.199219 685.9375 589.773438 685.453125 590.335938 C 684.96875 590.898438 684.464844 591.445312 683.945312 591.972656 C 683.425781 592.503906 682.886719 593.015625 682.335938 593.511719 C 681.785156 594.007812 681.214844 594.488281 680.632812 594.949219 C 680.050781 595.410156 679.457031 595.851562 678.84375 596.277344 C 678.234375 596.699219 677.613281 597.101562 676.976562 597.488281 C 676.34375 597.871094 675.695312 598.234375 675.035156 598.578125 C 674.378906 598.921875 673.710938 599.246094 673.03125 599.546875 C 672.355469 599.847656 671.667969 600.128906 670.96875 600.386719 C 670.273438 600.648438 669.570312 600.882812 668.859375 601.097656 C 668.148438 601.3125 667.433594 601.503906 666.710938 601.671875 C 665.984375 601.84375 665.257812 601.988281 664.527344 602.113281 C 663.792969 602.238281 663.058594 602.339844 662.320312 602.417969 C 661.582031 602.492188 660.84375 602.546875 660.101562 602.578125 C 659.359375 602.609375 658.617188 602.617188 657.875 602.605469 C 657.132812 602.589844 656.390625 602.550781 655.648438 602.488281 C 654.910156 602.425781 654.171875 602.339844 653.4375 602.234375 C 652.703125 602.125 651.972656 601.996094 651.246094 601.839844 C 650.519531 601.6875 649.800781 601.511719 649.085938 601.3125 C 648.367188 601.113281 647.660156 600.890625 646.957031 600.648438 C 646.257812 600.402344 645.5625 600.136719 644.878906 599.851562 C 644.195312 599.5625 643.519531 599.253906 642.855469 598.925781 C 642.1875 598.597656 641.535156 598.246094 640.890625 597.875 C 640.246094 597.503906 639.617188 597.117188 638.996094 596.707031 C 638.378906 596.296875 637.773438 595.867188 637.179688 595.417969 C 636.585938 594.96875 636.011719 594.503906 635.449219 594.019531 C 634.886719 593.535156 634.335938 593.035156 633.804688 592.515625 C 633.273438 591.996094 632.761719 591.460938 632.261719 590.910156 C 631.765625 590.359375 631.285156 589.792969 630.824219 589.210938 C 630.359375 588.632812 629.917969 588.035156 629.492188 587.425781 C 629.066406 586.816406 628.660156 586.195312 628.273438 585.5625 C 627.890625 584.929688 627.523438 584.28125 627.179688 583.625 C 626.832031 582.96875 626.507812 582.300781 626.203125 581.621094 C 625.902344 580.945312 625.621094 580.257812 625.359375 579.5625 C 625.097656 578.867188 624.859375 578.164062 624.644531 577.453125 C 624.425781 576.742188 624.234375 576.027344 624.0625 575.304688 C 623.890625 574.582031 623.742188 573.855469 623.617188 573.125 C 623.492188 572.390625 623.386719 571.65625 623.308594 570.917969 C 623.230469 570.179688 623.171875 569.441406 623.140625 568.699219 C 623.105469 567.957031 623.097656 567.214844 623.109375 566.472656 C 623.121094 565.730469 623.160156 564.988281 623.21875 564.246094 C 623.277344 563.507812 623.363281 562.769531 623.46875 562.035156 C 623.574219 561.300781 623.703125 560.570312 623.855469 559.84375 C 624.007812 559.117188 624.183594 558.394531 624.378906 557.679688 C 624.578125 556.960938 624.796875 556.253906 625.039062 555.550781 C 625.28125 554.851562 625.542969 554.15625 625.828125 553.46875 C 626.113281 552.785156 626.421875 552.109375 626.75 551.441406 C 627.074219 550.777344 627.425781 550.121094 627.792969 549.476562 C 628.160156 548.832031 628.550781 548.199219 628.960938 547.578125 C 629.367188 546.960938 629.796875 546.351562 630.242188 545.757812 C 630.6875 545.167969 631.152344 544.585938 631.636719 544.023438 C 632.117188 543.460938 632.617188 542.910156 633.136719 542.378906 C 633.652344 541.847656 634.1875 541.328125 634.738281 540.832031 C 635.285156 540.332031 635.851562 539.851562 636.429688 539.386719 C 637.011719 538.921875 637.605469 538.476562 638.210938 538.050781 C 638.820312 537.625 639.441406 537.21875 640.074219 536.828125 C 640.707031 536.441406 641.351562 536.074219 642.007812 535.726562 C 642.664062 535.378906 643.332031 535.054688 644.007812 534.75 C 644.6875 534.445312 645.371094 534.160156 646.066406 533.898438 C 646.761719 533.636719 647.464844 533.394531 648.171875 533.175781 C 648.882812 532.960938 649.597656 532.761719 650.320312 532.589844 C 651.042969 532.417969 651.769531 532.265625 652.5 532.140625 C 653.234375 532.011719 653.96875 531.90625 654.707031 531.824219 C 655.445312 531.742188 656.183594 531.683594 656.925781 531.648438 C 657.667969 531.613281 658.410156 531.601562 659.152344 531.613281 C 659.894531 531.625 660.636719 531.660156 661.375 531.71875 C 662.117188 531.777344 662.855469 531.859375 663.589844 531.960938 C 664.324219 532.066406 665.054688 532.195312 665.78125 532.34375 C 666.511719 532.492188 667.230469 532.667969 667.949219 532.863281 C 668.664062 533.058594 669.375 533.273438 670.078125 533.515625 C 670.78125 533.753906 671.472656 534.015625 672.160156 534.300781 C 672.847656 534.585938 673.523438 534.890625 674.191406 535.214844 C 674.859375 535.539062 675.515625 535.886719 676.160156 536.253906 C 676.804688 536.621094 677.4375 537.007812 678.058594 537.414062 C 678.679688 537.824219 679.289062 538.25 679.882812 538.695312 C 680.476562 539.140625 681.054688 539.601562 681.621094 540.082031 C 682.1875 540.566406 682.738281 541.0625 683.269531 541.578125 C 683.804688 542.09375 684.320312 542.628906 684.824219 543.175781 C 685.324219 543.726562 685.804688 544.289062 686.273438 544.867188 C 686.738281 545.445312 687.183594 546.039062 687.613281 546.644531 C 688.039062 547.25 688.449219 547.871094 688.835938 548.503906 C 689.226562 549.136719 689.597656 549.78125 689.945312 550.4375 C 690.292969 551.089844 690.621094 551.757812 690.929688 552.433594 C 691.234375 553.109375 691.519531 553.792969 691.785156 554.488281 C 692.046875 555.183594 692.289062 555.882812 692.511719 556.59375 C 692.730469 557.300781 692.929688 558.019531 693.101562 558.738281 C 693.277344 559.460938 693.429688 560.1875 693.558594 560.917969 C 693.691406 561.648438 693.796875 562.382812 693.878906 563.121094 C 693.964844 563.859375 694.023438 564.601562 694.058594 565.339844 C 694.097656 566.082031 694.109375 566.824219 694.101562 567.566406 C 694.058594 570.675781 693.617188 573.726562 692.78125 576.71875 Z M 629.355469 517.0625 C 632.996094 514.527344 636.886719 512.460938 641.023438 510.859375 C 642.332031 510.34375 643.644531 509.882812 644.964844 509.460938 C 650.222656 507.875 655.558594 506.609375 660.96875 505.667969 C 662.320312 505.410156 663.671875 505.144531 665.03125 504.878906 C 666.9375 504.503906 668.851562 504.09375 670.777344 503.652344 C 671.589844 503.46875 672.40625 503.289062 673.226562 503.085938 C 677.492188 502.054688 681.644531 500.683594 685.6875 498.972656 C 688.324219 497.851562 690.871094 496.550781 693.328125 495.074219 C 694.378906 494.4375 695.324219 493.816406 696.167969 493.222656 C 698.390625 491.757812 700.363281 490.011719 702.089844 487.984375 C 696.671875 483.957031 690.816406 480.710938 684.53125 478.246094 C 684.011719 478.035156 683.5 477.8125 682.972656 477.609375 C 680.167969 476.535156 677.3125 475.613281 674.40625 474.839844 C 673.847656 474.695312 673.285156 474.566406 672.722656 474.429688 C 669.667969 473.664062 666.578125 473.074219 663.453125 472.660156 C 660.238281 472.273438 657.015625 472.070312 653.78125 472.039062 C 653.160156 472.03125 652.546875 472.007812 651.925781 472.011719 C 649.382812 472.035156 646.828125 472.136719 644.25 472.390625 C 633.855469 473.4375 623.996094 476.308594 614.664062 481.007812 L 620.019531 473.238281 L 622.652344 469.417969 C 623.902344 467.601562 624.917969 465.660156 625.699219 463.597656 C 626.480469 461.535156 627 459.40625 627.261719 457.214844 C 627.527344 455.027344 627.523438 452.835938 627.253906 450.644531 C 626.984375 448.457031 626.453125 446.332031 625.667969 444.269531 L 590.714844 352.617188 L 612.261719 356.042969 C 612.808594 356.128906 613.355469 356.15625 613.910156 356.125 C 614.460938 356.089844 615.003906 356 615.535156 355.851562 C 616.066406 355.699219 616.578125 355.496094 617.066406 355.234375 C 617.554688 354.972656 618.007812 354.664062 618.429688 354.304688 C 618.851562 353.945312 619.226562 353.542969 619.5625 353.105469 C 619.894531 352.664062 620.179688 352.191406 620.410156 351.6875 C 620.640625 351.1875 620.816406 350.664062 620.933594 350.125 C 621.054688 349.585938 621.113281 349.039062 621.113281 348.484375 L 621.113281 308.25 C 621.113281 307.695312 621.054688 307.148438 620.933594 306.609375 C 620.816406 306.070312 620.640625 305.546875 620.410156 305.042969 C 620.175781 304.542969 619.894531 304.070312 619.5625 303.628906 C 619.226562 303.1875 618.847656 302.789062 618.429688 302.429688 C 618.007812 302.070312 617.554688 301.761719 617.066406 301.5 C 616.578125 301.238281 616.066406 301.035156 615.535156 300.882812 C 615.003906 300.734375 614.460938 300.640625 613.90625 300.609375 C 613.355469 300.578125 612.804688 300.605469 612.261719 300.691406 L 562.863281 308.550781 C 562.339844 308.632812 561.828125 308.761719 561.328125 308.933594 C 560.824219 309.109375 560.34375 309.324219 559.882812 309.585938 C 559.417969 309.84375 558.984375 310.140625 558.574219 310.480469 C 558.164062 310.816406 557.789062 311.183594 557.445312 311.589844 C 557.101562 311.992188 556.792969 312.421875 556.527344 312.878906 C 556.257812 313.335938 556.03125 313.8125 555.851562 314.3125 C 555.667969 314.808594 555.527344 315.316406 555.433594 315.839844 C 555.34375 316.359375 555.296875 316.886719 555.296875 317.417969 L 555.296875 324.835938 C 554.542969 324.675781 553.78125 324.578125 553.007812 324.539062 L 513.632812 324.039062 C 512.304688 323.988281 511.046875 323.667969 509.855469 323.074219 C 508.664062 322.484375 507.648438 321.671875 506.808594 320.640625 L 471.164062 276.730469 C 451.445312 252.558594 417.792969 260.085938 411.457031 290.628906 L 392.929688 360.277344 C 392.632812 361.695312 392.402344 363.121094 392.238281 364.558594 C 392.078125 365.996094 391.980469 367.4375 391.949219 368.882812 C 391.917969 370.332031 391.957031 371.777344 392.0625 373.21875 C 392.164062 374.660156 392.335938 376.097656 392.574219 377.523438 C 392.8125 378.949219 393.113281 380.363281 393.480469 381.761719 C 393.851562 383.164062 394.28125 384.542969 394.777344 385.898438 C 395.277344 387.257812 395.832031 388.59375 396.453125 389.898438 C 397.074219 391.207031 397.753906 392.480469 398.492188 393.726562 C 399.230469 394.96875 400.023438 396.175781 400.875 397.347656 C 401.726562 398.519531 402.628906 399.648438 403.582031 400.734375 C 404.539062 401.820312 405.542969 402.859375 406.59375 403.855469 C 407.644531 404.847656 408.742188 405.789062 409.878906 406.683594 C 411.019531 407.574219 412.199219 408.410156 413.414062 409.195312 C 414.632812 409.976562 415.882812 410.699219 417.164062 411.367188 C 418.449219 412.035156 419.761719 412.640625 421.101562 413.183594 C 422.441406 413.730469 423.804688 414.210938 425.191406 414.628906 L 310.742188 414.628906 C 310.464844 414.628906 310.191406 414.65625 309.917969 414.710938 C 309.644531 414.765625 309.378906 414.847656 309.125 414.953125 C 308.867188 415.058594 308.621094 415.191406 308.390625 415.34375 C 308.160156 415.5 307.945312 415.675781 307.75 415.871094 C 307.554688 416.066406 307.378906 416.28125 307.222656 416.511719 C 307.070312 416.746094 306.9375 416.988281 306.832031 417.246094 C 306.726562 417.503906 306.644531 417.765625 306.589844 418.039062 C 306.539062 418.3125 306.511719 418.589844 306.511719 418.867188 L 306.511719 434.789062 C 306.511719 435.070312 306.539062 435.34375 306.59375 435.617188 C 306.648438 435.890625 306.726562 436.152344 306.832031 436.410156 C 306.941406 436.667969 307.070312 436.910156 307.226562 437.140625 C 307.378906 437.371094 307.554688 437.585938 307.75 437.785156 C 307.949219 437.980469 308.160156 438.15625 308.394531 438.308594 C 308.625 438.464844 308.867188 438.59375 309.125 438.699219 C 309.382812 438.808594 309.644531 438.886719 309.917969 438.941406 C 310.191406 438.996094 310.464844 439.023438 310.742188 439.023438 L 469.386719 439.023438 C 469.664062 439.023438 469.9375 438.996094 470.210938 438.941406 C 470.484375 438.890625 470.75 438.808594 471.003906 438.703125 C 471.261719 438.597656 471.507812 438.464844 471.738281 438.3125 C 471.96875 438.15625 472.183594 437.980469 472.378906 437.785156 C 472.578125 437.589844 472.753906 437.375 472.90625 437.144531 C 473.0625 436.910156 473.191406 436.667969 473.296875 436.410156 C 473.40625 436.15625 473.484375 435.890625 473.539062 435.617188 C 473.59375 435.34375 473.621094 435.070312 473.621094 434.789062 L 473.621094 422.183594 L 495.25 425.296875 L 478.132812 501.441406 C 478.035156 502.007812 477.960938 502.574219 477.917969 503.144531 C 477.871094 503.714844 477.855469 504.289062 477.867188 504.859375 C 477.878906 505.433594 477.917969 506.003906 477.984375 506.570312 C 478.050781 507.140625 478.144531 507.703125 478.265625 508.265625 C 478.386719 508.824219 478.535156 509.375 478.710938 509.921875 C 478.886719 510.46875 479.085938 511.003906 479.3125 511.527344 C 479.542969 512.054688 479.792969 512.566406 480.070312 513.066406 C 480.347656 513.570312 480.648438 514.054688 480.972656 514.527344 C 481.296875 515 481.644531 515.453125 482.011719 515.894531 C 482.382812 516.332031 482.769531 516.75 483.179688 517.148438 C 483.589844 517.550781 484.019531 517.929688 484.464844 518.289062 C 484.910156 518.648438 485.375 518.984375 485.851562 519.296875 C 486.332031 519.609375 486.824219 519.902344 487.332031 520.167969 C 487.839844 520.433594 488.359375 520.671875 488.890625 520.886719 C 489.421875 521.101562 489.960938 521.292969 490.507812 521.453125 C 491.058594 521.617188 491.613281 521.753906 492.175781 521.863281 C 492.738281 521.972656 493.304688 522.050781 493.875 522.105469 C 494.445312 522.160156 495.015625 522.183594 495.589844 522.183594 C 496.160156 522.179688 496.734375 522.152344 497.300781 522.09375 C 497.871094 522.035156 498.4375 521.953125 499 521.839844 C 499.5625 521.726562 500.117188 521.585938 500.664062 521.421875 C 501.210938 521.253906 501.75 521.0625 502.277344 520.84375 C 502.808594 520.625 503.324219 520.378906 503.832031 520.109375 C 504.335938 519.84375 504.828125 519.550781 505.304688 519.230469 C 505.78125 518.914062 506.242188 518.574219 506.6875 518.214844 C 507.128906 517.851562 507.554688 517.46875 507.964844 517.066406 C 508.371094 516.664062 508.757812 516.242188 509.121094 515.800781 C 509.488281 515.363281 509.832031 514.902344 510.152344 514.429688 C 510.472656 513.957031 510.769531 513.46875 511.046875 512.964844 C 511.320312 512.460938 511.566406 511.945312 511.792969 511.417969 C 512.015625 510.890625 512.214844 510.355469 512.382812 509.808594 C 512.554688 509.261719 512.699219 508.710938 512.820312 508.148438 L 533.96875 424.117188 C 534.183594 423.109375 534.351562 422.09375 534.464844 421.066406 C 534.578125 420.042969 534.640625 419.015625 534.65625 417.984375 C 534.667969 416.953125 534.628906 415.921875 534.539062 414.894531 C 534.449219 413.867188 534.308594 412.847656 534.121094 411.835938 C 533.929688 410.820312 533.691406 409.820312 533.402344 408.832031 C 533.109375 407.839844 532.773438 406.867188 532.386719 405.910156 C 532.003906 404.957031 531.570312 404.019531 531.09375 403.105469 C 530.613281 402.195312 530.089844 401.304688 529.527344 400.445312 C 528.960938 399.582031 528.351562 398.75 527.703125 397.949219 C 527.054688 397.148438 526.367188 396.378906 525.644531 395.644531 C 524.921875 394.914062 524.160156 394.214844 523.367188 393.558594 C 522.574219 392.898438 521.75 392.28125 520.898438 391.703125 C 520.042969 391.125 519.160156 390.59375 518.253906 390.101562 C 517.347656 389.613281 516.417969 389.167969 515.464844 388.773438 C 514.515625 388.375 513.546875 388.023438 512.5625 387.722656 C 511.574219 387.417969 510.578125 387.167969 509.566406 386.964844 C 491.757812 383.382812 469.628906 379.070312 458.117188 376.835938 C 457.609375 376.734375 457.117188 376.585938 456.640625 376.390625 C 456.164062 376.191406 455.710938 375.949219 455.28125 375.660156 C 454.855469 375.371094 454.460938 375.042969 454.097656 374.671875 C 453.734375 374.304688 453.414062 373.902344 453.132812 373.46875 C 452.851562 373.035156 452.613281 372.578125 452.425781 372.097656 C 452.234375 371.617188 452.097656 371.125 452.007812 370.613281 C 451.917969 370.105469 451.878906 369.59375 451.890625 369.078125 C 451.90625 368.558594 451.96875 368.050781 452.085938 367.546875 L 462.828125 319.785156 L 482.953125 343.621094 C 484.636719 345.691406 486.535156 347.542969 488.648438 349.175781 C 490.761719 350.804688 493.03125 352.171875 495.460938 353.277344 C 497.890625 354.378906 500.417969 355.191406 503.035156 355.707031 C 505.652344 356.226562 508.296875 356.433594 510.964844 356.339844 L 553.007812 354.039062 C 555.179688 353.960938 557.234375 353.425781 559.167969 352.433594 L 574.242188 436.320312 C 574.769531 439.265625 575.066406 442.238281 575.128906 445.234375 C 575.191406 448.226562 575.019531 451.210938 574.613281 454.175781 C 574.207031 457.144531 573.574219 460.0625 572.707031 462.929688 C 571.84375 465.796875 570.761719 468.582031 569.457031 471.277344 L 548.398438 514.910156 C 547.820312 516.105469 547.160156 517.253906 546.421875 518.359375 C 545.683594 519.460938 544.875 520.507812 543.988281 521.496094 C 543.101562 522.488281 542.152344 523.410156 541.136719 524.265625 C 540.121094 525.121094 539.050781 525.902344 537.929688 526.609375 C 536.804688 527.316406 535.636719 527.9375 534.421875 528.480469 C 533.210938 529.023438 531.96875 529.476562 530.691406 529.84375 C 529.414062 530.210938 528.121094 530.488281 526.804688 530.671875 C 525.492188 530.859375 524.167969 530.953125 522.839844 530.953125 L 482.914062 530.953125 C 481.910156 530.953125 480.90625 530.894531 479.90625 530.785156 C 478.902344 530.675781 477.914062 530.507812 476.929688 530.289062 C 475.949219 530.066406 474.980469 529.792969 474.027344 529.464844 C 473.074219 529.140625 472.144531 528.761719 471.234375 528.328125 C 470.324219 527.898438 469.441406 527.421875 468.582031 526.894531 C 467.726562 526.363281 466.898438 525.792969 466.105469 525.171875 C 465.3125 524.554688 464.554688 523.890625 463.832031 523.1875 C 463.113281 522.484375 462.433594 521.746094 461.792969 520.96875 C 461.152344 520.191406 460.558594 519.378906 460.011719 518.535156 C 459.460938 517.691406 458.960938 516.820312 458.507812 515.921875 C 458.054688 515.023438 457.652344 514.101562 457.300781 513.15625 C 456.949219 512.214844 456.648438 511.253906 456.402344 510.277344 C 456.160156 509.300781 455.96875 508.3125 455.832031 507.316406 C 455.695312 506.320312 455.613281 505.316406 455.589844 504.308594 C 455.5625 503.304688 455.59375 502.296875 455.679688 501.296875 C 455.765625 500.292969 455.90625 499.296875 456.101562 498.308594 L 466.613281 445.191406 L 315.441406 445.191406 C 313.316406 445.183594 311.355469 445.738281 309.550781 446.855469 C 308.136719 447.738281 306.226562 448.96875 303.953125 450.53125 C 302.691406 451.402344 301.296875 451.84375 299.765625 451.851562 L 235.144531 451.851562 C 234.632812 451.851562 234.125 451.902344 233.625 452 C 233.121094 452.101562 232.632812 452.25 232.160156 452.445312 C 231.6875 452.640625 231.238281 452.882812 230.8125 453.167969 C 230.386719 453.449219 229.992188 453.773438 229.628906 454.136719 C 229.269531 454.5 228.945312 454.890625 228.660156 455.316406 C 228.375 455.742188 228.136719 456.195312 227.9375 456.667969 C 227.742188 457.140625 227.59375 457.628906 227.496094 458.128906 C 227.394531 458.632812 227.34375 459.140625 227.34375 459.652344 C 227.34375 460.164062 227.394531 460.671875 227.496094 461.171875 C 227.59375 461.675781 227.742188 462.164062 227.9375 462.636719 C 228.136719 463.109375 228.375 463.558594 228.660156 463.984375 C 228.945312 464.410156 229.269531 464.804688 229.628906 465.167969 C 229.992188 465.527344 230.386719 465.851562 230.8125 466.136719 C 231.238281 466.421875 231.6875 466.660156 232.160156 466.859375 C 232.632812 467.054688 233.121094 467.203125 233.625 467.300781 C 234.125 467.402344 234.632812 467.453125 235.144531 467.453125 L 308.953125 467.453125 C 309.464844 467.453125 309.972656 467.5 310.472656 467.601562 C 310.976562 467.703125 311.464844 467.847656 311.9375 468.046875 C 312.410156 468.242188 312.859375 468.480469 313.285156 468.765625 C 313.710938 469.050781 314.105469 469.375 314.46875 469.734375 C 314.828125 470.097656 315.152344 470.492188 315.4375 470.917969 C 315.722656 471.34375 315.960938 471.792969 316.160156 472.265625 C 316.355469 472.738281 316.503906 473.226562 316.601562 473.730469 C 316.703125 474.230469 316.753906 474.738281 316.753906 475.25 C 316.753906 475.761719 316.703125 476.269531 316.601562 476.773438 C 316.503906 477.273438 316.355469 477.761719 316.160156 478.234375 C 315.960938 478.710938 315.722656 479.160156 315.4375 479.585938 C 315.152344 480.011719 314.828125 480.40625 314.46875 480.765625 C 314.105469 481.128906 313.710938 481.453125 313.285156 481.738281 C 312.859375 482.019531 312.410156 482.261719 311.9375 482.457031 C 311.464844 482.652344 310.976562 482.800781 310.472656 482.902344 C 309.972656 483 309.464844 483.050781 308.953125 483.050781 L 122.902344 483.050781 C 122.390625 483.050781 121.886719 483.101562 121.382812 483.199219 C 120.878906 483.300781 120.390625 483.449219 119.917969 483.644531 C 119.445312 483.839844 118.996094 484.082031 118.570312 484.367188 C 118.144531 484.648438 117.75 484.972656 117.390625 485.335938 C 117.027344 485.699219 116.703125 486.09375 116.417969 486.519531 C 116.132812 486.945312 115.894531 487.394531 115.699219 487.867188 C 115.503906 488.339844 115.355469 488.828125 115.253906 489.328125 C 115.152344 489.832031 115.105469 490.339844 115.105469 490.851562 C 115.105469 491.363281 115.152344 491.871094 115.253906 492.371094 C 115.355469 492.875 115.503906 493.363281 115.699219 493.835938 C 115.894531 494.308594 116.132812 494.757812 116.417969 495.183594 C 116.703125 495.609375 117.027344 496.003906 117.390625 496.367188 C 117.75 496.730469 118.144531 497.050781 118.570312 497.335938 C 118.996094 497.621094 119.445312 497.859375 119.917969 498.058594 C 120.390625 498.253906 120.878906 498.402344 121.382812 498.5 C 121.886719 498.601562 122.390625 498.652344 122.902344 498.652344 L 271.894531 498.652344 C 272.410156 498.644531 272.921875 498.691406 273.425781 498.789062 C 273.933594 498.882812 274.425781 499.027344 274.902344 499.222656 C 275.382812 499.414062 275.835938 499.65625 276.265625 499.9375 C 276.695312 500.222656 277.09375 500.546875 277.460938 500.90625 C 277.828125 501.269531 278.152344 501.664062 278.441406 502.09375 C 278.730469 502.519531 278.972656 502.972656 279.171875 503.449219 C 279.371094 503.921875 279.519531 504.414062 279.621094 504.917969 C 279.722656 505.425781 279.773438 505.933594 279.773438 506.449219 C 279.773438 506.964844 279.722656 507.476562 279.621094 507.980469 C 279.519531 508.488281 279.371094 508.976562 279.171875 509.453125 C 278.972656 509.929688 278.730469 510.378906 278.441406 510.808594 C 278.152344 511.234375 277.828125 511.628906 277.460938 511.992188 C 277.09375 512.355469 276.695312 512.679688 276.265625 512.960938 C 275.835938 513.246094 275.382812 513.484375 274.902344 513.679688 C 274.425781 513.871094 273.933594 514.015625 273.425781 514.113281 C 272.921875 514.210938 272.410156 514.253906 271.894531 514.25 L 176.355469 514.25 C 175.84375 514.25 175.335938 514.300781 174.832031 514.398438 C 174.332031 514.5 173.84375 514.648438 173.371094 514.84375 C 172.898438 515.039062 172.445312 515.28125 172.019531 515.566406 C 171.59375 515.847656 171.203125 516.171875 170.839844 516.535156 C 170.476562 516.898438 170.152344 517.289062 169.871094 517.714844 C 169.585938 518.140625 169.34375 518.59375 169.148438 519.066406 C 168.953125 519.539062 168.804688 520.027344 168.703125 520.527344 C 168.605469 521.03125 168.554688 521.539062 168.554688 522.050781 C 168.554688 522.5625 168.605469 523.070312 168.703125 523.570312 C 168.804688 524.074219 168.953125 524.5625 169.148438 525.035156 C 169.34375 525.507812 169.585938 525.957031 169.871094 526.382812 C 170.152344 526.808594 170.476562 527.203125 170.839844 527.566406 C 171.203125 527.925781 171.59375 528.25 172.019531 528.535156 C 172.445312 528.820312 172.898438 529.058594 173.371094 529.257812 C 173.84375 529.453125 174.332031 529.601562 174.832031 529.699219 C 175.335938 529.800781 175.84375 529.851562 176.355469 529.851562 L 240.847656 529.851562 C 236.148438 543.359375 233.796875 557.265625 233.800781 571.570312 L 259.183594 571.570312 C 259.183594 571.722656 259.152344 571.871094 259.152344 572.027344 C 259.152344 573.773438 259.269531 575.492188 259.414062 577.203125 C 259.707031 580.742188 260.308594 584.226562 261.214844 587.660156 C 262.125 591.09375 263.324219 594.421875 264.820312 597.640625 C 266.3125 600.863281 268.078125 603.929688 270.117188 606.839844 C 272.152344 609.75 274.425781 612.457031 276.941406 614.96875 C 277.753906 615.789062 278.585938 616.585938 279.445312 617.359375 C 280.304688 618.132812 281.183594 618.882812 282.082031 619.605469 C 282.984375 620.328125 283.90625 621.027344 284.84375 621.695312 C 285.785156 622.367188 286.746094 623.011719 287.722656 623.625 C 288.699219 624.242188 289.695312 624.828125 290.707031 625.386719 C 291.71875 625.945312 292.746094 626.472656 293.785156 626.972656 C 294.828125 627.472656 295.882812 627.941406 296.953125 628.382812 C 298.019531 628.820312 299.101562 629.226562 300.191406 629.605469 C 301.285156 629.980469 302.386719 630.328125 303.5 630.640625 C 304.609375 630.953125 305.730469 631.238281 306.859375 631.484375 C 307.988281 631.734375 309.121094 631.953125 310.261719 632.136719 C 311.402344 632.320312 312.546875 632.472656 313.695312 632.59375 C 314.84375 632.710938 315.996094 632.796875 317.152344 632.847656 C 318.304688 632.902344 319.460938 632.921875 320.613281 632.90625 C 321.769531 632.894531 322.925781 632.847656 324.078125 632.769531 C 325.230469 632.6875 326.378906 632.574219 327.523438 632.429688 C 328.671875 632.285156 329.8125 632.105469 330.949219 631.894531 C 332.082031 631.683594 333.210938 631.441406 334.332031 631.164062 C 335.457031 630.886719 336.570312 630.578125 337.671875 630.238281 C 338.777344 629.898438 339.871094 629.527344 340.953125 629.125 C 342.035156 628.722656 343.105469 628.289062 344.164062 627.828125 C 345.222656 627.363281 346.265625 626.867188 347.296875 626.34375 C 348.328125 625.820312 349.339844 625.269531 350.339844 624.6875 C 351.335938 624.105469 352.316406 623.496094 353.28125 622.855469 C 354.242188 622.21875 355.1875 621.550781 356.113281 620.859375 C 357.035156 620.167969 357.941406 619.449219 358.824219 618.703125 C 359.707031 617.960938 360.570312 617.191406 361.410156 616.398438 C 362.25 615.605469 363.0625 614.789062 363.855469 613.945312 C 364.648438 613.105469 365.417969 612.242188 366.160156 611.359375 C 366.902344 610.472656 367.621094 609.570312 368.3125 608.644531 C 369.003906 607.71875 369.667969 606.773438 370.304688 605.808594 C 370.941406 604.84375 371.550781 603.863281 372.128906 602.867188 C 372.832031 601.683594 373.492188 600.480469 374.113281 599.246094 C 377.613281 592.300781 379.691406 584.953125 380.347656 577.203125 C 380.492188 575.492188 380.609375 573.773438 380.609375 572.027344 C 380.609375 571.875 380.582031 571.726562 380.582031 571.570312 L 528.796875 571.570312 C 530.59375 571.550781 532.382812 571.425781 534.164062 571.191406 C 535.949219 570.960938 537.710938 570.625 539.453125 570.183594 C 541.195312 569.742188 542.90625 569.199219 544.585938 568.558594 C 546.261719 567.914062 547.898438 567.175781 549.488281 566.339844 C 551.078125 565.503906 552.617188 564.578125 554.097656 563.558594 C 555.578125 562.542969 556.996094 561.441406 558.347656 560.257812 C 559.699219 559.074219 560.976562 557.8125 562.179688 556.476562 C 563.382812 555.140625 564.503906 553.738281 565.539062 552.269531 L 568.074219 548.59375 C 567.527344 554.160156 567.523438 559.726562 568.070312 565.292969 C 568.308594 567.726562 568.710938 570.101562 569.144531 572.460938 C 570.484375 579.6875 572.722656 586.625 575.859375 593.269531 C 576.90625 592.816406 577.914062 592.28125 578.878906 591.667969 C 580.40625 590.722656 581.851562 589.664062 583.214844 588.5 C 585.066406 586.917969 586.75 585.179688 588.265625 583.28125 C 589.15625 582.167969 589.984375 581.011719 590.75 579.8125 C 591.753906 578.230469 592.640625 576.652344 593.480469 575.070312 C 602.257812 558.53125 603.222656 541.71875 621.707031 523.460938 C 624.074219 521.113281 626.625 518.980469 629.355469 517.0625 Z M 353.378906 572.027344 C 353.363281 573.113281 353.292969 574.195312 353.171875 575.277344 C 353.050781 576.355469 352.878906 577.429688 352.652344 578.492188 C 352.425781 579.554688 352.152344 580.605469 351.824219 581.644531 C 351.496094 582.679688 351.117188 583.699219 350.691406 584.699219 C 350.265625 585.699219 349.789062 586.675781 349.269531 587.628906 C 348.746094 588.582031 348.179688 589.507812 347.566406 590.40625 C 346.957031 591.304688 346.300781 592.171875 345.605469 593.007812 C 344.910156 593.839844 344.171875 594.640625 343.398438 595.402344 C 342.625 596.167969 341.816406 596.890625 340.972656 597.574219 C 340.125 598.257812 339.25 598.902344 338.34375 599.5 C 337.4375 600.101562 336.5 600.652344 335.539062 601.160156 C 334.578125 601.667969 333.597656 602.128906 332.589844 602.542969 C 331.585938 602.953125 330.5625 603.316406 329.519531 603.628906 C 328.480469 603.941406 327.425781 604.203125 326.359375 604.414062 C 325.292969 604.625 324.21875 604.78125 323.136719 604.886719 C 322.054688 604.996094 320.96875 605.046875 319.882812 605.046875 C 318.792969 605.046875 317.710938 604.996094 316.628906 604.886719 C 315.546875 604.78125 314.472656 604.625 313.40625 604.414062 C 312.339844 604.203125 311.285156 603.941406 310.242188 603.628906 C 309.203125 603.316406 308.179688 602.953125 307.171875 602.542969 C 306.167969 602.128906 305.183594 601.667969 304.222656 601.160156 C 303.261719 600.652344 302.328125 600.101562 301.417969 599.5 C 300.511719 598.902344 299.636719 598.257812 298.792969 597.574219 C 297.945312 596.890625 297.136719 596.167969 296.363281 595.402344 C 295.589844 594.640625 294.855469 593.839844 294.15625 593.007812 C 293.460938 592.171875 292.808594 591.304688 292.195312 590.40625 C 291.582031 589.507812 291.015625 588.582031 290.492188 587.628906 C 289.972656 586.675781 289.496094 585.699219 289.070312 584.699219 C 288.644531 583.699219 288.265625 582.679688 287.941406 581.644531 C 287.613281 580.605469 287.335938 579.554688 287.109375 578.492188 C 286.882812 577.429688 286.710938 576.355469 286.589844 575.277344 C 286.46875 574.195312 286.402344 573.113281 286.386719 572.027344 C 286.386719 571.875 286.429688 571.726562 286.429688 571.570312 L 353.332031 571.570312 C 353.332031 571.726562 353.378906 571.871094 353.378906 572.027344 Z M 432.828125 240.753906 C 431.996094 234.492188 430.332031 221.332031 430.496094 217.894531 C 431.609375 193.898438 448.363281 175.183594 475.957031 176.464844 C 477.109375 176.519531 478.257812 176.617188 479.402344 176.761719 C 480.542969 176.910156 481.679688 177.097656 482.808594 177.332031 C 483.9375 177.566406 485.054688 177.847656 486.160156 178.171875 C 487.265625 178.496094 488.359375 178.863281 489.4375 179.273438 C 490.511719 179.683594 491.570312 180.136719 492.613281 180.632812 C 493.652344 181.125 494.675781 181.660156 495.671875 182.238281 C 496.671875 182.8125 497.644531 183.429688 498.59375 184.082031 C 499.542969 184.734375 500.464844 185.425781 501.363281 186.152344 C 502.257812 186.878906 503.121094 187.636719 503.957031 188.433594 C 504.789062 189.230469 505.589844 190.054688 506.359375 190.914062 C 507.128906 191.773438 507.863281 192.664062 508.558594 193.578125 C 509.257812 194.496094 509.917969 195.441406 510.542969 196.410156 C 511.164062 197.378906 511.75 198.371094 512.292969 199.390625 C 512.835938 200.40625 513.339844 201.441406 513.800781 202.496094 C 514.261719 203.554688 514.683594 204.625 515.058594 205.714844 C 515.433594 206.804688 515.769531 207.90625 516.058594 209.023438 L 473.804688 207.058594 C 473.515625 207.046875 473.230469 207.0625 472.945312 207.105469 C 472.664062 207.148438 472.386719 207.21875 472.113281 207.316406 C 471.84375 207.414062 471.585938 207.535156 471.339844 207.683594 C 471.09375 207.832031 470.863281 208.003906 470.648438 208.199219 C 470.4375 208.390625 470.246094 208.605469 470.074219 208.835938 C 469.90625 209.066406 469.757812 209.3125 469.636719 209.574219 C 469.511719 209.835938 469.417969 210.105469 469.347656 210.382812 C 469.28125 210.664062 469.238281 210.945312 469.226562 211.234375 L 468.558594 225.535156 C 468.527344 226.199219 468.605469 226.851562 468.789062 227.492188 C 468.972656 228.132812 469.253906 228.726562 469.632812 229.273438 C 470.011719 229.820312 470.464844 230.292969 471 230.691406 C 471.535156 231.089844 472.117188 231.390625 472.75 231.597656 L 514.300781 245.117188 C 511.6875 252.855469 507.910156 259.976562 502.96875 266.476562 C 502.597656 266.96875 502.15625 267.386719 501.648438 267.730469 C 501.140625 268.078125 500.589844 268.335938 499.996094 268.503906 C 499.40625 268.671875 498.800781 268.738281 498.1875 268.710938 C 497.574219 268.683594 496.980469 268.558594 496.40625 268.339844 L 436.425781 245.3125 C 435.949219 245.128906 435.503906 244.886719 435.09375 244.582031 C 434.679688 244.28125 434.316406 243.929688 434 243.527344 C 433.683594 243.125 433.425781 242.691406 433.226562 242.21875 C 433.027344 241.75 432.894531 241.261719 432.828125 240.753906 Z M 191.421875 331.261719 L 114.90625 331.261719 C 114.359375 331.261719 113.820312 331.207031 113.285156 331.09375 C 112.753906 330.976562 112.234375 330.8125 111.738281 330.589844 C 111.238281 330.367188 110.765625 330.09375 110.324219 329.773438 C 109.882812 329.453125 109.480469 329.089844 109.113281 328.683594 C 108.746094 328.28125 108.429688 327.839844 108.15625 327.367188 C 107.882812 326.894531 107.660156 326.398438 107.488281 325.878906 C 107.320312 325.359375 107.207031 324.828125 107.148438 324.285156 C 107.089844 323.742188 107.089844 323.199219 107.148438 322.65625 C 107.554688 318.597656 111.273438 315.664062 115.351562 315.664062 L 211.421875 315.664062 C 211.96875 315.664062 212.507812 315.605469 213.042969 315.492188 C 213.578125 315.378906 214.09375 315.210938 214.59375 314.988281 C 215.09375 314.765625 215.5625 314.496094 216.003906 314.175781 C 216.445312 313.855469 216.851562 313.492188 217.214844 313.085938 C 217.582031 312.679688 217.902344 312.242188 218.175781 311.769531 C 218.449219 311.296875 218.667969 310.800781 218.839844 310.28125 C 219.007812 309.761719 219.121094 309.230469 219.179688 308.6875 C 219.238281 308.144531 219.238281 307.601562 219.183594 307.058594 C 218.777344 303 215.058594 300.0625 210.976562 300.0625 L 134.007812 300.0625 C 133.496094 300.0625 132.988281 300.011719 132.488281 299.914062 C 131.984375 299.8125 131.496094 299.664062 131.023438 299.46875 C 130.550781 299.273438 130.101562 299.035156 129.675781 298.75 C 129.25 298.464844 128.855469 298.140625 128.492188 297.777344 C 128.132812 297.417969 127.808594 297.023438 127.523438 296.597656 C 127.238281 296.171875 127 295.722656 126.800781 295.25 C 126.605469 294.773438 126.457031 294.289062 126.359375 293.785156 C 126.257812 293.28125 126.207031 292.777344 126.207031 292.261719 C 126.207031 291.75 126.257812 291.242188 126.359375 290.742188 C 126.457031 290.238281 126.605469 289.75 126.800781 289.277344 C 127 288.804688 127.238281 288.355469 127.523438 287.929688 C 127.808594 287.503906 128.132812 287.109375 128.492188 286.75 C 128.855469 286.386719 129.25 286.0625 129.675781 285.777344 C 130.101562 285.492188 130.550781 285.253906 131.023438 285.058594 C 131.496094 284.859375 131.984375 284.714844 132.488281 284.613281 C 132.988281 284.511719 133.496094 284.464844 134.007812 284.464844 L 211.421875 284.464844 C 211.96875 284.464844 212.507812 284.40625 213.042969 284.292969 C 213.578125 284.179688 214.09375 284.011719 214.59375 283.789062 C 215.09375 283.566406 215.5625 283.296875 216.003906 282.976562 C 216.445312 282.65625 216.851562 282.292969 217.214844 281.886719 C 217.582031 281.480469 217.902344 281.042969 218.175781 280.570312 C 218.449219 280.097656 218.667969 279.601562 218.839844 279.082031 C 219.007812 278.5625 219.121094 278.03125 219.179688 277.488281 C 219.238281 276.945312 219.238281 276.402344 219.183594 275.859375 C 218.777344 271.800781 215.058594 268.863281 210.976562 268.863281 L 157.195312 268.863281 C 156.648438 268.863281 156.109375 268.808594 155.574219 268.695312 C 155.039062 268.578125 154.523438 268.414062 154.023438 268.191406 C 153.527344 267.96875 153.054688 267.695312 152.613281 267.375 C 152.171875 267.054688 151.769531 266.691406 151.402344 266.285156 C 151.035156 265.882812 150.71875 265.441406 150.445312 264.96875 C 150.171875 264.496094 149.949219 264 149.777344 263.480469 C 149.609375 262.960938 149.496094 262.429688 149.4375 261.886719 C 149.378906 261.34375 149.378906 260.800781 149.4375 260.257812 C 149.84375 256.199219 153.558594 253.265625 157.640625 253.265625 L 191.421875 253.265625 L 191.421875 244.304688 C 191.421875 243.796875 191.472656 243.292969 191.570312 242.796875 C 191.671875 242.300781 191.816406 241.816406 192.011719 241.347656 C 192.207031 240.878906 192.445312 240.433594 192.726562 240.011719 C 193.007812 239.589844 193.328125 239.199219 193.6875 238.839844 C 194.046875 238.480469 194.433594 238.160156 194.855469 237.878906 C 195.277344 237.597656 195.722656 237.359375 196.191406 237.164062 C 196.660156 236.972656 197.144531 236.824219 197.640625 236.726562 C 198.140625 236.628906 198.640625 236.578125 199.148438 236.578125 L 371.742188 236.578125 C 372.25 236.578125 372.75 236.628906 373.25 236.726562 C 373.746094 236.824219 374.230469 236.972656 374.699219 237.164062 C 375.167969 237.359375 375.613281 237.597656 376.035156 237.878906 C 376.457031 238.160156 376.84375 238.480469 377.203125 238.839844 C 377.5625 239.199219 377.882812 239.589844 378.164062 240.011719 C 378.445312 240.433594 378.683594 240.878906 378.878906 241.347656 C 379.074219 241.816406 379.21875 242.296875 379.320312 242.796875 C 379.417969 243.292969 379.46875 243.796875 379.46875 244.304688 L 379.46875 395.027344 C 379.46875 395.734375 379.398438 396.4375 379.261719 397.136719 C 379.121094 397.832031 378.917969 398.507812 378.644531 399.164062 C 378.371094 399.820312 378.039062 400.441406 377.644531 401.035156 C 377.25 401.625 376.800781 402.167969 376.300781 402.671875 C 375.796875 403.175781 375.253906 403.621094 374.660156 404.015625 C 374.070312 404.410156 373.449219 404.746094 372.792969 405.015625 C 372.136719 405.289062 371.460938 405.492188 370.765625 405.632812 C 370.066406 405.769531 369.363281 405.839844 368.65625 405.839844 L 199.148438 405.839844 C 198.640625 405.839844 198.140625 405.789062 197.640625 405.691406 C 197.144531 405.59375 196.660156 405.445312 196.191406 405.25 C 195.722656 405.058594 195.277344 404.820312 194.855469 404.535156 C 194.433594 404.253906 194.042969 403.933594 193.6875 403.574219 C 193.328125 403.21875 193.007812 402.828125 192.726562 402.40625 C 192.445312 401.984375 192.207031 401.539062 192.011719 401.070312 C 191.816406 400.601562 191.671875 400.117188 191.570312 399.621094 C 191.472656 399.121094 191.421875 398.621094 191.421875 398.113281 L 191.421875 346.863281 L 211.421875 346.863281 C 211.96875 346.863281 212.507812 346.804688 213.042969 346.691406 C 213.578125 346.578125 214.09375 346.410156 214.59375 346.1875 C 215.09375 345.964844 215.5625 345.695312 216.003906 345.375 C 216.445312 345.054688 216.851562 344.691406 217.214844 344.285156 C 217.582031 343.878906 217.902344 343.441406 218.175781 342.96875 C 218.449219 342.496094 218.667969 342 218.839844 341.480469 C 219.007812 340.960938 219.121094 340.429688 219.179688 339.886719 C 219.238281 339.34375 219.238281 338.800781 219.183594 338.257812 C 218.777344 334.199219 215.058594 331.261719 210.980469 331.261719 Z M 191.421875 331.261719 " fill-opacity="1" fill-rule="nonzero"/></g></svg>