<?xml version="1.0" encoding="UTF-8"?>
<svg version="1.1" xmlns="http://www.w3.org/2000/svg" width="1080" height="1920">
<path d="M0 0 C1.24784901 -0.00436032 2.49569801 -0.00872064 3.78136063 -0.0132131 C7.21597029 -0.02479199 10.65032371 -0.01796065 14.08492875 -0.00787924 C17.8325682 -0.00022099 21.58017048 -0.01006782 25.32780457 -0.01760924 C31.88648804 -0.02841338 38.44509735 -0.0281347 45.00378418 -0.02046776 C54.75694354 -0.00909766 64.5100406 -0.01493327 74.26319957 -0.02409268 C91.684581 -0.03987498 109.10592939 -0.03852667 126.52731395 -0.02985594 C141.77317703 -0.02230536 157.01902801 -0.020341 172.26489258 -0.02392387 C173.78261019 -0.02426761 173.78261019 -0.02426761 175.33098876 -0.02461828 C179.43839843 -0.02555232 183.54580808 -0.02650752 187.65321773 -0.02749758 C226.17350517 -0.03667186 264.69377158 -0.02835849 303.21405578 -0.01220688 C337.42713894 0.00202963 371.64018861 0.00075573 405.85327148 -0.01358986 C444.30370091 -0.02965833 482.75411175 -0.03602119 521.20454407 -0.02675307 C525.30441284 -0.02579093 529.40428161 -0.02485241 533.50415039 -0.02392387 C534.51362162 -0.02368664 535.52309284 -0.02344941 536.5631541 -0.02320499 C551.79837411 -0.01979447 567.03358068 -0.02377987 582.26879883 -0.03136253 C599.5942049 -0.03994257 616.91957281 -0.03779097 634.24497414 -0.0215203 C643.93799993 -0.01271732 653.63094305 -0.01212792 663.32396668 -0.02345882 C669.80244488 -0.03019597 676.28085692 -0.02598124 682.75932533 -0.01294452 C686.44784932 -0.00582359 690.13620931 -0.00333576 693.82472801 -0.01416247 C697.80630174 -0.0257298 701.7874768 -0.01391267 705.76904297 0 C707.46944418 -0.01053525 707.46944418 -0.01053525 709.20419693 -0.02128333 C728.1642278 0.1109194 744.13508319 6.18175379 757.88452148 19.37752342 C763.81502372 25.62291958 767.29840123 33.64148565 770.88452148 41.37752342 C771.26092773 42.15740623 771.63733398 42.93728905 772.02514648 43.74080467 C774.25785033 50.59114603 774.02998596 58.06076376 774.01332265 65.19725901 C774.01598517 66.62816337 774.01598517 66.62816337 774.01870147 68.08797489 C774.02343338 71.28529263 774.02107041 74.48256509 774.01874256 77.67988491 C774.02069613 80.00491487 774.02308522 82.32994449 774.02587053 84.6549736 C774.03160013 90.39463945 774.03267914 96.13429318 774.03181954 101.87396152 C774.03104423 108.79789079 774.03607052 115.7218129 774.04125063 122.64573984 C774.05075567 135.58569322 774.05546847 148.52564444 774.05755997 161.46560097 C774.05968896 174.57998948 774.0639501 187.69437467 774.07080269 200.8087616 C774.0712333 201.63693168 774.07166392 202.46510177 774.07210758 203.31836791 C774.07386594 206.69136268 774.07563559 210.06435744 774.0774206 213.4373522 C774.0990141 254.32050553 774.10989795 295.20365952 774.11889684 336.08681726 C774.12183104 349.34344676 774.12520096 362.60007611 774.12886405 375.85670543 C774.12925149 377.25964056 774.12925149 377.25964056 774.12964675 378.69091783 C774.13069298 382.47482484 774.13174141 386.25873185 774.13279257 390.04263886 C774.15075616 454.7642481 774.16613544 519.48585759 774.1735516 584.20746896 C774.17413557 589.29065192 774.17473284 594.37383488 774.17532922 599.45701784 C774.17544734 600.46535726 774.17556546 601.47369668 774.17568716 602.51259184 C774.17688454 612.72844689 774.1780933 622.94430194 774.17931969 633.16015698 C774.17956493 635.20846181 774.17980878 637.25676664 774.18005126 639.30507148 C774.18784191 705.09695076 774.21022809 770.8888122 774.24272769 836.68068369 C774.26607292 883.95646284 774.28762474 931.23223845 774.294734 978.50802326 C774.29488102 979.48023239 774.29502804 980.45244152 774.29517952 981.45411154 C774.29836431 1002.79636422 774.30041523 1024.13861686 774.30140707 1045.48086975 C774.30182181 1054.06804815 774.3023767 1062.65522655 774.30296898 1071.24240494 C774.30305998 1072.65211698 774.30305998 1072.65211698 774.30315282 1074.09030805 C774.30516881 1104.36344249 774.31940712 1134.63655587 774.33991398 1164.90968296 C774.36049542 1195.40099309 774.36838872 1225.89227888 774.35883622 1256.38359526 C774.35751778 1260.59788941 774.35633973 1264.8121836 774.35524559 1269.02647781 C774.35502574 1269.85258648 774.35480589 1270.67869514 774.35457938 1271.52983739 C774.35146625 1284.60542252 774.36178692 1297.68096107 774.37772114 1310.7565354 C774.39311412 1323.61695112 774.39421702 1336.47730249 774.38017291 1349.33772046 C774.37305183 1356.21584698 774.37214402 1363.09382771 774.38973299 1369.97193963 C774.4051234 1376.23168312 774.40202956 1382.49113743 774.38432271 1388.75087231 C774.38117822 1390.99888193 774.38470719 1393.24691361 774.39581446 1395.49489799 C774.49625415 1417.24302084 771.66407598 1436.57987222 755.74389648 1452.68221092 C742.49100968 1465.17468619 728.11081568 1469.69966419 710.25096321 1469.63199902 C708.99447765 1469.63520549 707.73799208 1469.63841197 706.4434312 1469.64171562 C702.96136109 1469.65031398 699.47939915 1469.64651821 695.99732744 1469.64065989 C692.20692656 1469.63648311 688.41654518 1469.64389521 684.62614906 1469.6498124 C677.98472658 1469.65857248 671.34333493 1469.65988719 664.70190811 1469.65630913 C654.82578557 1469.65100241 644.94969289 1469.65709711 635.07357359 1469.66539206 C616.40901242 1469.68063731 597.74446482 1469.6823366 579.07989873 1469.67986903 C564.66801915 1469.67803683 550.25614401 1469.67979445 535.84426498 1469.68409348 C533.7741923 1469.68469587 531.70411962 1469.68529707 529.63404693 1469.68589708 C526.51470228 1469.68680432 523.39535762 1469.68771299 520.27601296 1469.68862943 C491.27174711 1469.69705975 462.26748293 1469.70139409 433.26321602 1469.69722271 C432.16967097 1469.69706633 431.07612593 1469.69690996 429.94944315 1469.69674884 C424.40684171 1469.69594305 418.86424027 1469.69509728 413.32163884 1469.69423554 C412.22084771 1469.69406445 411.12005659 1469.69389337 409.98590816 1469.69371709 C407.75984121 1469.69337044 405.53377425 1469.69302191 403.3077073 1469.69267151 C368.66582149 1469.68731364 334.02396114 1469.69524626 299.38208008 1469.71370506 C260.46733298 1469.73441633 221.55260165 1469.74514948 182.63784873 1469.74112958 C178.489369 1469.74073423 174.34088926 1469.74037268 170.19240952 1469.7400322 C168.66020272 1469.7398961 168.66020272 1469.7398961 167.09704224 1469.73975725 C151.67050409 1469.73859081 136.24398184 1469.74524309 120.81744766 1469.75584412 C103.27554437 1469.76788647 85.73367616 1469.76946618 68.19177236 1469.75705395 C58.37371951 1469.75041802 48.55575049 1469.75207333 38.73770432 1469.76564246 C32.17954241 1469.77387589 25.62144341 1469.77120382 19.06328663 1469.7596672 C15.32669934 1469.75339983 11.59027584 1469.75183813 7.85369791 1469.76353053 C3.82558821 1469.77601916 -0.20212995 1469.76524157 -4.23023796 1469.75225353 C-5.38598381 1469.75956288 -6.54172966 1469.76687222 -7.73249811 1469.77440307 C-23.68352664 1469.66757134 -38.44111189 1463.84595535 -49.93969727 1452.68611717 C-66.75996558 1434.83911793 -68.57215833 1415.84332082 -68.49579525 1392.44430542 C-68.49923145 1390.11174072 -68.50398006 1387.77917764 -68.50991622 1385.44661796 C-68.5211106 1379.70768385 -68.5184238 1373.96887413 -68.50985905 1368.22993827 C-68.50032444 1361.30287726 -68.50838741 1354.37586322 -68.51690718 1347.44880484 C-68.53231852 1334.50454168 -68.53352138 1321.56031217 -68.52692795 1308.61604309 C-68.52029625 1295.50213572 -68.52018018 1282.38825239 -68.52797508 1269.2743454 C-68.52846308 1268.44542191 -68.52895108 1267.61649842 -68.52945387 1266.76245604 C-68.53146209 1263.38626167 -68.5335152 1260.01006732 -68.53562561 1256.633873 C-68.5570177 1222.37496331 -68.55908163 1188.1160714 -68.55356857 1153.8571567 C-68.55281284 1149.12457733 -68.55208522 1144.39199796 -68.55138659 1139.65941858 C-68.5512475 1138.71940045 -68.55110841 1137.77938232 -68.55096511 1136.8108788 C-68.54801223 1115.97431841 -68.55102618 1095.13776015 -68.55528288 1074.30120014 C-68.55586504 1071.44908991 -68.55643388 1068.59697968 -68.55699852 1065.74486945 C-68.55851348 1058.09925241 -68.56004039 1050.45363537 -68.56159152 1042.80801834 C-68.57234751 989.4385401 -68.57705081 936.06906384 -68.56912136 882.69958496 C-68.56897305 881.69367422 -68.56882475 880.68776347 -68.56867195 879.65137058 C-68.56701296 868.43448461 -68.56526338 857.21759866 -68.56347894 846.00071271 C-68.56331791 844.98799943 -68.56315689 843.97528615 -68.56299099 842.93188459 C-68.56168327 834.71329979 -68.56168327 834.71329979 -68.5610298 830.64541092 C-68.55063753 765.86274545 -68.55840656 701.08010714 -68.58203125 636.2974453 C-68.58797467 619.97274658 -68.59386623 603.64804785 -68.59944057 587.323349 C-68.59978434 586.31817037 -68.60012812 585.31299173 -68.6004823 584.27735314 C-68.61100969 553.29797338 -68.61660367 522.31859588 -68.61699772 491.33921432 C-68.6170105 490.36662486 -68.61702328 489.39403539 -68.61703645 488.39197351 C-68.61726474 467.04162101 -68.61625865 445.69126871 -68.6141274 424.34091632 C-68.61337264 416.70150433 -68.61269443 409.06209232 -68.61204725 401.42268032 C-68.61188456 399.5221996 -68.61171689 397.62171888 -68.61154423 395.72123816 C-68.60882312 365.43987309 -68.61737695 335.15852452 -68.63139834 304.877163 C-68.64580565 273.5325228 -68.64535634 242.18791397 -68.62802362 210.84327485 C-68.62621944 207.47668445 -68.62447925 204.11009403 -68.62278938 200.74350357 C-68.62236888 199.9172888 -68.62194838 199.09107402 -68.62151514 198.23982243 C-68.61521979 185.16263616 -68.62231769 172.08549302 -68.63499858 159.00831282 C-68.64718745 146.14647951 -68.64506821 133.28471418 -68.62777827 120.422886 C-68.61891827 113.54409608 -68.61625226 106.66544982 -68.63204759 99.78666814 C-68.64580267 93.52637761 -68.64108533 87.26638063 -68.6217624 81.0061073 C-68.61803293 78.75791467 -68.62096935 76.50969831 -68.63147548 74.26152714 C-68.72507786 52.74574232 -66.04788193 33.83011294 -50.49438477 17.59236717 C-36.27651297 4.35503826 -19.08167465 -0.11822514 0 0 Z " fill="#FEFEFE" transform="translate(187.115478515625,195.6224765777588)"/>
<path d="M0 0 C1.24784901 -0.00436032 2.49569801 -0.00872064 3.78136063 -0.0132131 C7.21597029 -0.02479199 10.65032371 -0.01796065 14.08492875 -0.00787924 C17.8325682 -0.00022099 21.58017048 -0.01006782 25.32780457 -0.01760924 C31.88648804 -0.02841338 38.44509735 -0.0281347 45.00378418 -0.02046776 C54.75694354 -0.00909766 64.5100406 -0.01493327 74.26319957 -0.02409268 C91.684581 -0.03987498 109.10592939 -0.03852667 126.52731395 -0.02985594 C141.77317703 -0.02230536 157.01902801 -0.020341 172.26489258 -0.02392387 C173.78261019 -0.02426761 173.78261019 -0.02426761 175.33098876 -0.02461828 C179.43839843 -0.02555232 183.54580808 -0.02650752 187.65321773 -0.02749758 C226.17350517 -0.03667186 264.69377158 -0.02835849 303.21405578 -0.01220688 C337.42713894 0.00202963 371.64018861 0.00075573 405.85327148 -0.01358986 C444.30370091 -0.02965833 482.75411175 -0.03602119 521.20454407 -0.02675307 C525.30441284 -0.02579093 529.40428161 -0.02485241 533.50415039 -0.02392387 C534.51362162 -0.02368664 535.52309284 -0.02344941 536.5631541 -0.02320499 C551.79837411 -0.01979447 567.03358068 -0.02377987 582.26879883 -0.03136253 C599.5942049 -0.03994257 616.91957281 -0.03779097 634.24497414 -0.0215203 C643.93799993 -0.01271732 653.63094305 -0.01212792 663.32396668 -0.02345882 C669.80244488 -0.03019597 676.28085692 -0.02598124 682.75932533 -0.01294452 C686.44784932 -0.00582359 690.13620931 -0.00333576 693.82472801 -0.01416247 C697.80630174 -0.0257298 701.7874768 -0.01391267 705.76904297 0 C707.46944418 -0.01053525 707.46944418 -0.01053525 709.20419693 -0.02128333 C728.1642278 0.1109194 744.13508319 6.18175379 757.88452148 19.37752342 C763.81502372 25.62291958 767.29840123 33.64148565 770.88452148 41.37752342 C771.26092773 42.15740623 771.63733398 42.93728905 772.02514648 43.74080467 C774.25785033 50.59114603 774.02998596 58.06076376 774.01332265 65.19725901 C774.01598517 66.62816337 774.01598517 66.62816337 774.01870147 68.08797489 C774.02343338 71.28529263 774.02107041 74.48256509 774.01874256 77.67988491 C774.02069613 80.00491487 774.02308522 82.32994449 774.02587053 84.6549736 C774.03160013 90.39463945 774.03267914 96.13429318 774.03181954 101.87396152 C774.03104423 108.79789079 774.03607052 115.7218129 774.04125063 122.64573984 C774.05075567 135.58569322 774.05546847 148.52564444 774.05755997 161.46560097 C774.05968896 174.57998948 774.0639501 187.69437467 774.07080269 200.8087616 C774.0712333 201.63693168 774.07166392 202.46510177 774.07210758 203.31836791 C774.07386594 206.69136268 774.07563559 210.06435744 774.0774206 213.4373522 C774.0990141 254.32050553 774.10989795 295.20365952 774.11889684 336.08681726 C774.12183104 349.34344676 774.12520096 362.60007611 774.12886405 375.85670543 C774.12925149 377.25964056 774.12925149 377.25964056 774.12964675 378.69091783 C774.13069298 382.47482484 774.13174141 386.25873185 774.13279257 390.04263886 C774.15075616 454.7642481 774.16613544 519.48585759 774.1735516 584.20746896 C774.17413557 589.29065192 774.17473284 594.37383488 774.17532922 599.45701784 C774.17544734 600.46535726 774.17556546 601.47369668 774.17568716 602.51259184 C774.17688454 612.72844689 774.1780933 622.94430194 774.17931969 633.16015698 C774.17956493 635.20846181 774.17980878 637.25676664 774.18005126 639.30507148 C774.18784191 705.09695076 774.21022809 770.8888122 774.24272769 836.68068369 C774.26607292 883.95646284 774.28762474 931.23223845 774.294734 978.50802326 C774.29488102 979.48023239 774.29502804 980.45244152 774.29517952 981.45411154 C774.29836431 1002.79636422 774.30041523 1024.13861686 774.30140707 1045.48086975 C774.30182181 1054.06804815 774.3023767 1062.65522655 774.30296898 1071.24240494 C774.30305998 1072.65211698 774.30305998 1072.65211698 774.30315282 1074.09030805 C774.30516881 1104.36344249 774.31940712 1134.63655587 774.33991398 1164.90968296 C774.36049542 1195.40099309 774.36838872 1225.89227888 774.35883622 1256.38359526 C774.35751778 1260.59788941 774.35633973 1264.8121836 774.35524559 1269.02647781 C774.35502574 1269.85258648 774.35480589 1270.67869514 774.35457938 1271.52983739 C774.35146625 1284.60542252 774.36178692 1297.68096107 774.37772114 1310.7565354 C774.39311412 1323.61695112 774.39421702 1336.47730249 774.38017291 1349.33772046 C774.37305183 1356.21584698 774.37214402 1363.09382771 774.38973299 1369.97193963 C774.4051234 1376.23168312 774.40202956 1382.49113743 774.38432271 1388.75087231 C774.38117822 1390.99888193 774.38470719 1393.24691361 774.39581446 1395.49489799 C774.49625415 1417.24302084 771.66407598 1436.57987222 755.74389648 1452.68221092 C742.49100968 1465.17468619 728.11081568 1469.69966419 710.25096321 1469.63199902 C708.99447765 1469.63520549 707.73799208 1469.63841197 706.4434312 1469.64171562 C702.96136109 1469.65031398 699.47939915 1469.64651821 695.99732744 1469.64065989 C692.20692656 1469.63648311 688.41654518 1469.64389521 684.62614906 1469.6498124 C677.98472658 1469.65857248 671.34333493 1469.65988719 664.70190811 1469.65630913 C654.82578557 1469.65100241 644.94969289 1469.65709711 635.07357359 1469.66539206 C616.40901242 1469.68063731 597.74446482 1469.6823366 579.07989873 1469.67986903 C564.66801915 1469.67803683 550.25614401 1469.67979445 535.84426498 1469.68409348 C533.7741923 1469.68469587 531.70411962 1469.68529707 529.63404693 1469.68589708 C526.51470228 1469.68680432 523.39535762 1469.68771299 520.27601296 1469.68862943 C491.27174711 1469.69705975 462.26748293 1469.70139409 433.26321602 1469.69722271 C432.16967097 1469.69706633 431.07612593 1469.69690996 429.94944315 1469.69674884 C424.40684171 1469.69594305 418.86424027 1469.69509728 413.32163884 1469.69423554 C412.22084771 1469.69406445 411.12005659 1469.69389337 409.98590816 1469.69371709 C407.75984121 1469.69337044 405.53377425 1469.69302191 403.3077073 1469.69267151 C368.66582149 1469.68731364 334.02396114 1469.69524626 299.38208008 1469.71370506 C260.46733298 1469.73441633 221.55260165 1469.74514948 182.63784873 1469.74112958 C178.489369 1469.74073423 174.34088926 1469.74037268 170.19240952 1469.7400322 C168.66020272 1469.7398961 168.66020272 1469.7398961 167.09704224 1469.73975725 C151.67050409 1469.73859081 136.24398184 1469.74524309 120.81744766 1469.75584412 C103.27554437 1469.76788647 85.73367616 1469.76946618 68.19177236 1469.75705395 C58.37371951 1469.75041802 48.55575049 1469.75207333 38.73770432 1469.76564246 C32.17954241 1469.77387589 25.62144341 1469.77120382 19.06328663 1469.7596672 C15.32669934 1469.75339983 11.59027584 1469.75183813 7.85369791 1469.76353053 C3.82558821 1469.77601916 -0.20212995 1469.76524157 -4.23023796 1469.75225353 C-5.38598381 1469.75956288 -6.54172966 1469.76687222 -7.73249811 1469.77440307 C-23.68352664 1469.66757134 -38.44111189 1463.84595535 -49.93969727 1452.68611717 C-66.75996558 1434.83911793 -68.57215833 1415.84332082 -68.49579525 1392.44430542 C-68.49923145 1390.11174072 -68.50398006 1387.77917764 -68.50991622 1385.44661796 C-68.5211106 1379.70768385 -68.5184238 1373.96887413 -68.50985905 1368.22993827 C-68.50032444 1361.30287726 -68.50838741 1354.37586322 -68.51690718 1347.44880484 C-68.53231852 1334.50454168 -68.53352138 1321.56031217 -68.52692795 1308.61604309 C-68.52029625 1295.50213572 -68.52018018 1282.38825239 -68.52797508 1269.2743454 C-68.52846308 1268.44542191 -68.52895108 1267.61649842 -68.52945387 1266.76245604 C-68.53146209 1263.38626167 -68.5335152 1260.01006732 -68.53562561 1256.633873 C-68.5570177 1222.37496331 -68.55908163 1188.1160714 -68.55356857 1153.8571567 C-68.55281284 1149.12457733 -68.55208522 1144.39199796 -68.55138659 1139.65941858 C-68.5512475 1138.71940045 -68.55110841 1137.77938232 -68.55096511 1136.8108788 C-68.54801223 1115.97431841 -68.55102618 1095.13776015 -68.55528288 1074.30120014 C-68.55586504 1071.44908991 -68.55643388 1068.59697968 -68.55699852 1065.74486945 C-68.55851348 1058.09925241 -68.56004039 1050.45363537 -68.56159152 1042.80801834 C-68.57234751 989.4385401 -68.57705081 936.06906384 -68.56912136 882.69958496 C-68.56897305 881.69367422 -68.56882475 880.68776347 -68.56867195 879.65137058 C-68.56701296 868.43448461 -68.56526338 857.21759866 -68.56347894 846.00071271 C-68.56331791 844.98799943 -68.56315689 843.97528615 -68.56299099 842.93188459 C-68.56168327 834.71329979 -68.56168327 834.71329979 -68.5610298 830.64541092 C-68.55063753 765.86274545 -68.55840656 701.08010714 -68.58203125 636.2974453 C-68.58797467 619.97274658 -68.59386623 603.64804785 -68.59944057 587.323349 C-68.59978434 586.31817037 -68.60012812 585.31299173 -68.6004823 584.27735314 C-68.61100969 553.29797338 -68.61660367 522.31859588 -68.61699772 491.33921432 C-68.6170105 490.36662486 -68.61702328 489.39403539 -68.61703645 488.39197351 C-68.61726474 467.04162101 -68.61625865 445.69126871 -68.6141274 424.34091632 C-68.61337264 416.70150433 -68.61269443 409.06209232 -68.61204725 401.42268032 C-68.61188456 399.5221996 -68.61171689 397.62171888 -68.61154423 395.72123816 C-68.60882312 365.43987309 -68.61737695 335.15852452 -68.63139834 304.877163 C-68.64580565 273.5325228 -68.64535634 242.18791397 -68.62802362 210.84327485 C-68.62621944 207.47668445 -68.62447925 204.11009403 -68.62278938 200.74350357 C-68.62236888 199.9172888 -68.62194838 199.09107402 -68.62151514 198.23982243 C-68.61521979 185.16263616 -68.62231769 172.08549302 -68.63499858 159.00831282 C-68.64718745 146.14647951 -68.64506821 133.28471418 -68.62777827 120.422886 C-68.61891827 113.54409608 -68.61625226 106.66544982 -68.63204759 99.78666814 C-68.64580267 93.52637761 -68.64108533 87.26638063 -68.6217624 81.0061073 C-68.61803293 78.75791467 -68.62096935 76.50969831 -68.63147548 74.26152714 C-68.72507786 52.74574232 -66.04788193 33.83011294 -50.49438477 17.59236717 C-36.27651297 4.35503826 -19.08167465 -0.11822514 0 0 Z M145.06420898 364.33064842 C127.22730375 371.43979198 109.98005153 373.89726487 90.90185547 373.7686367 C88.0850337 373.75259751 85.26965874 373.76855961 82.45288086 373.78767967 C66.66158716 373.80747106 50.57382699 372.77307636 35.63452148 367.25252342 C34.37115967 366.81118065 34.37115967 366.81118065 33.08227539 366.36092186 C25.11073188 363.54606607 17.198799 360.54307131 9.31713867 357.48641014 C-5.00871599 351.98459392 -18.89372113 349.23600703 -34.24047852 349.06502342 C-35.62855713 349.03855736 -35.62855713 349.03855736 -37.04467773 349.01155663 C-37.91624512 349.01244286 -38.7878125 349.01332909 -39.68579102 349.01424217 C-40.46712402 349.01126122 -41.24845703 349.00828026 -42.0534668 349.00520897 C-44.78912163 349.49915565 -45.47833992 350.1234511 -47.11547852 352.37752342 C-47.56992116 355.64032878 -47.56992116 355.64032878 -47.49267668 359.47420299 C-47.49700786 360.20626536 -47.50133904 360.93832774 -47.50580147 361.69257382 C-47.51674332 364.16996992 -47.50613378 366.64681802 -47.49579525 369.12421036 C-47.4992251 370.91618045 -47.50396941 372.70814843 -47.50991622 374.50011194 C-47.52251124 379.46173471 -47.51623779 384.42318718 -47.50708254 389.384811 C-47.5004098 394.76865325 -47.51102015 400.1524649 -47.51947838 405.53630078 C-47.53189119 414.98479544 -47.53303792 424.43324049 -47.52692795 433.88174057 C-47.51786627 447.93213078 -47.52584532 461.9824748 -47.53721919 476.03286145 C-47.55750115 501.8543101 -47.55893939 527.6757362 -47.55356857 553.49719063 C-47.55281287 557.15848408 -47.55208525 560.81977753 -47.55138659 564.481071 C-47.5512475 565.20826859 -47.55110841 565.93546618 -47.55096511 566.68470006 C-47.54801478 582.78939783 -47.55102372 598.89409284 -47.55528288 614.99879011 C-47.55586504 617.20192875 -47.55643389 619.4050674 -47.55699852 621.60820605 C-47.55851344 627.51394762 -47.56004034 633.4196892 -47.56159152 639.32543076 C-47.57235231 680.56712455 -47.57704612 721.80881578 -47.56912136 763.05051041 C-47.56897305 763.82829737 -47.56882475 764.60608434 -47.56867195 765.40744061 C-47.5670129 774.08087255 -47.56526333 782.75430447 -47.56347894 791.42773639 C-47.56331791 792.21083966 -47.56315689 792.99394294 -47.56299099 793.80077662 C-47.56201351 798.55118607 -47.56201351 798.55118607 -47.5610298 803.30159552 C-47.55064167 853.37639728 -47.5583966 903.45116388 -47.58203125 953.52596092 C-47.58797461 966.13900751 -47.59386616 978.75205411 -47.59944057 991.36510086 C-47.59978434 992.14172503 -47.60012812 992.91834919 -47.6004823 993.71850743 C-47.61101033 1017.65529758 -47.6166037 1041.59208479 -47.61699772 1065.52887726 C-47.6170105 1066.28042621 -47.61702328 1067.03197517 -47.61703645 1067.80629833 C-47.61726475 1084.30491706 -47.61625859 1100.80353553 -47.6141274 1117.30215412 C-47.61337263 1123.2058286 -47.61269442 1129.1095031 -47.61204725 1135.01317759 C-47.61188456 1136.48188489 -47.61171689 1137.95059218 -47.61154423 1139.41929947 C-47.60882291 1162.82295227 -47.6173781 1186.22658374 -47.63139834 1209.63023195 C-47.64580806 1233.8618348 -47.64535087 1258.09339377 -47.62802362 1282.32499568 C-47.61844427 1296.29734195 -47.61992875 1310.26958421 -47.63725831 1324.24192359 C-47.64772382 1333.57198811 -47.64368117 1342.90197316 -47.62777827 1352.23202983 C-47.61912116 1357.55027719 -47.61678364 1362.86832029 -47.63204759 1368.1865574 C-47.64581058 1373.02747839 -47.64107543 1377.86801994 -47.6217624 1382.70891875 C-47.61803528 1384.44668257 -47.62096252 1386.18447714 -47.63147548 1387.92221315 C-47.73540124 1406.37641155 -43.24650863 1420.45942175 -30.38500977 1434.13142967 C-17.75402224 1446.63197671 -2.6049201 1451.70408085 14.84373951 1451.6292057 C16.02732541 1451.63211259 17.21091131 1451.63501947 18.43036345 1451.63801444 C21.70800352 1451.64404443 24.98549403 1451.64115485 28.26312826 1451.63445853 C31.83191936 1451.62937561 35.40069261 1451.63590875 38.96948117 1451.6409452 C45.22184306 1451.64816434 51.47417041 1451.64795203 57.72653389 1451.64285088 C67.0241791 1451.63528577 76.32179518 1451.63915351 85.6194402 1451.64526749 C102.22589019 1451.65580104 118.8323248 1451.65488527 135.43877627 1451.64910967 C149.97319022 1451.64407951 164.50759853 1451.6427647 179.04201317 1451.64515495 C180.00593672 1451.64530772 180.96986027 1451.64546049 181.96299363 1451.64561789 C185.87585919 1451.64624057 189.78872476 1451.64687737 193.70159031 1451.64753742 C230.41427839 1451.6536566 267.12695666 1451.64810688 303.83964322 1451.63734363 C336.45413589 1451.62785456 369.06861294 1451.62869964 401.68310547 1451.63826561 C438.32391369 1451.64897659 474.96471324 1451.65322038 511.60552281 1451.64704108 C515.51220937 1451.64639965 519.41889594 1451.64577397 523.3255825 1451.64515495 C524.28751081 1451.6449968 525.24943912 1451.64483864 526.24051676 1451.6446757 C540.76344353 1451.64240124 555.28636403 1451.64506045 569.80928993 1451.65011406 C586.32568936 1451.65583268 602.842071 1451.65440278 619.35846821 1451.64355257 C628.60085149 1451.63768111 637.84319624 1451.63729504 647.08557852 1451.64484492 C653.26129211 1451.64933306 659.43697483 1451.64653243 665.61268386 1451.63783538 C669.12998867 1451.63308351 672.64721697 1451.63143928 676.16451935 1451.63864735 C679.95901301 1451.64472844 683.75329728 1451.63849073 687.54778004 1451.6292057 C688.63191202 1451.63388804 689.716044 1451.63857037 690.83302847 1451.64339459 C700.941604 1451.59395493 710.82419831 1450.68664122 719.88452148 1445.94002342 C720.55604248 1445.59439354 721.22756348 1445.24876366 721.91943359 1444.89266014 C736.59964437 1436.94298678 746.50722621 1424.08722489 751.88452148 1408.37752342 C752.81341573 1404.54040977 753.01126711 1400.97149762 753.01513201 1397.02792954 C753.01881272 1395.73591894 753.02249343 1394.44390833 753.02628568 1393.11274588 C753.02534002 1391.67790447 753.02430367 1390.24306311 753.02318668 1388.80822182 C753.02563412 1387.27827003 753.028518 1385.74831888 753.03179947 1384.21836865 C753.03958714 1379.99277123 753.04114215 1375.76719053 753.04172688 1371.54158681 C753.04345312 1366.95024709 753.05093752 1362.35891626 753.05770344 1357.7675817 C753.06877686 1349.7099382 753.07613869 1341.65229785 753.08110237 1333.59464836 C753.08850385 1321.60581569 753.10158922 1309.61699398 753.11584812 1297.62816775 C753.13970834 1277.4276005 753.15889789 1257.22703129 753.17544746 1237.02645683 C753.19192432 1216.92917942 753.21041527 1196.83190553 753.23158073 1176.73463249 C753.23355714 1174.85597166 753.23355714 1174.85597166 753.23557348 1172.93935808 C753.24227783 1166.57551846 753.24901625 1160.21167889 753.25576674 1153.84783933 C753.30361817 1108.66991195 753.34674529 1063.49198131 753.38720703 1018.31404686 C753.42561726 975.43241304 753.4662542 932.55078232 753.51014056 889.66915373 C753.51220647 887.65053564 753.51427131 885.63191754 753.51633591 883.61329945 C753.52730608 872.8885592 753.53828907 862.16381896 753.5492954 851.43907875 C753.60002379 802.00849119 753.64895985 752.57790184 753.69725845 703.14731185 C753.7009182 699.40289877 753.70458315 695.6584857 753.70824876 691.91407263 C753.74307694 656.31627883 753.77691158 620.71848423 753.80859375 585.12068748 C753.80958072 584.01288397 753.81056768 582.90508046 753.81158456 581.76370714 C753.88075161 503.96830028 753.91007658 426.17295802 753.88452148 348.37752342 C752.13713161 348.37041321 750.38973329 348.36536098 748.64233398 348.361166 C747.66925293 348.35812965 746.69617188 348.35509331 745.69360352 348.35196495 C722.99455088 348.55849259 700.99555234 356.59668465 680.38696289 365.45052147 C673.85190092 368.23077183 667.35211353 369.75173789 660.38452148 371.06502342 C659.32104492 371.2770742 658.25756836 371.48912498 657.16186523 371.70760155 C646.36792571 373.80679101 635.99862512 374.54108168 625.00952148 374.50252342 C623.36790039 374.5083242 623.36790039 374.5083242 621.69311523 374.51424217 C602.11161223 374.4910688 602.11161223 374.4910688 597.88452148 372.37752342 C595.78492244 372.08482873 593.68119796 371.82147951 591.57592773 371.57283592 C584.31803332 370.56836627 577.72171255 368.66741529 570.82202148 366.25252342 C569.65155273 365.85581444 568.48108398 365.45910545 567.27514648 365.05037498 C561.06361979 362.92172475 554.95363602 360.63317264 548.88061523 358.13973045 C529.83806672 350.41766413 510.61299956 347.92942336 490.19702148 347.94002342 C489.45024139 347.93962059 488.7034613 347.93921776 487.93405151 347.93880272 C474.53487387 347.98165467 460.99122775 348.83804945 448.00952148 352.37752342 C447.24470459 352.5811953 446.4798877 352.78486717 445.69189453 352.99471092 C436.22017117 355.65527588 427.1388054 359.41986217 417.98999023 363.00642967 C404.08068505 368.44198089 390.70991787 371.60549771 375.88452148 373.37752342 C374.81717773 373.51029686 373.74983398 373.6430703 372.65014648 373.77986717 C357.70609606 375.32070853 342.69374334 374.73651451 327.88452148 372.37752342 C326.92545898 372.23314842 325.96639648 372.08877342 324.97827148 371.94002342 C322.25986808 371.49228639 319.57750351 370.95866059 316.88452148 370.37752342 C315.40532227 370.06621483 315.40532227 370.06621483 313.89624023 369.74861717 C303.4823082 367.26224586 293.60802891 363.35221381 283.66625977 359.43831444 C237.63076585 341.46829161 190.10694224 346.30123785 145.06420898 364.33064842 Z " fill="#22B6BF" transform="translate(187.115478515625,195.6224765777588)"/>
<path d="M0 0 C0.35068942 21.35728502 0.61505042 42.71409428 0.77718258 64.07367611 C0.85447207 73.9919106 0.95979819 83.90835453 1.1315918 93.82543945 C1.28129109 102.47122716 1.37791477 111.11571826 1.41132742 119.76276594 C1.43085657 124.34051136 1.47659269 128.91454833 1.58595085 133.49110222 C1.68816997 137.80403825 1.71910814 142.11176039 1.69661522 146.42579269 C1.70072573 148.00422018 1.73036294 149.58283058 1.78808212 151.16020775 C1.95892698 156.07212873 1.84321464 160.3587327 0 165 C-3.29653387 168.304825 -7.30387885 170.3280377 -11.48564816 172.30669498 C-14.44339079 173.73181138 -15.87880993 174.65952887 -18 177 C-18.66 177 -19.32 177 -20 177 C-20.40605469 177.85464844 -20.40605469 177.85464844 -20.8203125 178.7265625 C-22.03229131 181.06223028 -23.42801936 183.17828846 -24.875 185.375 C-31.1509565 195.87545022 -32.85961265 208.52346688 -35.33813477 220.35620117 C-35.53979248 221.31631104 -35.7414502 222.2764209 -35.94921875 223.265625 C-36.21738403 224.56161621 -36.21738403 224.56161621 -36.4909668 225.88378906 C-37 228 -37 228 -38 230 C-40.6875 231.0625 -40.6875 231.0625 -44 231 C-45.484375 229.5703125 -45.484375 229.5703125 -46.9375 227.6875 C-49.93741242 223.81390175 -51.99807324 222.65599039 -57 222 C-58.89888851 222.20229636 -60.79486032 222.43330238 -62.6875 222.6875 C-65.54296875 223.03125 -65.54296875 223.03125 -68 223 C-70.5 220.6875 -70.5 220.6875 -72 218 C-75.7373856 215.5084096 -77.57331583 215.54206715 -82 216 C-84.81459847 217.79110811 -86.57086976 219.31439251 -88.33984375 222.140625 C-90 224 -90 224 -92.26953125 224.25 C-93.10871094 224.1675 -93.94789063 224.085 -94.8125 224 C-98.60766583 223.85040952 -99.94739985 223.97463921 -103.5 225.6875 C-106.16837466 227.76877671 -106.16837466 227.76877671 -106.8125 230.625 C-107.204375 231.40875 -107.59625 232.1925 -108 233 C-110.20322215 233.67861052 -112.40231057 234.02677718 -114.671875 234.42578125 C-118.59704147 235.39390117 -120.3087708 236.97236715 -123 240 C-124.05421393 243.68974877 -124.20462984 246.07916572 -123.375 249.8125 C-121.6171425 252.60909148 -120.11239617 253.06628115 -117 254 C-116.34 254.33 -115.68 254.66 -115 255 C-113.41778831 255.10244536 -111.8340999 255.18279576 -110.25 255.25 C-104.84057684 255.7247839 -102.86664044 257.3132033 -99 261 C-94.98799975 263.04808404 -91.53603014 263.29792824 -87.0625 263.3125 C-85.87785156 263.32925781 -84.69320313 263.34601563 -83.47265625 263.36328125 C-79.69249726 262.96783155 -77.3323889 261.74962336 -74 260 C-71.25 260.75 -71.25 260.75 -69 262 C-64.58985277 264.20507361 -58.79999315 263.43689258 -54 263 C-50.75375081 261.75913301 -48.59057732 260.18115465 -47 257 C-46.34 257 -45.68 257 -45 257 C-46.82957471 275.6491877 -55.88966088 294.71254302 -69.03125 307.99609375 C-71.05179528 309.84707366 -71.05179528 309.84707366 -72 312 C-73.74316406 312.89794922 -73.74316406 312.89794922 -76.015625 313.8046875 C-76.84771484 314.13887695 -77.67980469 314.47306641 -78.53710938 314.81738281 C-79.43236328 315.16639648 -80.32761719 315.51541016 -81.25 315.875 C-82.16587891 316.23432617 -83.08175781 316.59365234 -84.02539062 316.96386719 C-104.76914047 325.01138959 -125.62809374 329.20305932 -147.875 329.125 C-148.96941406 329.12886719 -150.06382812 329.13273437 -151.19140625 329.13671875 C-170.77290925 329.11354537 -170.77290925 329.11354537 -175 327 C-177.09959905 326.70730531 -179.20332353 326.44395609 -181.30859375 326.1953125 C-188.56648816 325.19084285 -195.16280894 323.28989187 -202.0625 320.875 C-203.23296875 320.47829102 -204.4034375 320.08158203 -205.609375 319.67285156 C-211.8209017 317.54420133 -217.93088547 315.25564922 -224.00390625 312.76220703 C-243.04645476 305.0401407 -262.27152192 302.55189994 -282.6875 302.5625 C-283.43428009 302.56209717 -284.18106018 302.56169434 -284.95046997 302.5612793 C-298.35032617 302.60413342 -311.89235058 303.46197075 -324.875 307 C-325.63474121 307.20149658 -326.39448242 307.40299316 -327.17724609 307.6105957 C-335.63944223 309.98152023 -343.78754003 313.23450153 -351.92919922 316.52148438 C-357.93025461 318.92670959 -363.64138554 320.80692664 -370 322 C-364.41161628 293.95395001 -350.90672337 270.33916629 -327.015625 253.953125 C-315.9964382 246.80409161 -304.57149218 242.47429383 -291.9375 239.25 C-290.77045532 238.95186401 -290.77045532 238.95186401 -289.57983398 238.64770508 C-277.78345883 235.80668689 -266.06185685 234.75437202 -253.95556641 234.59408569 C-218.61758818 234.0732551 -181.96622721 232.08105181 -155.1875 206.5625 C-150.86977866 202.06584607 -147.35239498 197.24449612 -144 192 C-143.45988281 191.20078125 -142.91976562 190.4015625 -142.36328125 189.578125 C-131.7530322 172.85894469 -125.95409044 152.74947023 -120 134 C-118.7934375 133.95101562 -117.586875 133.90203125 -116.34375 133.8515625 C-114.72914694 133.77646468 -113.11456461 133.70091997 -111.5 133.625 C-110.31277344 133.57859375 -110.31277344 133.57859375 -109.1015625 133.53125 C-105.11441729 133.33516089 -101.45266929 132.94974564 -97.59375 131.8984375 C-94 131 -94 131 -91 132 C-78.82520193 132.98600632 -66.30904467 133.40885456 -55.76171875 126.54296875 C-53.70764923 125.06136181 -53.70764923 125.06136181 -53.4375 122.125 C-54.2137758 117.81235664 -55.47881115 116.60567975 -59 114 C-64.81315103 111.59696501 -70.76855129 110.57698599 -77 110 C-76.6596875 108.6696875 -76.6596875 108.6696875 -76.3125 107.3125 C-75.79301864 104.07378554 -75.79301864 104.07378554 -76.8125 101.375 C-81.14667824 96.66932076 -86.48543336 95.16416342 -92.76953125 94.75390625 C-96.18955522 94.75044118 -99.58492369 94.82284907 -103 95 C-105.97782846 82.1593002 -94.28773901 65.8430537 -87.85839844 55.09082031 C-71.57282492 28.98406385 -44.81612688 9.7111939 -14.8125 2.75 C-2.28485071 0 -2.28485071 0 0 0 Z " fill="#1D958D" transform="translate(960,242)"/>
<path d="M0 0 C3.27007267 2.49599749 4.99017204 4.8523209 6.1171875 8.796875 C6.7771875 8.466875 7.4371875 8.136875 8.1171875 7.796875 C16.03528167 7.03262857 23.22386543 7.5777984 30.1171875 11.796875 C32.8046875 14.734375 32.8046875 14.734375 34.1171875 17.796875 C33.69921875 20.48828125 33.69921875 20.48828125 33.1171875 22.796875 C34.04660156 22.96703125 34.97601562 23.1371875 35.93359375 23.3125 C48.62111327 25.7997301 48.62111327 25.7997301 54.1171875 29.796875 C56.44762308 33.29252836 56.70481994 34.6834479 56.1171875 38.796875 C52.12372725 43.47886288 46.00338863 45.60230421 40.1171875 46.796875 C32.15701357 47.3774143 23.31876298 47.9266464 15.48242188 46.22460938 C12.26382276 45.64255058 10.20801737 46.76535708 7.1171875 47.796875 C4.15556879 48.11322649 1.21851038 48.12179705 -1.7578125 48.109375 C-2.52222656 48.12548828 -3.28664063 48.14160156 -4.07421875 48.15820312 C-9.67112818 48.16295432 -13.71600564 46.91312705 -18.8828125 44.796875 C-21.42232794 44.88799438 -21.42232794 44.88799438 -23.8828125 45.796875 C-34.77554039 48.93121574 -48.40644923 50.13483609 -58.87890625 45.08984375 C-61.64490007 43.30515768 -63.97052601 41.15379585 -66.3828125 38.92578125 C-67.87877508 37.54788536 -67.87877508 37.54788536 -70.1953125 37.921875 C-71.0821875 38.210625 -71.9690625 38.499375 -72.8828125 38.796875 C-78.02379207 39.30751102 -81.76419363 39.39613511 -86.3828125 36.921875 C-90.83769972 33.13522086 -90.83769972 33.13522086 -91.2578125 29.984375 C-90.79195455 26.02458241 -89.72014034 24.55751831 -86.8828125 21.796875 C-82.62232127 19.31158845 -78.68516746 19.56450299 -73.8828125 19.796875 C-72.8928125 20.126875 -71.9028125 20.456875 -70.8828125 20.796875 C-71.0065625 19.4975 -71.0065625 19.4975 -71.1328125 18.171875 C-70.81358077 13.86224666 -69.66807804 12.08206 -66.8828125 8.796875 C-62.25318669 5.34734989 -58.87146753 4.20977573 -53.10546875 4.45703125 C-49.66633229 4.98287461 -46.97399051 6.21840112 -43.8828125 7.796875 C-43.2640625 7.00023437 -43.2640625 7.00023437 -42.6328125 6.1875 C-31.86766159 -6.98058638 -14.44299839 -9.2291359 0 0 Z " fill="#A6DCE5" transform="translate(850.8828125,328.203125)"/>
<path d="M0 0 C4.39290571 0.70769797 7.19892393 2.53095518 10.30078125 5.6328125 C12.16489316 8.60158332 12.66596091 10.85536887 12.98828125 14.3203125 C14.47328125 14.1965625 14.47328125 14.1965625 15.98828125 14.0703125 C21.8534817 14.08220946 26.29049565 16.78816452 30.55078125 20.6328125 C32.46981479 24.22057086 31.90133627 26.43982866 30.98828125 30.3203125 C31.87515625 30.5265625 32.76203125 30.7328125 33.67578125 30.9453125 C38.06865126 32.76876798 39.43995354 34.30476581 41.98828125 38.3203125 C42.11328125 41.4453125 42.11328125 41.4453125 40.98828125 44.3203125 C36.29361614 49.29950277 30.64537532 51.26825767 23.97265625 51.57421875 C22.47805479 51.60504204 20.9831769 51.62441058 19.48828125 51.6328125 C18.4204541 51.64103027 18.4204541 51.64103027 17.33105469 51.64941406 C13.58045175 51.59940602 10.31821075 51.21483128 6.70703125 50.17578125 C2.48722071 49.20504752 2.51985038 49.54057636 -1.01171875 51.3203125 C-5.27080148 51.77360903 -9.54348378 51.69061614 -13.82421875 51.6953125 C-14.98759766 51.71980469 -16.15097656 51.74429688 -17.34960938 51.76953125 C-24.21052039 51.79296066 -28.38601571 51.29047392 -34.01171875 47.3203125 C-36.13225055 47.08946856 -36.13225055 47.08946856 -37.57421875 48.8203125 C-41.33547456 51.13493146 -44.72933749 51.32628787 -49.01171875 50.3203125 C-52.09459418 48.36357834 -54.67751348 46.13153519 -57.01171875 43.3203125 C-57.01171875 42.6603125 -57.01171875 42.0003125 -57.01171875 41.3203125 C-57.52476562 41.47886719 -58.0378125 41.63742187 -58.56640625 41.80078125 C-67.64107126 43.72878516 -78.02693567 43.31080193 -86.01171875 38.3203125 C-88.94359485 35.888188 -90.73885102 33.5633766 -91.57421875 29.7578125 C-90.77948924 26.31398462 -89.55110858 24.79621758 -87.01171875 22.3203125 C-79.68986155 17.74988389 -72.55778141 16.58252292 -64.01171875 17.3203125 C-60.59980362 18.11874706 -57.31011243 19.1413122 -54.01171875 20.3203125 C-53.22796875 19.5159375 -52.44421875 18.7115625 -51.63671875 17.8828125 C-47.91270816 14.24746883 -46.31973103 14.28338734 -41.26171875 14.1953125 C-36.83323711 13.93430544 -36.83323711 13.93430544 -33.09765625 11.8046875 C-32.13134086 10.57483155 -31.19535284 9.32047181 -30.29296875 8.04296875 C-28.27786816 5.33364144 -26.16691283 4.39307849 -23.01171875 3.3203125 C-19.50978546 2.9606178 -16.19352916 2.91512036 -12.82421875 4.0703125 C-11.92703125 4.1940625 -11.92703125 4.1940625 -11.01171875 4.3203125 C-10.26921875 3.6809375 -9.52671875 3.0415625 -8.76171875 2.3828125 C-5.69988091 0.08643412 -3.79897873 -0.21463157 0 0 Z " fill="#96DBEB" transform="translate(418.01171875,293.6796875)"/>
<path d="M0 0 C4.6961041 0.73504238 7.43921172 3.4792576 10.55859375 6.8515625 C12.13568375 9.18799213 12.67046483 10.66149468 13.24609375 13.3515625 C13.82617188 13.44953125 14.40625 13.5475 15.00390625 13.6484375 C21.23987139 14.8421206 25.4759179 16.76010767 30.18359375 21.1640625 C31.75840815 24.40632744 30.97329614 26.91387845 30.24609375 30.3515625 C31.13296875 30.5784375 32.01984375 30.8053125 32.93359375 31.0390625 C36.83628492 32.58541183 38.76112837 33.96297335 41.24609375 37.3515625 C41.39279049 41.53241949 41.0277758 43.49881845 38.18359375 46.6015625 C28.27561887 52.50418583 17.81156713 52.78964997 6.62109375 50.2265625 C5.88632812 50.01773438 5.1515625 49.80890625 4.39453125 49.59375 C2.16837685 49.16494437 2.16837685 49.16494437 -0.03125 50.31542969 C-4.89296981 52.16560355 -9.98263231 51.72063361 -15.12890625 51.7265625 C-16.24007812 51.75105469 -17.35125 51.77554688 -18.49609375 51.80078125 C-25.25979114 51.82493731 -29.16044933 51.13919749 -34.75390625 47.3515625 C-37.09054774 47.89374018 -37.09054774 47.89374018 -38.75390625 49.3515625 C-42.30890277 51.12906076 -45.89280041 51.12255986 -49.75390625 50.3515625 C-52.84438706 48.40664706 -55.4200088 46.16241447 -57.75390625 43.3515625 C-57.75390625 42.6915625 -57.75390625 42.0315625 -57.75390625 41.3515625 C-59.23890625 41.8465625 -59.23890625 41.8465625 -60.75390625 42.3515625 C-69.87464099 42.98307762 -78.70634714 43.33648778 -86.75390625 38.3515625 C-89.94075812 35.54409776 -90.61100103 34.06608862 -91.44140625 29.9140625 C-90.60203811 25.56460941 -89.20842061 24.32022415 -85.87109375 21.61328125 C-80.45559789 18.38596545 -75.37849442 18.03697985 -69.25390625 18.1015625 C-68.15369141 18.08996094 -68.15369141 18.08996094 -67.03125 18.078125 C-63.4154817 18.09106156 -60.87234884 18.30912288 -57.41796875 19.546875 C-56.53882813 19.81242187 -55.6596875 20.07796875 -54.75390625 20.3515625 C-52.95678434 19.28909942 -52.95678434 19.28909942 -51.62890625 17.4765625 C-49.21645253 15.06950577 -48.2434177 14.38372488 -44.78125 14.15625 C-43.72035156 14.22070312 -42.65945313 14.28515625 -41.56640625 14.3515625 C-38.50074096 14.58149917 -38.50074096 14.58149917 -35.75390625 14.3515625 C-33.25390625 11.68489583 -33.25390625 11.68489583 -31.75390625 8.3515625 C-25.45096704 3.59220024 -21.32112371 3.28677267 -13.6640625 3.609375 C-8.35346739 3.13890617 -5.86134603 -0.21173992 0 0 Z " fill="#50C0C8" transform="translate(632.75390625,381.6484375)"/>
<path d="M0 0 C3.22618733 2.0790985 4.8669302 3.80039529 7 7 C7.680625 6.835 8.36125 6.67 9.0625 6.5 C15.54190833 5.39712199 20.17648188 5.82353557 26 9 C27.00708057 10.03608027 27.98622294 11.09995893 28.9375 12.1875 C30.35221359 13.80919208 30.35221359 13.80919208 32 15 C35.51876003 15.18602613 35.51876003 15.18602613 37.84765625 14.96484375 C43.12083966 15.0509756 47.72630231 17.82182964 51.5 21.3125 C53.41707905 24.74726662 54 27.05214766 54 31 C52.11096968 35.64386621 50.02717576 38.96762378 45.4140625 41.35546875 C39.8214819 42.84863347 33.74074175 42.26598031 28 42 C27.773125 42.598125 27.54625 43.19625 27.3125 43.8125 C25.58725397 46.68791005 24.04153465 47.60738722 21 49 C17.84375 49.3984375 17.84375 49.3984375 14.5 49.375 C13.3965625 49.38273437 12.293125 49.39046875 11.15625 49.3984375 C7.70546871 48.96281907 5.89821256 47.83520034 3 46 C0.34754398 46.66096786 0.34754398 46.66096786 -2 48 C-8.14803572 50.04934524 -16.5893917 50.32470004 -22.6953125 47.953125 C-25.4760832 46.20873009 -27.68226692 44.31773308 -30 42 C-33.23669147 41.44362466 -36.47327135 41.10776795 -39.73828125 40.7578125 C-44.08523709 39.74786108 -46.69541118 37.71968526 -49.375 34.1875 C-50.37705848 30.68029533 -50.02637781 28.5017596 -49 25 C-46.44685796 21.60591206 -43.69611552 19.40857299 -39.53515625 18.40625 C-37.34283859 18.15688685 -35.20544794 18.01000203 -33 18 C-32.9071875 16.88625 -32.9071875 16.88625 -32.8125 15.75 C-31.74919061 12.15110668 -30.04777533 11.08140754 -27 9 C-24.47367879 7.73683939 -23.04627457 8.12926678 -20.25 8.375 C-17.09835011 8.4342073 -15.57770154 8.45675996 -13.078125 6.48046875 C-11.48688741 4.59938795 -11.48688741 4.59938795 -10.15625 2.62890625 C-7.59738583 -0.97598009 -4.06709845 -0.34466936 0 0 Z " fill="#C8E9F7" transform="translate(270,457)"/>
<path d="M0 0 C3.22618733 2.0790985 4.8669302 3.80039529 7 7 C7.70125 6.89300781 8.4025 6.78601563 9.125 6.67578125 C15.39158181 5.88394415 20.49892194 5.56791148 26 9 C27.05484824 10.02873813 28.07653814 11.0925634 29.0625 12.1875 C31.40338238 14.75491938 31.60843824 14.97783613 35.3125 15.1875 C37.1378125 15.0946875 37.1378125 15.0946875 39 15 C43.66291528 15.89084956 47.7199328 17.20449384 51 20.75 C53.29183161 24.47422637 54.07676634 26.62431876 54 31 C51.97971807 36.18246235 49.67950394 39.0728452 44.5703125 41.35546875 C39.15451128 42.7135344 33.53608591 42.27991446 28 42 C27.773125 42.598125 27.54625 43.19625 27.3125 43.8125 C25.58725397 46.68791005 24.04153465 47.60738722 21 49 C17.84375 49.3984375 17.84375 49.3984375 14.5 49.375 C13.3965625 49.38273437 12.293125 49.39046875 11.15625 49.3984375 C7.70546871 48.96281907 5.89821256 47.83520034 3 46 C0.34754398 46.66096786 0.34754398 46.66096786 -2 48 C-8.65407788 50.21802596 -17.31655417 50.30165636 -23.6875 47.1875 C-27 45 -27 45 -28.41015625 43.390625 C-30.54418142 41.52400839 -31.94824969 41.63645925 -34.75 41.5625 C-40.90120725 41.10452691 -44.85656788 39.47834338 -49 34.6875 C-50.41392531 30.88757572 -50.22295406 28.87268784 -49 25 C-46.436413 21.60969411 -43.70159212 19.40989224 -39.53515625 18.40625 C-37.34283859 18.15688685 -35.20544794 18.01000203 -33 18 C-32.9071875 16.88625 -32.9071875 16.88625 -32.8125 15.75 C-31.74919061 12.15110668 -30.04777533 11.08140754 -27 9 C-24.47367879 7.73683939 -23.04627457 8.12926678 -20.25 8.375 C-17.09835011 8.4342073 -15.57770154 8.45675996 -13.078125 6.48046875 C-11.48688741 4.59938795 -11.48688741 4.59938795 -10.15625 2.62890625 C-7.59738583 -0.97598009 -4.06709845 -0.34466936 0 0 Z " fill="#BDE0E9" transform="translate(885,457)"/>
<path d="M0 0 C0.99 0.495 0.99 0.495 2 1 C2 1.66 2 2.32 2 3 C2.66 2.67 3.32 2.34 4 2 C11.91809417 1.23575357 19.10667793 1.7809234 26 6 C28.6875 8.9375 28.6875 8.9375 30 12 C29.58203125 14.69140625 29.58203125 14.69140625 29 17 C29.92941406 17.17015625 30.85882812 17.3403125 31.81640625 17.515625 C44.50392577 20.0028551 44.50392577 20.0028551 50 24 C52.33043558 27.49565336 52.58763244 28.8865729 52 33 C48.00653975 37.68198788 41.88620113 39.80542921 36 41 C28.03982607 41.5805393 19.20157548 42.1297714 11.36523438 40.42773438 C8.14663526 39.84567558 6.09082987 40.96848208 3 42 C0.03838129 42.31635149 -2.89867712 42.32492205 -5.875 42.3125 C-6.63941406 42.32861328 -7.40382813 42.34472656 -8.19140625 42.36132812 C-13.78831568 42.36607932 -17.83319314 41.11625205 -23 39 C-25.53951544 39.09111938 -25.53951544 39.09111938 -28 40 C-38.89272789 43.13434074 -52.52363673 44.33796109 -62.99609375 39.29296875 C-65.76208757 37.50828268 -68.08771351 35.35692085 -70.5 33.12890625 C-71.99596258 31.75101036 -71.99596258 31.75101036 -74.3125 32.125 C-75.199375 32.41375 -76.08625 32.7025 -77 33 C-82.10850489 33.50741042 -85.88123194 33.57936203 -90.5 31.1875 C-93 29 -93 29 -95 26 C-94.0821875 26.03480469 -93.164375 26.06960938 -92.21875 26.10546875 C-82.36405187 26.3228518 -75.5792196 25.86866776 -68 19 C-68.64544429 22.48539917 -70.10134397 25.02819057 -72 28 C-58.49143883 34.60418546 -42.17934181 34.72083718 -27.796875 31 C-23.86383057 29.59377182 -21.1555621 27.71525111 -18 25 C-19.12451727 27.9719385 -20.22293791 30.33440687 -22 33 C-18.7 33.66 -15.4 34.32 -12 35 C-11.59007812 33.42347656 -11.18015625 31.84695313 -10.7578125 30.22265625 C-9.106596 24.16981268 -7.05709576 18.31636972 -4.875 12.4375 C-4.51535156 11.45458984 -4.15570312 10.47167969 -3.78515625 9.45898438 C-1.16554383 2.33108766 -1.16554383 2.33108766 0 0 Z " fill="#A2D3DA" transform="translate(855,334)"/>
<path d="M0 0 C0.495 0.61875 0.99 1.2375 1.5 1.875 C7.44245926 6.92609037 15.72249364 6.30993932 23.125 6.25 C24.08792969 6.25773437 25.05085938 6.26546875 26.04296875 6.2734375 C31.09121681 6.25954961 35.27491248 6.00458258 40 4 C39.34 4.99 38.68 5.98 38 7 C37.34 7 36.68 7 36 7 C37.74814209 9.16909938 38.73620393 9.93829574 41.48828125 10.58203125 C47.40170492 11.13664373 47.40170492 11.13664373 53.125 9.875 C56.99082136 8.69844567 59.06628022 9.847429 62.7421875 11.26171875 C65.96103563 12.31424868 68.64105414 12.2144008 72 12 C70.68 10.68 69.36 9.36 68 8 C68.825 8.165 69.65 8.33 70.5 8.5 C75.66598624 9.23799803 80.96505105 9.67831632 86 8 C85.34 8.99 84.68 9.98 84 11 C85.43739513 11.02712066 86.87493863 11.04645067 88.3125 11.0625 C89.11300781 11.07410156 89.91351563 11.08570313 90.73828125 11.09765625 C93.16861334 11.09657855 93.16861334 11.09657855 96 10 C97.69921875 10.77734375 97.69921875 10.77734375 99.6875 11.9375 C107.27573047 15.47784896 116.57612545 15.43651657 124.4765625 12.87109375 C127.07384262 11.69325742 129.5484491 10.45430985 132 9 C132.98030181 12.51274815 133.34534132 14.30931735 131.6875 17.625 C123.67603811 24.70489655 114.2443655 24.72145788 104.07714844 24.23730469 C101.86595756 23.98468627 99.86374445 23.46571798 97.7265625 22.8515625 C93.50180792 21.88615736 93.53354825 22.21926328 90 24 C85.74091727 24.45329653 81.46823497 24.37030364 77.1875 24.375 C76.02412109 24.39949219 74.86074219 24.42398437 73.66210938 24.44921875 C66.80119836 24.47264816 62.62570304 23.97016142 57 20 C54.8794682 19.76915606 54.8794682 19.76915606 53.4375 21.5 C49.67624419 23.81461896 46.28238126 24.00597537 42 23 C38.91712457 21.04326584 36.33420527 18.81122269 34 16 C34 15.34 34 14.68 34 14 C33.48695313 14.15855469 32.97390625 14.31710937 32.4453125 14.48046875 C23.37064749 16.40847266 12.98478308 15.99048943 5 11 C1.93141019 8.45446527 0.13171222 6.21175242 -0.3125 2.125 C-0.209375 1.42375 -0.10625 0.7225 0 0 Z " fill="#7ACAE1" transform="translate(327,321)"/>
<path d="M0 0 C0.33 0.99 0.66 1.98 1 3 C-0.9375 6.1875 -0.9375 6.1875 -3 9 C10.50856117 15.60418546 26.82065819 15.72083718 41.203125 12 C45.13616943 10.59377182 47.8444379 8.71525111 51 6 C49.87548273 8.9719385 48.77706209 11.33440687 47 14 C56.75449162 17.1636189 67.22344119 17.19234573 77 14 C75.35 12.02 73.7 10.04 72 8 C72.886875 8.33 73.77375 8.66 74.6875 9 C80.31309323 10.65048396 86.19845814 10.15703422 92 10 C90.36587557 11.70840281 89.13093906 12.93453047 87 14 C96.77384515 17.25794838 110.04240967 15.96286199 119.296875 11.875 C119.85890625 11.58625 120.4209375 11.2975 121 11 C120.62595486 13.51144596 120.33223398 14.70666171 118.3984375 16.4140625 C117.73070312 16.81367188 117.06296875 17.21328125 116.375 17.625 C115.72273437 18.02976562 115.07046875 18.43453125 114.3984375 18.8515625 C107.5431834 22.13404573 101.36538246 22.28225184 93.875 22.1875 C92.89917969 22.18685547 91.92335938 22.18621094 90.91796875 22.18554688 C83.65622479 22.14096591 83.65622479 22.14096591 80.35644531 21.43212891 C77.14244446 20.84274002 75.08745169 21.9696095 72 23 C69.03838129 23.31635149 66.10132288 23.32492205 63.125 23.3125 C62.36058594 23.32861328 61.59617187 23.34472656 60.80859375 23.36132812 C55.21168432 23.36607932 51.16680686 22.11625205 46 20 C43.46048456 20.09111938 43.46048456 20.09111938 41 21 C30.10727211 24.13434074 16.47636327 25.33796109 6.00390625 20.29296875 C3.23791243 18.50828268 0.91228649 16.35692085 -1.5 14.12890625 C-2.99596258 12.75101036 -2.99596258 12.75101036 -5.3125 13.125 C-6.199375 13.41375 -7.08625 13.7025 -8 14 C-13.10850489 14.50741042 -16.88123194 14.57936203 -21.5 12.1875 C-24 10 -24 10 -26 7 C-24.62328125 7.05220703 -24.62328125 7.05220703 -23.21875 7.10546875 C-11.46834355 7.42551571 -11.46834355 7.42551571 -1.5 1.8125 C-1.005 1.214375 -0.51 0.61625 0 0 Z " fill="#85C4D4" transform="translate(786,353)"/>
<path d="M0 0 C0.515625 0.763125 1.03125 1.52625 1.5625 2.3125 C5.18842694 6.31031689 8.48380327 7.80397901 13.7578125 8.21484375 C18.00856633 8.2658528 21.89825964 8.19113772 26 7 C26 9 26 9 24.5 10.625 C24.005 11.07875 23.51 11.5325 23 12 C28.88564013 16.66792149 34.68601696 16.72574316 42 16 C44.75229642 14.9495402 46.59513954 13.74898942 49 12 C46.525 9.525 46.525 9.525 44 7 C44.96421875 7.01160156 45.9284375 7.02320313 46.921875 7.03515625 C48.81679688 7.04869141 48.81679688 7.04869141 50.75 7.0625 C52.62945312 7.07990234 52.62945312 7.07990234 54.546875 7.09765625 C57.28536501 7.02021027 59.41880293 6.82780815 62 6 C62 6.66 62 7.32 62 8 C57.61538462 11 57.61538462 11 55 11 C57.30780698 14.18318204 58.63306253 15.74863308 62.5703125 16.47265625 C68.67082493 16.66381672 72.36549953 16.00821662 77 12 C76.835 11.401875 76.67 10.80375 76.5 10.1875 C76 8 76 8 76 5 C76.49628906 5.28875 76.99257813 5.5775 77.50390625 5.875 C82.18655329 8.43401774 85.54490686 9.69428458 91 9 C95.67567119 7.41502671 98.75958225 5.72047964 102 2 C102.66 1.34 103.32 0.68 104 0 C103.75331325 4.19367478 103.44696258 6.4537124 100.75 9.75 C95.4927097 14.05141934 92.00398446 15.44189511 85.1875 15.1875 C84.14819336 15.16719727 84.14819336 15.16719727 83.08789062 15.14648438 C81.39158735 15.11138845 79.69568864 15.05758943 78 15 C77.773125 15.598125 77.54625 16.19625 77.3125 16.8125 C75.58725397 19.68791005 74.04153465 20.60738722 71 22 C67.84375 22.3984375 67.84375 22.3984375 64.5 22.375 C63.3965625 22.38273437 62.293125 22.39046875 61.15625 22.3984375 C57.70546871 21.96281907 55.89821256 20.83520034 53 19 C50.34754398 19.66096786 50.34754398 19.66096786 48 21 C41.85196428 23.04934524 33.4106083 23.32470004 27.3046875 20.953125 C24.5239168 19.20873009 22.31773308 17.31773308 20 15 C16.76330853 14.44362466 13.52672865 14.10776795 10.26171875 13.7578125 C5.9024309 12.74499592 3.19468423 10.76358148 0.6875 7.0625 C-0.12808842 4.61573474 -0.14235449 2.5623809 0 0 Z " fill="#A1D2EA" transform="translate(220,484)"/>
<path d="M0 0 C0.515625 0.763125 1.03125 1.52625 1.5625 2.3125 C5.18842694 6.31031689 8.48380327 7.80397901 13.7578125 8.21484375 C18.00856633 8.2658528 21.89825964 8.19113772 26 7 C26 9 26 9 24.5 10.625 C24.005 11.07875 23.51 11.5325 23 12 C27.90596418 16.48545297 32.32970551 16.58533989 38.8515625 16.40625 C43.14239543 15.85259414 45.55737493 14.56195354 49 12 C46.525 9.525 46.525 9.525 44 7 C44.96421875 7.01160156 45.9284375 7.02320313 46.921875 7.03515625 C48.81679688 7.04869141 48.81679688 7.04869141 50.75 7.0625 C52.62945313 7.07990234 52.62945313 7.07990234 54.546875 7.09765625 C57.28536501 7.02021027 59.41880293 6.82780815 62 6 C62 6.66 62 7.32 62 8 C57.61538462 11 57.61538462 11 55 11 C57.30780698 14.18318204 58.63306253 15.74863308 62.5703125 16.47265625 C68.67082493 16.66381672 72.36549953 16.00821662 77 12 C76.835 11.401875 76.67 10.80375 76.5 10.1875 C76 8 76 8 76 5 C77.4540625 5.99 77.4540625 5.99 78.9375 7 C83.30455254 9.46527159 87.08102591 9.83673271 92 9 C97.35675801 7.23018772 100.83006843 4.75489735 104 0 C103.75582562 4.15096454 103.43455006 6.45370849 100.8125 9.75 C95.47411657 14.02070674 91.47051537 15.381241 84.625 15.1875 C83.37976563 15.16042969 82.13453125 15.13335937 80.8515625 15.10546875 C79.91054688 15.07066406 78.96953125 15.03585937 78 15 C77.773125 15.598125 77.54625 16.19625 77.3125 16.8125 C75.58725397 19.68791005 74.04153465 20.60738722 71 22 C67.84375 22.3984375 67.84375 22.3984375 64.5 22.375 C63.3965625 22.38273437 62.293125 22.39046875 61.15625 22.3984375 C57.70546871 21.96281907 55.89821256 20.83520034 53 19 C50.34754398 19.66096786 50.34754398 19.66096786 48 21 C41.34592212 23.21802596 32.68344583 23.30165636 26.3125 20.1875 C23 18 23 18 21.58984375 16.390625 C19.45581858 14.52400839 18.05175031 14.63645925 15.25 14.5625 C10.07319725 14.17707381 7.19133234 13.07934621 3 10 C0.31000081 6.61580747 -0.36805901 4.29402173 0 0 Z " fill="#99CADD" transform="translate(835,484)"/>
<path d="M0 0 C4.39290571 0.70769797 7.19892393 2.53095518 10.30078125 5.6328125 C12.16489316 8.60158332 12.66596091 10.85536887 12.98828125 14.3203125 C12.55 13.959375 12.11171875 13.5984375 11.66015625 13.2265625 C5.72159471 8.88127357 0.22815045 8.30136795 -7.01171875 9.3203125 C-8.00171875 9.9803125 -8.99171875 10.6403125 -10.01171875 11.3203125 C-12.39453125 11.41015625 -12.39453125 11.41015625 -15.13671875 11.2578125 C-20.53271283 11.17929936 -25.23392423 11.65839841 -30.01171875 14.3203125 C-31.39034298 15.8272688 -31.39034298 15.8272688 -32.51171875 17.5078125 C-35.01171875 20.3203125 -35.01171875 20.3203125 -37.03125 20.6015625 C-38.57539295 20.53842889 -40.11870312 20.45068402 -41.66015625 20.33984375 C-45.587212 20.30722701 -48.46165806 21.70098657 -52.01171875 23.3203125 C-52.67171875 23.9803125 -53.33171875 24.6403125 -54.01171875 25.3203125 C-55.76827049 25.10952629 -57.52383363 24.88728065 -59.2734375 24.625 C-68.74485074 23.5711195 -78.18453428 23.40388353 -87.01171875 27.3203125 C-88.00171875 27.6503125 -88.99171875 27.9803125 -90.01171875 28.3203125 C-89.06168333 24.90018499 -88.14796984 23.43385507 -85.38671875 21.1328125 C-76.7569946 16.49833101 -67.69295425 16.04684401 -58.38671875 18.8203125 C-56.9237158 19.30647963 -55.46343105 19.80140257 -54.01171875 20.3203125 C-53.22796875 19.5159375 -52.44421875 18.7115625 -51.63671875 17.8828125 C-47.91270816 14.24746883 -46.31973103 14.28338734 -41.26171875 14.1953125 C-36.83323711 13.93430544 -36.83323711 13.93430544 -33.09765625 11.8046875 C-32.13134086 10.57483155 -31.19535284 9.32047181 -30.29296875 8.04296875 C-28.27786816 5.33364144 -26.16691283 4.39307849 -23.01171875 3.3203125 C-19.50978546 2.9606178 -16.19352916 2.91512036 -12.82421875 4.0703125 C-11.92703125 4.1940625 -11.92703125 4.1940625 -11.01171875 4.3203125 C-10.26921875 3.6809375 -9.52671875 3.0415625 -8.76171875 2.3828125 C-5.69988091 0.08643412 -3.79897873 -0.21463157 0 0 Z " fill="#A2E2EB" transform="translate(418.01171875,293.6796875)"/>
<path d="M0 0 C1.39966014 1.14785213 2.73279776 2.37617847 4.046875 3.62109375 C3.716875 4.94109375 3.386875 6.26109375 3.046875 7.62109375 C2.45519531 7.21117187 1.86351562 6.80125 1.25390625 6.37890625 C0.46371094 5.84007812 -0.32648438 5.30125 -1.140625 4.74609375 C-1.91792969 4.21242188 -2.69523438 3.67875 -3.49609375 3.12890625 C-10.8349575 -1.37475259 -18.41205187 -1.29092244 -26.77734375 0.0859375 C-32.55493719 1.58121053 -37.03130208 4.06420291 -40.953125 8.62109375 C-42.127832 10.72410715 -42.127832 10.72410715 -42.953125 12.62109375 C-44.953125 11.62109375 -46.953125 10.62109375 -48.953125 9.62109375 C-54.87586507 9.06716842 -59.96227132 9.05619827 -64.953125 12.62109375 C-68.15465604 16.51484772 -69.47614095 19.61276121 -69.953125 24.62109375 C-70.67757812 24.58628906 -71.40203125 24.55148437 -72.1484375 24.515625 C-79.31950544 24.3148351 -83.86799289 24.7795247 -89.328125 29.80859375 C-89.864375 30.40671875 -90.400625 31.00484375 -90.953125 31.62109375 C-90.58577806 25.25374681 -90.58577806 25.25374681 -87.578125 22.24609375 C-84.2724417 20.19971837 -81.77603322 19.48161304 -77.953125 19.49609375 C-77.2725 19.49351562 -76.591875 19.4909375 -75.890625 19.48828125 C-73.953125 19.62109375 -73.953125 19.62109375 -70.953125 20.62109375 C-71.076875 19.32171875 -71.076875 19.32171875 -71.203125 17.99609375 C-70.88389327 13.68646541 -69.73839054 11.90627875 -66.953125 8.62109375 C-62.32349919 5.17156864 -58.94178003 4.03399448 -53.17578125 4.28125 C-49.73664479 4.80709336 -47.04430301 6.04261987 -43.953125 7.62109375 C-43.334375 6.82445312 -43.334375 6.82445312 -42.703125 6.01171875 C-32.15339226 -6.89286505 -14.03315799 -9.90740954 0 0 Z " fill="#B3E3E4" transform="translate(850.953125,328.37890625)"/>
<path d="M0 0 C1.00708057 1.03608027 1.98622294 2.09995893 2.9375 3.1875 C4.35221359 4.80919208 4.35221359 4.80919208 6 6 C9.51841921 6.18852511 9.51841921 6.18852511 11.84375 5.95703125 C16.54540602 6.05072367 21.35083154 8.46784571 24.76171875 11.63671875 C25.17035156 12.08660156 25.57898438 12.53648437 26 13 C25.67 13.66 25.34 14.32 25 15 C23.9171875 14.2884375 23.9171875 14.2884375 22.8125 13.5625 C17.20815895 10.44897719 10.74552451 10.2508951 4.5 11.5 C4.005 11.665 3.51 11.83 3 12 C3 11.34 3 10.68 3 10 C3.66 10 4.32 10 5 10 C4.40574111 7.51299713 4.40574111 7.51299713 3 5 C-3.19431372 1.99464654 -9.59728351 1.45284214 -16.16015625 3.359375 C-16.76730469 3.57078125 -17.37445313 3.7821875 -18 4 C-18.99 4.33 -19.98 4.66 -21 5 C-19.66520468 -0.58187135 -19.66520468 -0.58187135 -16.8125 -2.375 C-10.40874394 -3.7980569 -5.76852004 -3.14646547 0 0 Z " fill="#D6F1F6" transform="translate(296,466)"/>
<path d="M0 0 C4.12326112 0.63981638 5.70659182 1.64409182 8.625 4.5625 C9.615 6.0475 9.615 6.0475 10.625 7.5625 C11.32625 7.45550781 12.0275 7.34851563 12.75 7.23828125 C19.38163061 6.40031706 23.63271016 6.51379113 29.625 9.5625 C32.125 11.75 32.125 11.75 33.625 13.5625 C33.295 14.2225 32.965 14.8825 32.625 15.5625 C31.84125 15.088125 31.0575 14.61375 30.25 14.125 C24.13520785 11.48931373 18.33327123 10.63063789 12 13 C10.88625 13.515625 9.7725 14.03125 8.625 14.5625 C8.7075 13.82 8.79 13.0775 8.875 12.3125 C8.81204628 9.52140213 8.81204628 9.52140213 7.3125 7.25 C3.03025166 4.56114639 -1.45019437 5.25682241 -6.375 5.5625 C-4.75351101 1.74723178 -4.20644268 0.70107378 0 0 Z " fill="#CBE6E6" transform="translate(881.375,456.4375)"/>
<path d="M0 0 C0.33 0.99 0.66 1.98 1 3 C-0.26220093 5.04563599 -1.60287726 7.04402816 -3 9 C-3.5259375 10.1446875 -3.5259375 10.1446875 -4.0625 11.3125 C-5 13 -5 13 -8 14 C-13.08217995 14.53358516 -16.90501673 14.56704491 -21.5 12.1875 C-24 10 -24 10 -26 7 C-24.62328125 7.05220703 -24.62328125 7.05220703 -23.21875 7.10546875 C-11.46834355 7.42551571 -11.46834355 7.42551571 -1.5 1.8125 C-1.005 1.214375 -0.51 0.61625 0 0 Z " fill="#88CADC" transform="translate(786,353)"/>
<path d="M0 0 C0.66 0.33 1.32 0.66 2 1 C2 1.66 2 2.32 2 3 C2.66 2.67 3.32 2.34 4 2 C11.90691038 1.23683302 19.12139879 1.76901133 26 6 C29.23796711 9.70053384 30 11.0594584 30 16 C29.34 16 28.68 16 28 16 C27.566875 15.236875 27.13375 14.47375 26.6875 13.6875 C24.50885608 10.21780784 22.12605081 8.73445392 18.28125 7.40625 C13.98226631 6.64067756 9.55717878 7.21618752 5.21484375 7.453125 C2 7 2 7 0.00390625 4.609375 C-0.32738281 3.74828125 -0.65867187 2.8871875 -1 2 C-0.67 1.34 -0.34 0.68 0 0 Z " fill="#AED9D7" transform="translate(855,334)"/>
<path d="M0 0 C3.82145549 1.31477729 6.7911181 2.71041985 9.5625 5.75 C10.375 8.5 10.375 8.5 10.5625 10.75 C8.031686 9.51491866 5.66906506 8.21056758 3.25 6.75 C-4.37508872 2.90155598 -14.04786216 2.59511438 -22.4375 2.75 C-16.55836219 -3.39637134 -7.757317 -2.14638546 0 0 Z " fill="#B1DAD8" transform="translate(896.4375,353.25)"/>
<path d="M0 0 C5.97182835 -0.49765236 9.98069349 0.69515324 15 4 C17.0625 6.0625 17.0625 6.0625 18 8 C17.67 8.99 17.34 9.98 17 11 C16.1028125 10.3503125 16.1028125 10.3503125 15.1875 9.6875 C10.67796317 7.30009815 5.93443702 6.2184862 1 5 C0.67 3.35 0.34 1.7 0 0 Z " fill="#A4E2EA" transform="translate(431,308)"/>
<path d="M0 0 C6.85472995 -0.43753595 13.219206 0.62615146 18.5625 5.1875 C19.036875 5.785625 19.51125 6.38375 20 7 C19.67 7.66 19.34 8.32 19 9 C17.88625 8.2884375 17.88625 8.2884375 16.75 7.5625 C12.32916637 5.05066271 8.81149637 4.88248374 3.75 4.9375 C2.67234375 4.94652344 1.5946875 4.95554687 0.484375 4.96484375 C-0.74539063 4.98224609 -0.74539063 4.98224609 -2 5 C-1.34 3.35 -0.68 1.7 0 0 Z " fill="#CCEAEA" transform="translate(917,472)"/>
<path d="M0 0 C0.886875 -0.01417969 1.77375 -0.02835937 2.6875 -0.04296875 C5 0.1875 5 0.1875 7 2.1875 C6.67 2.8475 6.34 3.5075 6 4.1875 C6.66 4.1875 7.32 4.1875 8 4.1875 C7.67 4.8475 7.34 5.5075 7 6.1875 C6.01 5.8575 5.02 5.5275 4 5.1875 C-0.74598472 4.8853212 -5.37675552 4.99440465 -10 6.1875 C-7.10634546 1.05783968 -5.86378131 0.04261469 0 0 Z " fill="#D0E9E8" transform="translate(865,464.8125)"/>
<path d="M0 0 C0.886875 -0.01417969 1.77375 -0.02835937 2.6875 -0.04296875 C5 0.1875 5 0.1875 7 2.1875 C6.67 2.8475 6.34 3.5075 6 4.1875 C6.66 4.1875 7.32 4.1875 8 4.1875 C7.67 4.8475 7.34 5.5075 7 6.1875 C6.34 5.8575 5.68 5.5275 5 5.1875 C-0.04375319 4.88398211 -5.09260374 4.878861 -10 6.1875 C-7.10634546 1.05783968 -5.86378131 0.04261469 0 0 Z " fill="#DDF3F7" transform="translate(250,464.8125)"/>
<path d="M0 0 C0.99580078 0.24556641 0.99580078 0.24556641 2.01171875 0.49609375 C5.62883337 1.10603857 9.15860708 1.10795513 12.8125 1.0625 C13.50537109 1.05798828 14.19824219 1.05347656 14.91210938 1.04882812 C16.60811068 1.03713156 18.30406703 1.01919924 20 1 C15.19304642 5.96718536 15.19304642 5.96718536 12.01171875 6.0546875 C7.51880702 5.70733634 5.50743974 5.42459244 1.9375 2.4375 C1.298125 1.633125 0.65875 0.82875 0 0 Z " fill="#8ECCDC" transform="translate(805,350)"/>
<path d="M0 0 C4.16589919 -0.5502131 6.28992475 -0.44765614 9.875 1.8125 C12 4 12 4 13 7 C12.01 7.495 12.01 7.495 11 8 C10.5978125 7.51144531 10.195625 7.02289063 9.78125 6.51953125 C7.53908992 4.60681136 6.40762199 4.62450152 3.5 4.6875 C2.33984375 4.69330078 2.33984375 4.69330078 1.15625 4.69921875 C-1.29324946 4.88174539 -1.29324946 4.88174539 -4 7 C-2.79618552 4.50638429 -1.54571278 2.31856917 0 0 Z " fill="#D4F0F6" transform="translate(263,457)"/>
<path d="M0 0 C-0.33 1.32 -0.66 2.64 -1 4 C-1.59167969 4.12117188 -2.18335938 4.24234375 -2.79296875 4.3671875 C-7.03803585 5.26744643 -11.02439661 6.20456621 -15 8 C-13.60415208 4.62670085 -12.07634389 2.95767338 -9 1 C-5.8035914 -0.06546953 -3.34252724 -0.07427838 0 0 Z " fill="#CAE6E5" transform="translate(852,475)"/>
<path d="M0 0 C-0.33 1.32 -0.66 2.64 -1 4 C-1.59167969 4.12117188 -2.18335938 4.24234375 -2.79296875 4.3671875 C-7.03803585 5.26744643 -11.02439661 6.20456621 -15 8 C-13.60415208 4.62670085 -12.07634389 2.95767338 -9 1 C-5.8035914 -0.06546953 -3.34252724 -0.07427838 0 0 Z " fill="#D6F1F6" transform="translate(237,475)"/>
<path d="M0 0 C3.30560271 0.72813471 5.37810213 2.34076295 8.00390625 4.44140625 C7.01390625 4.93640625 7.01390625 4.93640625 6.00390625 5.44140625 C5.01390625 5.11140625 4.02390625 4.78140625 3.00390625 4.44140625 C-1.74207847 4.13922745 -6.37284927 4.2483109 -10.99609375 5.44140625 C-7.69141383 1.31055635 -5.4343041 -0.31966495 0 0 Z " fill="#DDF3F8" transform="translate(261.99609375,475.55859375)"/>
<path d="M0 0 C2.5625 1.5625 2.5625 1.5625 4 3 C3.67 3.66 3.34 4.32 3 5 C1.865625 4.67 0.73125 4.34 -0.4375 4 C-4.99795849 2.84152933 -9.32161006 2.80506709 -14 3 C-9.53871477 -1.66407092 -6.12869614 -1.27363668 0 0 Z " fill="#B7E4E5" transform="translate(845,337)"/>
<path d="M0 0 C3.4375 2 3.4375 2 6 4 C5.01 4.495 5.01 4.495 4 5 C3.01 4.67 2.02 4.34 1 4 C-3.74598472 3.6978212 -8.37675552 3.80690465 -13 5 C-9.48637333 -0.18678222 -6.13691138 -0.52007724 0 0 Z " fill="#CFE8E9" transform="translate(879,476)"/>
<path d="M0 0 C0.99 0.33 1.98 0.66 3 1 C5.39490986 1.06970052 7.79167691 1.08448003 10.1875 1.0625 C11.45980469 1.05347656 12.73210937 1.04445313 14.04296875 1.03515625 C15.01878906 1.02355469 15.99460937 1.01195312 17 1 C13.4921875 4.9453125 13.4921875 4.9453125 9.0625 5.4375 C5.37729043 5.25151746 2.91280795 4.36665646 0 2 C0 1.34 0 0.68 0 0 Z " fill="#7ECBE2" transform="translate(405,312)"/>
<path d="M0 0 C0.66 0.33 1.32 0.66 2 1 C-2.29 5.29 -6.58 9.58 -11 14 C-11 10.09572976 -9.78171026 9.2747714 -7.1875 6.4375 C-6.47980469 5.65246094 -5.77210938 4.86742187 -5.04296875 4.05859375 C-3 2 -3 2 0 0 Z " fill="#17BCD3" transform="translate(142,209)"/>
<path d="M0 0 C0.66 0.33 1.32 0.66 2 1 C-1.75 6.875 -1.75 6.875 -4 8 C-3.50168276 4.31245243 -2.89932357 2.39509338 0 0 Z " fill="#B8DDDF" transform="translate(856,467)"/>
</svg>
