<svg xmlns="http://www.w3.org/2000/svg" xmlns:xlink="http://www.w3.org/1999/xlink" width="1080" zoomAndPan="magnify" viewBox="0 0 810 809.999993" height="1080" preserveAspectRatio="xMidYMid meet" version="1.0"><defs><filter x="0%" y="0%" width="100%" height="100%" id="1a283c54ce"><feColorMatrix values="0 0 0 0 1 0 0 0 0 1 0 0 0 0 1 0 0 0 1 0" color-interpolation-filters="sRGB"/></filter><mask id="970316e10f"><g filter="url(#1a283c54ce)"><rect x="-81" width="972" fill="#000000" y="-80.999999" height="971.999992" fill-opacity="0.68"/></g></mask><clipPath id="7e9f5a3eae"><rect x="0" width="650" y="0" height="258"/></clipPath></defs><g mask="url(#970316e10f)"><g transform="matrix(1, 0, 0, 1, 80, 276)"><g clip-path="url(#7e9f5a3eae)"><path fill="#e3f2ff" d="M 532.28125 138.160156 C 556.417969 97.179688 487.003906 59.3125 424.734375 78.457031 C 389.359375 0.523438 248.195312 1.8125 214.890625 80.105469 C 172.542969 39.183594 100.667969 69.347656 101.503906 129.066406 C 64.855469 115.707031 19.527344 133.761719 19.527344 162.925781 C 19.527344 197.027344 79.601562 213.898438 114.578125 190.191406 C 140.121094 240.046875 246.773438 257.050781 311.0625 220.308594 C 347.976562 244.371094 412.910156 246.699219 455.109375 226.015625 C 527.792969 248.929688 631.796875 226.535156 631.796875 186.542969 C 631.796875 161.433594 588.222656 140.769531 532.28125 138.160156 " fill-opacity="1" fill-rule="nonzero"/><path fill="#ffffff" d="M 533.765625 135.398438 C 533.335938 101.972656 475.644531 76.464844 423.136719 92.878906 C 388.332031 14.957031 249.457031 16.238281 216.6875 94.542969 C 175.019531 53.609375 104.308594 83.773438 105.140625 143.496094 C 68.125 129.792969 22.539062 149.234375 24.527344 179.011719 C 2.34375 145.976562 54.285156 111.867188 101.507812 129.066406 C 100.679688 69.34375 172.542969 39.183594 214.902344 80.109375 C 248.191406 1.808594 389.363281 0.523438 424.746094 78.453125 C 485.609375 59.746094 553.308594 95.519531 533.765625 135.398438 " fill-opacity="1" fill-rule="nonzero"/><path fill="#ffffff" d="M 626.839844 201.128906 C 626.839844 177.6875 592.644531 163.777344 569.511719 158.199219 C 556.429688 155.054688 542.496094 153.230469 528.945312 152.585938 C 531.316406 148.746094 533.183594 143.476562 533.660156 138.230469 C 601.964844 141.792969 647.640625 171.671875 626.839844 201.128906 " fill-opacity="1" fill-rule="nonzero"/><path fill="#b6d5f0" d="M 631.753906 187.726562 C 629.609375 226.804688 527.59375 248.84375 455.109375 226.019531 C 412.808594 246.734375 347.921875 244.316406 311.0625 220.300781 C 246.738281 257.054688 140.097656 240.03125 114.585938 190.199219 C 84.261719 210.761719 33.183594 201.199219 21.65625 173.441406 C 45.382812 180.921875 78.199219 179.835938 99.015625 170.914062 C 126.402344 204.679688 240.972656 216.238281 309.976562 191.316406 C 349.984375 221.847656 419.804688 222.015625 464.660156 195.191406 C 516.210938 221.707031 591.203125 215.742188 631.753906 187.726562 " fill-opacity="1" fill-rule="nonzero"/><path fill="#b6d5f0" d="M 342.265625 163.734375 C 334.6875 203.492188 295.402344 221.527344 260.3125 201.617188 C 292.28125 204.46875 323.75 189.921875 342.265625 163.734375 " fill-opacity="1" fill-rule="nonzero"/><path fill="#b6d5f0" d="M 134.097656 140.71875 C 126.519531 180.476562 87.234375 198.515625 52.144531 178.601562 C 84.113281 181.453125 115.585938 166.902344 134.097656 140.71875 " fill-opacity="1" fill-rule="nonzero"/><path fill="#b6d5f0" d="M 514.449219 181.503906 C 487.863281 212.050781 444.828125 207.882812 424.539062 173.039062 C 450.730469 191.574219 485.25 194.828125 514.449219 181.503906 " fill-opacity="1" fill-rule="nonzero"/><path fill="#b6d5f0" d="M 293.394531 134.6875 C 266.800781 165.230469 223.765625 161.066406 203.484375 126.222656 C 229.667969 144.757812 264.195312 148.007812 293.394531 134.6875 " fill-opacity="1" fill-rule="nonzero"/><path fill="#ffffff" d="M 307.019531 95.199219 C 333.609375 64.65625 376.648438 68.820312 396.929688 103.660156 C 370.746094 85.128906 336.21875 81.878906 307.019531 95.199219 " fill-opacity="1" fill-rule="nonzero"/><path fill="#ffffff" d="M 569.511719 158.199219 C 538.742188 150.796875 512.710938 147.578125 484.90625 162.167969 C 507.722656 132.789062 546.140625 131.828125 569.511719 158.199219 " fill-opacity="1" fill-rule="nonzero"/></g></g></g></svg>