<svg xmlns="http://www.w3.org/2000/svg" xmlns:xlink="http://www.w3.org/1999/xlink" width="1080" zoomAndPan="magnify" viewBox="0 0 810 809.999993" height="1080" preserveAspectRatio="xMidYMid meet" version="1.0"><defs><filter x="0%" y="0%" width="100%" height="100%" id="cbe6443210"><feColorMatrix values="0 0 0 0 1 0 0 0 0 1 0 0 0 0 1 0 0 0 1 0" color-interpolation-filters="sRGB"/></filter><mask id="5d989cfb9d"><g filter="url(#cbe6443210)"><rect x="-81" width="972" fill="#000000" y="-80.999999" height="971.999992" fill-opacity="0.81"/></g></mask><clipPath id="6b9f9422c8"><rect x="0" width="650" y="0" height="333"/></clipPath></defs><g mask="url(#5d989cfb9d)"><g transform="matrix(1, 0, 0, 1, 80, 239)"><g clip-path="url(#6b9f9422c8)"><path fill="#e3f2ff" d="M 500.683594 114.082031 C 482.175781 63.210938 408.398438 40.980469 353.257812 69.199219 C 327.632812 0.542969 251.007812 3.25 228.339844 73.589844 C 180.585938 50.804688 121.5 77.355469 113.109375 126.4375 C 57.160156 126.632812 12.808594 158.6875 12.90625 197.222656 C 13.019531 240.386719 69.84375 272.515625 130.402344 263.597656 C 158.777344 318.9375 272.429688 331.078125 326.75 284.085938 C 368.300781 330.933594 468.777344 318.824219 486.003906 264.449219 C 551.769531 285.574219 635.941406 254.742188 635.941406 191.152344 C 635.941406 132.722656 564.539062 101.378906 500.683594 114.082031 " fill-opacity="1" fill-rule="nonzero"/><path fill="#e3f2ff" d="M 500.683594 114.082031 C 482.175781 63.210938 408.398438 40.980469 353.257812 69.199219 C 327.632812 0.542969 251.007812 3.25 228.339844 73.589844 C 180.585938 50.804688 121.5 77.355469 113.109375 126.4375 C 57.160156 126.632812 12.808594 158.6875 12.90625 197.222656 C 13.019531 240.386719 69.84375 272.515625 130.402344 263.597656 C 158.777344 318.9375 272.429688 331.078125 326.75 284.085938 C 368.300781 330.933594 468.777344 318.824219 486.003906 264.449219 C 551.769531 285.574219 635.941406 254.742188 635.941406 191.152344 C 635.941406 132.722656 564.539062 101.378906 500.683594 114.082031 " fill-opacity="1" fill-rule="nonzero"/><path fill="#ffffff" d="M 112.628906 126.449219 C 109.269531 132.710938 106.863281 139.539062 105.59375 146.894531 C 66.019531 147.011719 32.058594 162.265625 14.53125 184.394531 C 22.960938 151.933594 63.261719 126.777344 112.628906 126.449219 " fill-opacity="1" fill-rule="nonzero"/><path fill="#ffffff" d="M 633.132812 171.804688 C 608.621094 139.589844 555.675781 124.789062 506.949219 134.324219 C 487.78125 82.570312 411.390625 59.96875 354.289062 88.675781 C 327.738281 18.835938 248.386719 21.597656 224.917969 93.121094 C 183.253906 73.601562 133.210938 89.71875 113.351562 125.160156 C 122.546875 76.875 181.015625 50.996094 228.351562 73.578125 C 251.019531 3.238281 327.640625 0.535156 353.265625 69.207031 C 408.40625 40.992188 482.164062 63.222656 500.6875 114.082031 C 557.089844 102.878906 619.359375 126.003906 633.132812 171.804688 " fill-opacity="1" fill-rule="nonzero"/><path fill="#e3f2ff" d="M 113.351562 125.160156 C 113.25 125.585938 113.175781 126.003906 113.101562 126.449219 L 112.628906 126.449219 C 112.851562 126.003906 113.101562 125.585938 113.351562 125.160156 " fill-opacity="1" fill-rule="nonzero"/><path fill="#b6d5f0" d="M 485.992188 264.4375 C 468.863281 318.675781 368.425781 331.058594 326.738281 284.085938 C 272.351562 331.152344 158.695312 318.84375 130.402344 263.589844 C 63.300781 273.535156 0.949219 232.808594 14.832031 183.328125 C 25.269531 219.6875 76.722656 244.226562 130.402344 236.277344 C 145.171875 265.109375 187.230469 285.894531 236.824219 285.894531 C 273.644531 285.894531 306.832031 253.488281 327.265625 235.804688 C 342.804688 253.308594 369.578125 285.894531 400.675781 285.894531 C 442.316406 285.894531 477.167969 265.058594 485.992188 237.117188 C 546.679688 256.621094 623.433594 231.898438 634.578125 177.492188 C 648.925781 247.585938 558.535156 287.75 485.992188 264.4375 " fill-opacity="1" fill-rule="nonzero"/><path fill="#b6d5f0" d="M 579.796875 235.964844 C 537.3125 272.074219 479.605469 257.546875 459.191406 205.941406 C 491.003906 236.5625 537.316406 248.09375 579.796875 235.964844 " fill-opacity="1" fill-rule="nonzero"/><path fill="#b6d5f0" d="M 173.171875 217.730469 C 142.722656 264.417969 83.261719 266.878906 49 223.203125 C 88.21875 243.519531 135.902344 241.425781 173.171875 217.730469 " fill-opacity="1" fill-rule="nonzero"/><path fill="#b6d5f0" d="M 391.261719 212.597656 C 360.808594 259.289062 301.351562 261.753906 267.085938 218.078125 C 306.300781 238.394531 353.984375 236.292969 391.261719 212.597656 " fill-opacity="1" fill-rule="nonzero"/><path fill="#ffffff" d="M 189.199219 168.882812 C 219.652344 122.1875 279.113281 119.726562 313.375 163.402344 C 274.160156 143.082031 226.476562 145.1875 189.199219 168.882812 " fill-opacity="1" fill-rule="nonzero"/><path fill="#ffffff" d="M 478.398438 150.535156 C 508.851562 103.84375 568.3125 101.378906 602.574219 145.054688 C 563.359375 124.738281 515.675781 126.839844 478.398438 150.535156 " fill-opacity="1" fill-rule="nonzero"/><path fill="#ffffff" d="M 340.402344 103.960938 C 367.3125 55.144531 426.425781 48.292969 463.828125 89.316406 C 423.21875 71.957031 375.820312 77.574219 340.402344 103.960938 " fill-opacity="1" fill-rule="nonzero"/><path fill="#ffffff" d="M 119.585938 108.148438 C 149.582031 61.164062 209.011719 58.117188 243.703125 101.460938 C 204.289062 81.527344 156.625 84.09375 119.585938 108.148438 " fill-opacity="1" fill-rule="nonzero"/></g></g></g></svg>