<svg xmlns="http://www.w3.org/2000/svg" xmlns:xlink="http://www.w3.org/1999/xlink" width="1080" zoomAndPan="magnify" viewBox="0 0 810 809.999993" height="1080" preserveAspectRatio="xMidYMid meet" version="1.0"><defs><filter x="0%" y="0%" width="100%" height="100%" id="076f21f812"><feColorMatrix values="0 0 0 0 1 0 0 0 0 1 0 0 0 0 1 0 0 0 1 0" color-interpolation-filters="sRGB"/></filter><mask id="bd677fb727"><g filter="url(#076f21f812)"><rect x="-81" width="972" fill="#000000" y="-80.999999" height="971.999992" fill-opacity="0.62"/></g></mask><clipPath id="1e6ca4566a"><rect x="0" width="650" y="0" height="279"/></clipPath></defs><g mask="url(#bd677fb727)"><g transform="matrix(1, 0, 0, 1, 80, 266)"><g clip-path="url(#1e6ca4566a)"><path fill="#e3f2ff" d="M 595.691406 153.609375 C 615.191406 115.902344 572.105469 77.410156 510.777344 75.835938 C 510.117188 57.324219 499.734375 37.648438 481.417969 23.96875 C 450.246094 0.683594 409.0625 4.394531 394.042969 33.058594 C 350.753906 12.265625 299.492188 32.027344 277.09375 80.722656 C 276.949219 80.890625 276.800781 81.066406 276.65625 81.238281 C 241.492188 67.132812 198.921875 81.335938 186.195312 111.390625 C 119.433594 75.054688 9.691406 102.59375 9.691406 154.023438 C 9.691406 199.347656 97.441406 228.632812 167.621094 204.734375 C 194.765625 258.011719 255.910156 269.183594 275.671875 225.644531 C 302.675781 257.582031 343.421875 265.804688 377.46875 249.472656 C 404.992188 262.671875 438.226562 260.277344 464.984375 239.421875 C 529.707031 277.007812 648.269531 252.558594 648.269531 201.871094 C 648.269531 181.253906 627.117188 163.261719 595.691406 153.609375 " fill-opacity="1" fill-rule="nonzero"/><path fill="#ffffff" d="M 600.355469 135.097656 C 586.9375 116.472656 553.972656 103.085938 514.984375 102.246094 C 514.3125 86.175781 503.667969 69.089844 484.910156 57.214844 C 453.011719 37.023438 410.820312 40.167969 395.351562 65.097656 C 350.875 47.011719 298.390625 64.285156 275.5 106.492188 C 275.335938 106.632812 275.195312 106.785156 275.042969 106.9375 C 239.628906 94.917969 195.625 106.527344 182.335938 133.117188 C 127.828125 108.019531 38.859375 117.34375 9.929688 150.085938 C 15.644531 100.65625 121.800781 76.347656 186.1875 111.390625 C 198.984375 81.183594 241.703125 67.195312 276.660156 81.242188 C 276.800781 81.066406 276.953125 80.886719 277.09375 80.722656 C 299.59375 31.796875 350.976562 12.359375 394.042969 33.058594 C 408.957031 4.5 450.140625 0.601562 481.417969 23.96875 C 499.734375 37.648438 510.117188 57.332031 510.777344 75.835938 C 560.585938 77.113281 600.355469 103.152344 600.355469 135.097656 " fill-opacity="1" fill-rule="nonzero"/><path fill="#b6d5f0" d="M 648.269531 201.871094 C 648.269531 252.078125 530.324219 277.359375 464.992188 239.421875 C 438.210938 260.277344 404.980469 262.679688 377.46875 249.46875 C 343.421875 265.816406 302.664062 257.570312 275.667969 225.644531 C 256.125 268.785156 195.214844 258.601562 167.621094 204.730469 C 93.980469 229.820312 1.613281 196.238281 10.222656 147.964844 C 18.082031 171.910156 103.414062 184.5 167.621094 172.460938 C 194.804688 201.753906 255.996094 207.820312 275.667969 183.941406 C 303.371094 201.9375 344.324219 205.75 377.46875 197.027344 C 405.214844 204.324219 438.386719 202.886719 464.992188 191.503906 C 484.257812 197.65625 517.558594 216.019531 548.425781 216.019531 C 593.691406 216.019531 628.9375 198.957031 642.363281 183.421875 C 646.183594 189.191406 648.269531 195.398438 648.269531 201.871094 " fill-opacity="1" fill-rule="nonzero"/><path fill="#b6d5f0" d="M 600.34375 134.5 C 600.34375 134.195312 600.34375 133.898438 600.332031 133.613281 C 600.367188 133.875 600.359375 134.367188 600.34375 134.5 " fill-opacity="1" fill-rule="nonzero"/><path fill="#b6d5f0" d="M 572.257812 233.414062 C 530.132812 238.667969 471.550781 210.0625 449.855469 173.765625 C 482.609375 202.269531 529.613281 225.179688 572.257812 233.414062 " fill-opacity="1" fill-rule="nonzero"/><path fill="#b6d5f0" d="M 208.226562 152.042969 C 191.039062 181.25 147.546875 193.941406 117.429688 178.683594 C 148.570312 181.296875 183.441406 171.070312 208.226562 152.042969 " fill-opacity="1" fill-rule="nonzero"/><path fill="#b6d5f0" d="M 427.382812 174.167969 C 402.316406 213.878906 356.402344 213.734375 331.480469 174.167969 C 361.015625 193.472656 397.84375 193.472656 427.382812 174.167969 " fill-opacity="1" fill-rule="nonzero"/><path fill="#b6d5f0" d="M 475.339844 94.070312 C 450.269531 133.78125 404.351562 133.636719 379.433594 94.070312 C 408.96875 113.375 445.796875 113.382812 475.339844 94.070312 " fill-opacity="1" fill-rule="nonzero"/></g></g></g></svg>