<svg xmlns="http://www.w3.org/2000/svg" xmlns:xlink="http://www.w3.org/1999/xlink" width="1080" zoomAndPan="magnify" viewBox="0 0 810 809.999993" height="1080" preserveAspectRatio="xMidYMid meet" version="1.0"><defs><clipPath id="b637444cef"><path d="M 107 173 L 723.980469 173 L 723.980469 630 L 107 630 Z M 107 173 " clip-rule="nonzero"/></clipPath></defs><g clip-path="url(#b637444cef)"><path fill="#138379" d="M 715.464844 533.109375 C 713.574219 529.613281 711.382812 526.320312 708.886719 523.226562 C 706.394531 520.136719 703.636719 517.296875 700.621094 514.710938 C 697.601562 512.125 694.375 509.835938 690.9375 507.839844 C 687.5 505.847656 683.910156 504.183594 680.167969 502.851562 C 674.386719 504.574219 668.527344 505.957031 662.585938 507.003906 C 649.421875 509.542969 636.988281 511.9375 625.183594 523.597656 C 613.355469 535.277344 609.273438 546.074219 604.957031 557.507812 C 602.296875 564.546875 599.550781 571.816406 594.921875 579.082031 C 595.585938 582.691406 596.636719 586.183594 598.082031 589.554688 C 599.238281 592.335938 600.582031 595.023438 602.109375 597.617188 C 603.640625 600.210938 605.339844 602.683594 607.214844 605.042969 C 609.085938 607.398438 611.113281 609.613281 613.296875 611.691406 C 615.476562 613.765625 617.792969 615.679688 620.238281 617.433594 C 622.6875 619.1875 625.242188 620.761719 627.910156 622.160156 C 630.578125 623.558594 633.328125 624.765625 636.160156 625.78125 C 638.996094 626.796875 641.886719 627.609375 644.835938 628.222656 C 647.78125 628.839844 650.757812 629.246094 653.761719 629.445312 C 656.765625 629.644531 659.769531 629.636719 662.773438 629.417969 C 665.777344 629.199219 668.75 628.777344 671.691406 628.144531 C 674.636719 627.511719 677.523438 626.683594 680.351562 625.648438 C 683.179688 624.617188 685.921875 623.394531 688.582031 621.980469 C 691.238281 620.566406 693.785156 618.976562 696.222656 617.207031 C 698.660156 615.441406 700.964844 613.511719 703.132812 611.421875 C 705.300781 609.335938 707.316406 607.105469 709.175781 604.738281 C 711.035156 602.371094 712.722656 599.886719 714.234375 597.28125 C 714.984375 596.011719 715.695312 594.722656 716.359375 593.398438 C 720.121094 585.945312 722.351562 578.054688 723.054688 569.734375 C 723.210938 567.902344 723.335938 566.054688 723.335938 564.179688 C 723.34375 558.753906 722.683594 553.410156 721.347656 548.152344 C 720.015625 542.890625 718.054688 537.875 715.464844 533.109375 Z M 692.78125 573.332031 C 692.578125 574.046875 692.355469 574.753906 692.109375 575.457031 C 691.863281 576.15625 691.597656 576.847656 691.308594 577.53125 C 691.019531 578.214844 690.710938 578.890625 690.378906 579.554688 C 690.046875 580.21875 689.695312 580.875 689.324219 581.515625 C 688.953125 582.160156 688.558594 582.789062 688.148438 583.40625 C 687.738281 584.023438 687.304688 584.628906 686.855469 585.21875 C 686.40625 585.8125 685.9375 586.386719 685.453125 586.949219 C 684.96875 587.511719 684.464844 588.058594 683.945312 588.585938 C 683.425781 589.117188 682.886719 589.628906 682.335938 590.125 C 681.785156 590.621094 681.214844 591.101562 680.632812 591.5625 C 680.050781 592.023438 679.457031 592.464844 678.84375 592.886719 C 678.234375 593.3125 677.613281 593.714844 676.976562 594.101562 C 676.34375 594.484375 675.695312 594.847656 675.035156 595.191406 C 674.378906 595.535156 673.710938 595.859375 673.03125 596.160156 C 672.355469 596.460938 671.667969 596.742188 670.96875 597 C 670.273438 597.257812 669.570312 597.496094 668.859375 597.710938 C 668.148438 597.925781 667.433594 598.117188 666.710938 598.285156 C 665.984375 598.457031 665.257812 598.601562 664.527344 598.726562 C 663.792969 598.851562 663.058594 598.953125 662.320312 599.027344 C 661.582031 599.105469 660.84375 599.160156 660.101562 599.191406 C 659.359375 599.222656 658.617188 599.230469 657.875 599.21875 C 657.132812 599.203125 656.390625 599.164062 655.648438 599.101562 C 654.910156 599.039062 654.171875 598.953125 653.4375 598.847656 C 652.703125 598.738281 651.972656 598.609375 651.246094 598.453125 C 650.519531 598.300781 649.800781 598.125 649.085938 597.925781 C 648.367188 597.726562 647.660156 597.503906 646.957031 597.261719 C 646.257812 597.015625 645.5625 596.75 644.878906 596.464844 C 644.195312 596.175781 643.519531 595.867188 642.855469 595.539062 C 642.1875 595.210938 641.535156 594.859375 640.890625 594.488281 C 640.246094 594.117188 639.617188 593.726562 638.996094 593.316406 C 638.378906 592.90625 637.773438 592.480469 637.179688 592.03125 C 636.585938 591.582031 636.011719 591.117188 635.449219 590.632812 C 634.886719 590.148438 634.335938 589.644531 633.804688 589.128906 C 633.273438 588.609375 632.761719 588.074219 632.261719 587.523438 C 631.765625 586.972656 631.285156 586.40625 630.824219 585.824219 C 630.359375 585.242188 629.917969 584.648438 629.492188 584.039062 C 629.066406 583.429688 628.660156 582.808594 628.273438 582.175781 C 627.890625 581.539062 627.523438 580.894531 627.179688 580.238281 C 626.832031 579.582031 626.507812 578.914062 626.203125 578.234375 C 625.902344 577.558594 625.621094 576.871094 625.359375 576.175781 C 625.097656 575.480469 624.859375 574.777344 624.644531 574.066406 C 624.425781 573.355469 624.234375 572.640625 624.0625 571.917969 C 623.890625 571.195312 623.742188 570.46875 623.617188 569.734375 C 623.492188 569.003906 623.386719 568.269531 623.308594 567.53125 C 623.230469 566.792969 623.171875 566.054688 623.140625 565.3125 C 623.105469 564.570312 623.097656 563.828125 623.109375 563.085938 C 623.121094 562.34375 623.160156 561.601562 623.21875 560.859375 C 623.277344 560.121094 623.363281 559.382812 623.46875 558.648438 C 623.574219 557.914062 623.703125 557.183594 623.855469 556.457031 C 624.007812 555.730469 624.183594 555.007812 624.378906 554.292969 C 624.578125 553.574219 624.796875 552.867188 625.039062 552.164062 C 625.28125 551.460938 625.542969 550.769531 625.828125 550.082031 C 626.113281 549.398438 626.421875 548.722656 626.75 548.054688 C 627.074219 547.390625 627.425781 546.734375 627.792969 546.089844 C 628.160156 545.445312 628.550781 544.8125 628.960938 544.191406 C 629.367188 543.574219 629.796875 542.964844 630.242188 542.371094 C 630.6875 541.78125 631.152344 541.199219 631.636719 540.636719 C 632.117188 540.074219 632.617188 539.523438 633.136719 538.992188 C 633.652344 538.457031 634.1875 537.941406 634.738281 537.445312 C 635.285156 536.945312 635.851562 536.460938 636.429688 536 C 637.011719 535.535156 637.605469 535.089844 638.210938 534.664062 C 638.820312 534.238281 639.441406 533.832031 640.074219 533.441406 C 640.707031 533.054688 641.351562 532.6875 642.007812 532.339844 C 642.664062 531.992188 643.332031 531.667969 644.007812 531.363281 C 644.6875 531.058594 645.371094 530.773438 646.066406 530.511719 C 646.761719 530.25 647.464844 530.007812 648.171875 529.789062 C 648.882812 529.570312 649.597656 529.375 650.320312 529.203125 C 651.042969 529.03125 651.769531 528.878906 652.5 528.75 C 653.234375 528.625 653.96875 528.519531 654.707031 528.4375 C 655.445312 528.355469 656.183594 528.296875 656.925781 528.261719 C 657.667969 528.226562 658.410156 528.214844 659.152344 528.226562 C 659.894531 528.238281 660.636719 528.273438 661.375 528.332031 C 662.117188 528.390625 662.855469 528.472656 663.589844 528.574219 C 664.324219 528.679688 665.054688 528.804688 665.78125 528.957031 C 666.511719 529.105469 667.230469 529.28125 667.949219 529.476562 C 668.664062 529.671875 669.375 529.886719 670.078125 530.128906 C 670.78125 530.367188 671.472656 530.628906 672.160156 530.914062 C 672.847656 531.195312 673.523438 531.5 674.191406 531.828125 C 674.859375 532.152344 675.515625 532.5 676.160156 532.867188 C 676.804688 533.234375 677.4375 533.621094 678.058594 534.027344 C 678.679688 534.4375 679.289062 534.863281 679.882812 535.308594 C 680.476562 535.75 681.054688 536.214844 681.621094 536.695312 C 682.1875 537.179688 682.738281 537.675781 683.269531 538.191406 C 683.804688 538.707031 684.320312 539.242188 684.824219 539.789062 C 685.324219 540.335938 685.804688 540.902344 686.273438 541.480469 C 686.738281 542.058594 687.183594 542.652344 687.613281 543.257812 C 688.039062 543.863281 688.449219 544.484375 688.835938 545.117188 C 689.226562 545.75 689.597656 546.394531 689.945312 547.046875 C 690.292969 547.703125 690.621094 548.371094 690.929688 549.046875 C 691.234375 549.722656 691.519531 550.40625 691.785156 551.101562 C 692.046875 551.796875 692.289062 552.496094 692.511719 553.207031 C 692.730469 553.914062 692.929688 554.628906 693.101562 555.351562 C 693.277344 556.074219 693.429688 556.800781 693.558594 557.53125 C 693.691406 558.261719 693.796875 558.996094 693.878906 559.734375 C 693.964844 560.472656 694.023438 561.210938 694.058594 561.953125 C 694.097656 562.695312 694.109375 563.4375 694.101562 564.179688 C 694.058594 567.289062 693.617188 570.339844 692.78125 573.332031 Z M 629.355469 513.675781 C 632.996094 511.140625 636.886719 509.070312 641.023438 507.472656 C 642.332031 506.957031 643.644531 506.496094 644.964844 506.074219 C 650.222656 504.488281 655.558594 503.222656 660.96875 502.28125 C 662.320312 502.023438 663.671875 501.757812 665.03125 501.492188 C 666.9375 501.117188 668.851562 500.707031 670.777344 500.265625 C 671.589844 500.082031 672.40625 499.902344 673.226562 499.699219 C 677.492188 498.667969 681.644531 497.296875 685.6875 495.585938 C 688.324219 494.464844 690.871094 493.164062 693.328125 491.6875 C 694.378906 491.050781 695.324219 490.429688 696.167969 489.835938 C 698.390625 488.371094 700.363281 486.625 702.089844 484.597656 C 696.671875 480.570312 690.816406 477.324219 684.53125 474.859375 C 684.011719 474.648438 683.5 474.425781 682.972656 474.222656 C 680.167969 473.148438 677.3125 472.226562 674.40625 471.453125 C 673.847656 471.304688 673.285156 471.179688 672.722656 471.042969 C 669.667969 470.277344 666.578125 469.6875 663.453125 469.273438 C 660.238281 468.886719 657.015625 468.683594 653.78125 468.652344 C 653.160156 468.644531 652.546875 468.621094 651.925781 468.625 C 649.382812 468.648438 646.828125 468.75 644.25 469.003906 C 633.855469 470.046875 623.996094 472.921875 614.664062 477.617188 L 620.019531 469.851562 L 622.652344 466.03125 C 623.902344 464.214844 624.917969 462.273438 625.699219 460.210938 C 626.480469 458.148438 627 456.019531 627.261719 453.828125 C 627.527344 451.640625 627.523438 449.449219 627.253906 447.257812 C 626.984375 445.070312 626.453125 442.945312 625.667969 440.882812 L 590.714844 349.230469 L 612.261719 352.65625 C 612.808594 352.742188 613.355469 352.769531 613.910156 352.738281 C 614.460938 352.703125 615.003906 352.613281 615.535156 352.464844 C 616.066406 352.3125 616.578125 352.109375 617.066406 351.847656 C 617.554688 351.585938 618.007812 351.277344 618.429688 350.917969 C 618.851562 350.558594 619.226562 350.15625 619.5625 349.714844 C 619.894531 349.277344 620.179688 348.804688 620.410156 348.300781 C 620.640625 347.800781 620.816406 347.277344 620.933594 346.738281 C 621.054688 346.195312 621.113281 345.652344 621.113281 345.097656 L 621.113281 304.863281 C 621.113281 304.308594 621.054688 303.761719 620.933594 303.222656 C 620.816406 302.679688 620.640625 302.160156 620.410156 301.65625 C 620.175781 301.15625 619.894531 300.683594 619.5625 300.242188 C 619.226562 299.800781 618.847656 299.402344 618.429688 299.042969 C 618.007812 298.683594 617.554688 298.375 617.066406 298.113281 C 616.578125 297.851562 616.066406 297.648438 615.535156 297.496094 C 615.003906 297.347656 614.460938 297.253906 613.90625 297.222656 C 613.355469 297.191406 612.804688 297.21875 612.261719 297.304688 L 562.863281 305.164062 C 562.339844 305.246094 561.828125 305.375 561.328125 305.546875 C 560.824219 305.722656 560.34375 305.9375 559.882812 306.199219 C 559.417969 306.457031 558.984375 306.753906 558.574219 307.089844 C 558.164062 307.429688 557.789062 307.796875 557.445312 308.199219 C 557.101562 308.605469 556.792969 309.035156 556.527344 309.492188 C 556.257812 309.949219 556.03125 310.425781 555.851562 310.925781 C 555.667969 311.421875 555.527344 311.929688 555.433594 312.453125 C 555.34375 312.972656 555.296875 313.5 555.296875 314.03125 L 555.296875 321.449219 C 554.542969 321.289062 553.78125 321.191406 553.007812 321.152344 L 513.632812 320.648438 C 512.304688 320.601562 511.046875 320.28125 509.855469 319.6875 C 508.664062 319.097656 507.648438 318.285156 506.808594 317.253906 L 471.164062 273.34375 C 451.445312 249.171875 417.792969 256.699219 411.457031 287.242188 L 392.929688 356.890625 C 392.632812 358.308594 392.402344 359.734375 392.238281 361.171875 C 392.078125 362.609375 391.980469 364.050781 391.949219 365.496094 C 391.917969 366.945312 391.957031 368.386719 392.0625 369.832031 C 392.164062 371.273438 392.335938 372.710938 392.574219 374.136719 C 392.8125 375.5625 393.113281 376.976562 393.480469 378.375 C 393.851562 379.773438 394.28125 381.152344 394.777344 382.511719 C 395.277344 383.871094 395.832031 385.207031 396.453125 386.511719 C 397.074219 387.820312 397.753906 389.09375 398.492188 390.339844 C 399.230469 391.582031 400.023438 392.789062 400.875 393.960938 C 401.726562 395.132812 402.628906 396.261719 403.582031 397.347656 C 404.539062 398.433594 405.542969 399.472656 406.59375 400.464844 C 407.644531 401.460938 408.742188 402.402344 409.878906 403.292969 C 411.019531 404.1875 412.199219 405.023438 413.414062 405.804688 C 414.632812 406.589844 415.882812 407.3125 417.164062 407.980469 C 418.449219 408.648438 419.761719 409.253906 421.101562 409.796875 C 422.441406 410.34375 423.804688 410.824219 425.191406 411.242188 L 310.742188 411.242188 C 310.464844 411.242188 310.191406 411.269531 309.917969 411.324219 C 309.644531 411.378906 309.378906 411.457031 309.125 411.566406 C 308.867188 411.671875 308.621094 411.800781 308.390625 411.957031 C 308.160156 412.113281 307.945312 412.289062 307.75 412.484375 C 307.554688 412.679688 307.378906 412.894531 307.222656 413.125 C 307.070312 413.359375 306.9375 413.601562 306.832031 413.859375 C 306.726562 414.117188 306.644531 414.378906 306.589844 414.652344 C 306.539062 414.925781 306.511719 415.203125 306.511719 415.480469 L 306.511719 431.402344 C 306.511719 431.683594 306.539062 431.957031 306.59375 432.230469 C 306.648438 432.5 306.726562 432.765625 306.832031 433.023438 C 306.941406 433.28125 307.070312 433.523438 307.226562 433.753906 C 307.378906 433.984375 307.554688 434.199219 307.75 434.394531 C 307.949219 434.59375 308.160156 434.769531 308.394531 434.921875 C 308.625 435.078125 308.867188 435.207031 309.125 435.3125 C 309.382812 435.421875 309.644531 435.5 309.917969 435.554688 C 310.191406 435.609375 310.464844 435.636719 310.742188 435.636719 L 469.386719 435.636719 C 469.664062 435.636719 469.9375 435.609375 470.210938 435.554688 C 470.484375 435.5 470.75 435.421875 471.003906 435.316406 C 471.261719 435.207031 471.507812 435.078125 471.738281 434.925781 C 471.96875 434.769531 472.183594 434.59375 472.378906 434.398438 C 472.578125 434.199219 472.753906 433.988281 472.90625 433.757812 C 473.0625 433.523438 473.191406 433.28125 473.296875 433.023438 C 473.40625 432.765625 473.484375 432.503906 473.539062 432.230469 C 473.59375 431.957031 473.621094 431.683594 473.621094 431.402344 L 473.621094 418.796875 L 495.25 421.910156 L 478.132812 498.054688 C 478.035156 498.621094 477.960938 499.1875 477.917969 499.757812 C 477.871094 500.328125 477.855469 500.898438 477.867188 501.472656 C 477.878906 502.046875 477.917969 502.617188 477.984375 503.183594 C 478.050781 503.753906 478.144531 504.316406 478.265625 504.878906 C 478.386719 505.4375 478.535156 505.988281 478.710938 506.535156 C 478.886719 507.078125 479.085938 507.617188 479.3125 508.140625 C 479.542969 508.667969 479.792969 509.179688 480.070312 509.679688 C 480.347656 510.183594 480.648438 510.667969 480.972656 511.140625 C 481.296875 511.613281 481.644531 512.066406 482.011719 512.503906 C 482.382812 512.945312 482.769531 513.363281 483.179688 513.761719 C 483.589844 514.164062 484.019531 514.542969 484.464844 514.902344 C 484.910156 515.261719 485.375 515.597656 485.851562 515.910156 C 486.332031 516.222656 486.824219 516.511719 487.332031 516.78125 C 487.839844 517.046875 488.359375 517.285156 488.890625 517.5 C 489.421875 517.714844 489.960938 517.90625 490.507812 518.066406 C 491.058594 518.230469 491.613281 518.367188 492.175781 518.476562 C 492.738281 518.582031 493.304688 518.664062 493.875 518.71875 C 494.445312 518.773438 495.015625 518.796875 495.589844 518.796875 C 496.160156 518.792969 496.734375 518.765625 497.300781 518.707031 C 497.871094 518.648438 498.4375 518.566406 499 518.453125 C 499.5625 518.339844 500.117188 518.199219 500.664062 518.035156 C 501.210938 517.867188 501.75 517.675781 502.277344 517.457031 C 502.808594 517.238281 503.324219 516.992188 503.832031 516.722656 C 504.335938 516.453125 504.828125 516.160156 505.304688 515.84375 C 505.78125 515.527344 506.242188 515.1875 506.6875 514.828125 C 507.128906 514.464844 507.554688 514.082031 507.964844 513.679688 C 508.371094 513.277344 508.757812 512.855469 509.121094 512.414062 C 509.488281 511.972656 509.832031 511.515625 510.152344 511.042969 C 510.472656 510.570312 510.769531 510.082031 511.046875 509.578125 C 511.320312 509.074219 511.566406 508.558594 511.792969 508.03125 C 512.015625 507.503906 512.214844 506.96875 512.382812 506.421875 C 512.554688 505.875 512.699219 505.324219 512.820312 504.761719 L 533.96875 420.730469 C 534.183594 419.722656 534.351562 418.703125 534.464844 417.679688 C 534.578125 416.65625 534.640625 415.628906 534.65625 414.597656 C 534.667969 413.566406 534.628906 412.535156 534.539062 411.507812 C 534.449219 410.480469 534.308594 409.460938 534.121094 408.449219 C 533.929688 407.433594 533.691406 406.433594 533.402344 405.445312 C 533.109375 404.453125 532.773438 403.480469 532.386719 402.523438 C 532.003906 401.570312 531.570312 400.632812 531.09375 399.71875 C 530.613281 398.808594 530.089844 397.917969 529.527344 397.058594 C 528.960938 396.195312 528.351562 395.363281 527.703125 394.5625 C 527.054688 393.761719 526.367188 392.992188 525.644531 392.257812 C 524.921875 391.523438 524.160156 390.828125 523.367188 390.171875 C 522.574219 389.511719 521.75 388.894531 520.898438 388.316406 C 520.042969 387.738281 519.160156 387.207031 518.253906 386.714844 C 517.347656 386.226562 516.417969 385.78125 515.464844 385.382812 C 514.515625 384.988281 513.546875 384.636719 512.5625 384.335938 C 511.574219 384.03125 510.578125 383.78125 509.566406 383.578125 C 491.757812 379.996094 469.628906 375.683594 458.117188 373.449219 C 457.609375 373.347656 457.117188 373.199219 456.640625 373.003906 C 456.164062 372.804688 455.710938 372.5625 455.28125 372.273438 C 454.855469 371.984375 454.460938 371.652344 454.097656 371.285156 C 453.734375 370.917969 453.414062 370.515625 453.132812 370.082031 C 452.851562 369.648438 452.613281 369.191406 452.425781 368.710938 C 452.234375 368.230469 452.097656 367.738281 452.007812 367.226562 C 451.917969 366.71875 451.878906 366.207031 451.890625 365.691406 C 451.90625 365.171875 451.96875 364.664062 452.085938 364.160156 L 462.828125 316.398438 L 482.953125 340.234375 C 484.636719 342.304688 486.535156 344.15625 488.648438 345.789062 C 490.761719 347.417969 493.03125 348.785156 495.460938 349.890625 C 497.890625 350.992188 500.417969 351.804688 503.035156 352.320312 C 505.652344 352.835938 508.296875 353.046875 510.964844 352.953125 L 553.007812 350.652344 C 555.179688 350.574219 557.234375 350.039062 559.167969 349.042969 L 574.242188 432.933594 C 574.769531 435.878906 575.066406 438.851562 575.128906 441.847656 C 575.191406 444.839844 575.019531 447.820312 574.613281 450.789062 C 574.207031 453.757812 573.574219 456.675781 572.707031 459.542969 C 571.84375 462.410156 570.761719 465.195312 569.457031 467.890625 L 548.398438 511.523438 C 547.820312 512.71875 547.160156 513.867188 546.421875 514.972656 C 545.683594 516.074219 544.875 517.121094 543.988281 518.109375 C 543.101562 519.101562 542.152344 520.023438 541.136719 520.878906 C 540.121094 521.734375 539.050781 522.515625 537.929688 523.222656 C 536.804688 523.929688 535.636719 524.550781 534.421875 525.09375 C 533.210938 525.636719 531.96875 526.089844 530.691406 526.457031 C 529.414062 526.824219 528.121094 527.101562 526.804688 527.285156 C 525.492188 527.472656 524.167969 527.566406 522.839844 527.566406 L 482.914062 527.566406 C 481.910156 527.566406 480.90625 527.507812 479.90625 527.398438 C 478.902344 527.289062 477.914062 527.121094 476.929688 526.902344 C 475.949219 526.679688 474.980469 526.40625 474.027344 526.078125 C 473.074219 525.753906 472.144531 525.375 471.234375 524.941406 C 470.324219 524.511719 469.441406 524.035156 468.582031 523.503906 C 467.726562 522.976562 466.898438 522.402344 466.105469 521.785156 C 465.3125 521.164062 464.554688 520.503906 463.832031 519.800781 C 463.113281 519.097656 462.433594 518.359375 461.792969 517.582031 C 461.152344 516.804688 460.558594 515.992188 460.011719 515.148438 C 459.460938 514.304688 458.960938 513.433594 458.507812 512.535156 C 458.054688 511.636719 457.652344 510.714844 457.300781 509.769531 C 456.949219 508.828125 456.648438 507.867188 456.402344 506.890625 C 456.160156 505.914062 455.96875 504.925781 455.832031 503.929688 C 455.695312 502.929688 455.613281 501.929688 455.589844 500.921875 C 455.5625 499.917969 455.59375 498.910156 455.679688 497.910156 C 455.765625 496.90625 455.90625 495.910156 456.101562 494.921875 L 466.613281 441.804688 L 315.441406 441.804688 C 313.316406 441.796875 311.355469 442.351562 309.550781 443.46875 C 308.136719 444.351562 306.226562 445.582031 303.953125 447.144531 C 302.691406 448.015625 301.296875 448.457031 299.765625 448.464844 L 235.144531 448.464844 C 234.632812 448.464844 234.125 448.515625 233.625 448.613281 C 233.121094 448.714844 232.632812 448.863281 232.160156 449.058594 C 231.6875 449.253906 231.238281 449.496094 230.8125 449.777344 C 230.386719 450.0625 229.992188 450.386719 229.628906 450.75 C 229.269531 451.113281 228.945312 451.503906 228.660156 451.929688 C 228.375 452.355469 228.136719 452.804688 227.9375 453.28125 C 227.742188 453.753906 227.59375 454.242188 227.496094 454.742188 C 227.394531 455.246094 227.34375 455.753906 227.34375 456.265625 C 227.34375 456.777344 227.394531 457.285156 227.496094 457.785156 C 227.59375 458.289062 227.742188 458.777344 227.9375 459.25 C 228.136719 459.722656 228.375 460.171875 228.660156 460.597656 C 228.945312 461.023438 229.269531 461.417969 229.628906 461.78125 C 229.992188 462.140625 230.386719 462.464844 230.8125 462.75 C 231.238281 463.035156 231.6875 463.273438 232.160156 463.46875 C 232.632812 463.667969 233.121094 463.816406 233.625 463.914062 C 234.125 464.015625 234.632812 464.0625 235.144531 464.0625 L 308.953125 464.0625 C 309.464844 464.0625 309.972656 464.113281 310.472656 464.214844 C 310.976562 464.3125 311.464844 464.460938 311.9375 464.65625 C 312.410156 464.855469 312.859375 465.09375 313.285156 465.378906 C 313.710938 465.664062 314.105469 465.988281 314.46875 466.347656 C 314.828125 466.710938 315.152344 467.105469 315.4375 467.53125 C 315.722656 467.957031 315.960938 468.40625 316.160156 468.878906 C 316.355469 469.351562 316.503906 469.839844 316.601562 470.34375 C 316.703125 470.84375 316.753906 471.351562 316.753906 471.863281 C 316.753906 472.375 316.703125 472.882812 316.601562 473.386719 C 316.503906 473.886719 316.355469 474.375 316.160156 474.847656 C 315.960938 475.324219 315.722656 475.773438 315.4375 476.199219 C 315.152344 476.625 314.828125 477.015625 314.46875 477.378906 C 314.105469 477.742188 313.710938 478.066406 313.285156 478.351562 C 312.859375 478.632812 312.410156 478.875 311.9375 479.070312 C 311.464844 479.265625 310.976562 479.414062 310.472656 479.515625 C 309.972656 479.613281 309.464844 479.664062 308.953125 479.664062 L 122.902344 479.664062 C 122.390625 479.664062 121.886719 479.714844 121.382812 479.8125 C 120.878906 479.914062 120.390625 480.0625 119.917969 480.257812 C 119.445312 480.453125 118.996094 480.695312 118.570312 480.980469 C 118.144531 481.261719 117.75 481.585938 117.390625 481.949219 C 117.027344 482.3125 116.703125 482.703125 116.417969 483.128906 C 116.132812 483.554688 115.894531 484.007812 115.699219 484.480469 C 115.503906 484.953125 115.355469 485.441406 115.253906 485.941406 C 115.152344 486.445312 115.105469 486.953125 115.105469 487.464844 C 115.105469 487.976562 115.152344 488.484375 115.253906 488.984375 C 115.355469 489.488281 115.503906 489.976562 115.699219 490.449219 C 115.894531 490.921875 116.132812 491.371094 116.417969 491.796875 C 116.703125 492.222656 117.027344 492.617188 117.390625 492.980469 C 117.75 493.339844 118.144531 493.664062 118.570312 493.949219 C 118.996094 494.234375 119.445312 494.472656 119.917969 494.671875 C 120.390625 494.867188 120.878906 495.015625 121.382812 495.113281 C 121.886719 495.214844 122.390625 495.265625 122.902344 495.265625 L 271.894531 495.265625 C 272.410156 495.257812 272.921875 495.304688 273.425781 495.402344 C 273.933594 495.496094 274.425781 495.640625 274.902344 495.835938 C 275.382812 496.027344 275.835938 496.269531 276.265625 496.550781 C 276.695312 496.835938 277.09375 497.15625 277.460938 497.519531 C 277.828125 497.882812 278.152344 498.277344 278.441406 498.707031 C 278.730469 499.132812 278.972656 499.585938 279.171875 500.0625 C 279.371094 500.535156 279.519531 501.027344 279.621094 501.53125 C 279.722656 502.039062 279.773438 502.546875 279.773438 503.0625 C 279.773438 503.578125 279.722656 504.089844 279.621094 504.59375 C 279.519531 505.101562 279.371094 505.589844 279.171875 506.066406 C 278.972656 506.542969 278.730469 506.992188 278.441406 507.421875 C 278.152344 507.847656 277.828125 508.242188 277.460938 508.605469 C 277.09375 508.96875 276.695312 509.292969 276.265625 509.574219 C 275.835938 509.859375 275.382812 510.097656 274.902344 510.292969 C 274.425781 510.484375 273.933594 510.628906 273.425781 510.726562 C 272.921875 510.824219 272.410156 510.867188 271.894531 510.863281 L 176.355469 510.863281 C 175.84375 510.863281 175.335938 510.914062 174.832031 511.011719 C 174.332031 511.113281 173.84375 511.261719 173.371094 511.457031 C 172.898438 511.652344 172.445312 511.894531 172.019531 512.175781 C 171.59375 512.460938 171.203125 512.785156 170.839844 513.148438 C 170.476562 513.507812 170.152344 513.902344 169.871094 514.328125 C 169.585938 514.753906 169.34375 515.203125 169.148438 515.679688 C 168.953125 516.152344 168.804688 516.640625 168.703125 517.140625 C 168.605469 517.644531 168.554688 518.152344 168.554688 518.664062 C 168.554688 519.175781 168.605469 519.683594 168.703125 520.183594 C 168.804688 520.6875 168.953125 521.175781 169.148438 521.648438 C 169.34375 522.121094 169.585938 522.570312 169.871094 522.996094 C 170.152344 523.421875 170.476562 523.816406 170.839844 524.179688 C 171.203125 524.539062 171.59375 524.863281 172.019531 525.148438 C 172.445312 525.433594 172.898438 525.671875 173.371094 525.867188 C 173.84375 526.066406 174.332031 526.214844 174.832031 526.3125 C 175.335938 526.414062 175.84375 526.460938 176.355469 526.460938 L 240.847656 526.460938 C 236.148438 539.972656 233.796875 553.878906 233.800781 568.183594 L 259.183594 568.183594 C 259.183594 568.335938 259.152344 568.484375 259.152344 568.640625 C 259.152344 570.386719 259.269531 572.105469 259.414062 573.816406 C 259.707031 577.355469 260.308594 580.839844 261.214844 584.273438 C 262.125 587.707031 263.324219 591.035156 264.820312 594.253906 C 266.3125 597.476562 268.078125 600.542969 270.117188 603.453125 C 272.152344 606.363281 274.425781 609.070312 276.941406 611.578125 C 277.753906 612.402344 278.585938 613.199219 279.445312 613.972656 C 280.304688 614.746094 281.183594 615.496094 282.082031 616.21875 C 282.984375 616.941406 283.90625 617.640625 284.84375 618.308594 C 285.785156 618.980469 286.746094 619.621094 287.722656 620.238281 C 288.699219 620.855469 289.695312 621.441406 290.707031 622 C 291.71875 622.558594 292.746094 623.085938 293.785156 623.585938 C 294.828125 624.085938 295.882812 624.554688 296.953125 624.992188 C 298.019531 625.433594 299.101562 625.839844 300.191406 626.21875 C 301.285156 626.59375 302.386719 626.941406 303.5 627.253906 C 304.609375 627.566406 305.730469 627.847656 306.859375 628.097656 C 307.988281 628.347656 309.121094 628.566406 310.261719 628.75 C 311.402344 628.933594 312.546875 629.085938 313.695312 629.203125 C 314.84375 629.324219 315.996094 629.410156 317.152344 629.460938 C 318.304688 629.515625 319.460938 629.535156 320.613281 629.519531 C 321.769531 629.507812 322.925781 629.460938 324.078125 629.378906 C 325.230469 629.300781 326.378906 629.1875 327.523438 629.042969 C 328.671875 628.898438 329.8125 628.71875 330.949219 628.507812 C 332.082031 628.296875 333.210938 628.050781 334.332031 627.777344 C 335.457031 627.5 336.570312 627.191406 337.671875 626.851562 C 338.777344 626.511719 339.871094 626.140625 340.953125 625.738281 C 342.035156 625.335938 343.105469 624.902344 344.164062 624.441406 C 345.222656 623.976562 346.265625 623.480469 347.296875 622.957031 C 348.328125 622.433594 349.339844 621.882812 350.339844 621.300781 C 351.335938 620.71875 352.316406 620.105469 353.28125 619.46875 C 354.242188 618.832031 355.1875 618.164062 356.113281 617.472656 C 357.035156 616.78125 357.941406 616.0625 358.824219 615.316406 C 359.707031 614.574219 360.570312 613.804688 361.410156 613.011719 C 362.25 612.21875 363.0625 611.398438 363.855469 610.558594 C 364.648438 609.71875 365.417969 608.855469 366.160156 607.972656 C 366.902344 607.085938 367.621094 606.183594 368.3125 605.257812 C 369.003906 604.332031 369.667969 603.386719 370.304688 602.421875 C 370.941406 601.457031 371.550781 600.476562 372.128906 599.476562 C 372.832031 598.292969 373.492188 597.089844 374.113281 595.859375 C 377.613281 588.914062 379.691406 581.566406 380.347656 573.816406 C 380.492188 572.105469 380.609375 570.386719 380.609375 568.640625 C 380.609375 568.488281 380.582031 568.339844 380.582031 568.183594 L 528.796875 568.183594 C 530.59375 568.164062 532.382812 568.039062 534.164062 567.804688 C 535.949219 567.574219 537.710938 567.234375 539.453125 566.796875 C 541.195312 566.355469 542.90625 565.8125 544.585938 565.171875 C 546.261719 564.527344 547.898438 563.789062 549.488281 562.953125 C 551.078125 562.117188 552.617188 561.191406 554.097656 560.171875 C 555.578125 559.15625 556.996094 558.054688 558.347656 556.871094 C 559.699219 555.683594 560.976562 554.425781 562.179688 553.089844 C 563.382812 551.753906 564.503906 550.351562 565.539062 548.882812 L 568.074219 545.207031 C 567.527344 550.773438 567.523438 556.339844 568.070312 561.90625 C 568.308594 564.339844 568.710938 566.714844 569.144531 569.074219 C 570.484375 576.300781 572.722656 583.238281 575.859375 589.882812 C 576.90625 589.429688 577.914062 588.894531 578.878906 588.28125 C 580.40625 587.335938 581.851562 586.277344 583.214844 585.109375 C 585.066406 583.53125 586.75 581.792969 588.265625 579.894531 C 589.15625 578.78125 589.984375 577.625 590.75 576.421875 C 591.753906 574.84375 592.640625 573.261719 593.480469 571.679688 C 602.257812 555.144531 603.222656 538.332031 621.707031 520.074219 C 624.074219 517.726562 626.625 515.59375 629.355469 513.675781 Z M 353.378906 568.640625 C 353.363281 569.726562 353.292969 570.808594 353.171875 571.890625 C 353.050781 572.96875 352.878906 574.042969 352.652344 575.105469 C 352.425781 576.167969 352.152344 577.21875 351.824219 578.257812 C 351.496094 579.292969 351.117188 580.3125 350.691406 581.3125 C 350.265625 582.3125 349.789062 583.289062 349.269531 584.242188 C 348.746094 585.195312 348.179688 586.121094 347.566406 587.019531 C 346.957031 587.917969 346.300781 588.785156 345.605469 589.621094 C 344.910156 590.453125 344.171875 591.253906 343.398438 592.015625 C 342.625 592.78125 341.816406 593.503906 340.972656 594.1875 C 340.125 594.871094 339.25 595.515625 338.34375 596.113281 C 337.4375 596.710938 336.5 597.265625 335.539062 597.773438 C 334.578125 598.28125 333.597656 598.742188 332.589844 599.15625 C 331.585938 599.566406 330.5625 599.929688 329.519531 600.242188 C 328.480469 600.554688 327.425781 600.816406 326.359375 601.027344 C 325.292969 601.238281 324.21875 601.394531 323.136719 601.5 C 322.054688 601.605469 320.96875 601.660156 319.882812 601.660156 C 318.792969 601.660156 317.710938 601.605469 316.628906 601.5 C 315.546875 601.394531 314.472656 601.238281 313.40625 601.027344 C 312.339844 600.816406 311.285156 600.554688 310.242188 600.242188 C 309.203125 599.929688 308.179688 599.566406 307.171875 599.15625 C 306.167969 598.742188 305.183594 598.28125 304.222656 597.773438 C 303.261719 597.265625 302.328125 596.710938 301.417969 596.113281 C 300.511719 595.515625 299.636719 594.871094 298.792969 594.1875 C 297.945312 593.503906 297.136719 592.78125 296.363281 592.015625 C 295.589844 591.253906 294.855469 590.453125 294.15625 589.621094 C 293.460938 588.785156 292.808594 587.917969 292.195312 587.019531 C 291.582031 586.121094 291.015625 585.195312 290.492188 584.242188 C 289.972656 583.289062 289.496094 582.3125 289.070312 581.3125 C 288.644531 580.3125 288.265625 579.292969 287.941406 578.257812 C 287.613281 577.21875 287.335938 576.167969 287.109375 575.105469 C 286.882812 574.042969 286.710938 572.96875 286.589844 571.890625 C 286.46875 570.808594 286.402344 569.726562 286.386719 568.640625 C 286.386719 568.488281 286.429688 568.339844 286.429688 568.183594 L 353.332031 568.183594 C 353.332031 568.339844 353.378906 568.484375 353.378906 568.640625 Z M 432.828125 237.367188 C 431.996094 231.105469 430.332031 217.945312 430.496094 214.503906 C 431.609375 190.511719 448.363281 171.796875 475.957031 173.078125 C 477.109375 173.132812 478.257812 173.230469 479.402344 173.375 C 480.542969 173.519531 481.679688 173.710938 482.808594 173.945312 C 483.9375 174.179688 485.054688 174.460938 486.160156 174.785156 C 487.265625 175.109375 488.359375 175.476562 489.4375 175.886719 C 490.511719 176.296875 491.570312 176.75 492.613281 177.246094 C 493.652344 177.738281 494.675781 178.273438 495.671875 178.851562 C 496.671875 179.425781 497.644531 180.039062 498.59375 180.695312 C 499.542969 181.347656 500.464844 182.039062 501.363281 182.765625 C 502.257812 183.492188 503.121094 184.25 503.957031 185.046875 C 504.789062 185.84375 505.589844 186.667969 506.359375 187.527344 C 507.128906 188.386719 507.863281 189.273438 508.558594 190.191406 C 509.257812 191.109375 509.917969 192.054688 510.542969 193.023438 C 511.164062 193.992188 511.75 194.984375 512.292969 196 C 512.835938 197.019531 513.339844 198.054688 513.800781 199.109375 C 514.261719 200.167969 514.683594 201.238281 515.058594 202.328125 C 515.433594 203.417969 515.769531 204.519531 516.058594 205.636719 L 473.804688 203.671875 C 473.515625 203.660156 473.230469 203.675781 472.945312 203.71875 C 472.664062 203.761719 472.386719 203.832031 472.113281 203.929688 C 471.84375 204.027344 471.585938 204.148438 471.339844 204.296875 C 471.09375 204.445312 470.863281 204.617188 470.648438 204.8125 C 470.4375 205.003906 470.246094 205.21875 470.074219 205.449219 C 469.90625 205.679688 469.757812 205.925781 469.636719 206.1875 C 469.511719 206.449219 469.417969 206.71875 469.347656 206.996094 C 469.28125 207.277344 469.238281 207.558594 469.226562 207.847656 L 468.558594 222.148438 C 468.527344 222.8125 468.605469 223.464844 468.789062 224.105469 C 468.972656 224.746094 469.253906 225.339844 469.632812 225.886719 C 470.011719 226.433594 470.464844 226.90625 471 227.304688 C 471.535156 227.703125 472.117188 228.003906 472.75 228.210938 L 514.300781 241.730469 C 511.6875 249.46875 507.910156 256.589844 502.96875 263.089844 C 502.597656 263.582031 502.15625 263.996094 501.648438 264.34375 C 501.140625 264.691406 500.589844 264.949219 499.996094 265.113281 C 499.40625 265.28125 498.800781 265.351562 498.1875 265.324219 C 497.574219 265.296875 496.980469 265.171875 496.40625 264.953125 L 436.425781 241.925781 C 435.949219 241.742188 435.503906 241.5 435.09375 241.195312 C 434.679688 240.894531 434.316406 240.542969 434 240.140625 C 433.683594 239.738281 433.425781 239.304688 433.226562 238.832031 C 433.027344 238.363281 432.894531 237.875 432.828125 237.367188 Z M 191.421875 327.875 L 114.90625 327.875 C 114.359375 327.875 113.820312 327.816406 113.285156 327.703125 C 112.753906 327.589844 112.234375 327.421875 111.738281 327.203125 C 111.238281 326.980469 110.765625 326.707031 110.324219 326.386719 C 109.882812 326.066406 109.480469 325.703125 109.113281 325.296875 C 108.746094 324.894531 108.429688 324.453125 108.15625 323.980469 C 107.882812 323.507812 107.660156 323.011719 107.488281 322.492188 C 107.320312 321.972656 107.207031 321.441406 107.148438 320.898438 C 107.089844 320.355469 107.089844 319.8125 107.148438 319.269531 C 107.554688 315.210938 111.273438 312.277344 115.351562 312.277344 L 211.421875 312.277344 C 211.96875 312.277344 212.507812 312.21875 213.042969 312.105469 C 213.578125 311.992188 214.09375 311.824219 214.59375 311.601562 C 215.09375 311.378906 215.5625 311.109375 216.003906 310.789062 C 216.445312 310.46875 216.851562 310.105469 217.214844 309.699219 C 217.582031 309.292969 217.902344 308.855469 218.175781 308.382812 C 218.449219 307.910156 218.667969 307.414062 218.839844 306.894531 C 219.007812 306.375 219.121094 305.84375 219.179688 305.300781 C 219.238281 304.757812 219.238281 304.214844 219.183594 303.671875 C 218.777344 299.613281 215.058594 296.675781 210.976562 296.675781 L 134.007812 296.675781 C 133.496094 296.675781 132.988281 296.625 132.488281 296.527344 C 131.984375 296.425781 131.496094 296.277344 131.023438 296.082031 C 130.550781 295.886719 130.101562 295.644531 129.675781 295.363281 C 129.25 295.078125 128.855469 294.753906 128.492188 294.390625 C 128.132812 294.03125 127.808594 293.636719 127.523438 293.210938 C 127.238281 292.785156 127 292.335938 126.800781 291.859375 C 126.605469 291.386719 126.457031 290.898438 126.359375 290.398438 C 126.257812 289.894531 126.207031 289.386719 126.207031 288.875 C 126.207031 288.363281 126.257812 287.855469 126.359375 287.355469 C 126.457031 286.851562 126.605469 286.363281 126.800781 285.890625 C 127 285.417969 127.238281 284.96875 127.523438 284.542969 C 127.808594 284.117188 128.132812 283.722656 128.492188 283.359375 C 128.855469 283 129.25 282.675781 129.675781 282.390625 C 130.101562 282.105469 130.550781 281.867188 131.023438 281.671875 C 131.496094 281.472656 131.984375 281.328125 132.488281 281.226562 C 132.988281 281.125 133.496094 281.078125 134.007812 281.078125 L 211.421875 281.078125 C 211.96875 281.078125 212.507812 281.019531 213.042969 280.90625 C 213.578125 280.792969 214.09375 280.625 214.59375 280.402344 C 215.09375 280.179688 215.5625 279.910156 216.003906 279.589844 C 216.445312 279.269531 216.851562 278.90625 217.214844 278.5 C 217.582031 278.09375 217.902344 277.65625 218.175781 277.183594 C 218.449219 276.710938 218.667969 276.214844 218.839844 275.695312 C 219.007812 275.175781 219.121094 274.644531 219.179688 274.101562 C 219.238281 273.558594 219.238281 273.015625 219.183594 272.472656 C 218.777344 268.410156 215.058594 265.476562 210.976562 265.476562 L 157.195312 265.476562 C 156.648438 265.476562 156.109375 265.417969 155.574219 265.304688 C 155.039062 265.191406 154.523438 265.023438 154.023438 264.804688 C 153.527344 264.582031 153.054688 264.308594 152.613281 263.988281 C 152.171875 263.667969 151.769531 263.304688 151.402344 262.898438 C 151.035156 262.492188 150.71875 262.054688 150.445312 261.582031 C 150.171875 261.109375 149.949219 260.613281 149.777344 260.09375 C 149.609375 259.574219 149.496094 259.042969 149.4375 258.5 C 149.378906 257.957031 149.378906 257.414062 149.4375 256.871094 C 149.84375 252.8125 153.558594 249.875 157.640625 249.875 L 191.421875 249.875 L 191.421875 240.917969 C 191.421875 240.410156 191.472656 239.90625 191.570312 239.410156 C 191.671875 238.910156 191.816406 238.429688 192.011719 237.960938 C 192.207031 237.492188 192.445312 237.046875 192.726562 236.625 C 193.007812 236.203125 193.328125 235.8125 193.6875 235.453125 C 194.046875 235.09375 194.433594 234.773438 194.855469 234.492188 C 195.277344 234.210938 195.722656 233.972656 196.191406 233.777344 C 196.660156 233.585938 197.144531 233.4375 197.640625 233.339844 C 198.140625 233.238281 198.640625 233.191406 199.148438 233.191406 L 371.742188 233.191406 C 372.25 233.191406 372.75 233.238281 373.25 233.339844 C 373.746094 233.4375 374.230469 233.585938 374.699219 233.777344 C 375.167969 233.972656 375.613281 234.210938 376.035156 234.492188 C 376.457031 234.773438 376.84375 235.09375 377.203125 235.453125 C 377.5625 235.8125 377.882812 236.203125 378.164062 236.625 C 378.445312 237.046875 378.683594 237.492188 378.878906 237.960938 C 379.074219 238.429688 379.21875 238.910156 379.320312 239.410156 C 379.417969 239.90625 379.46875 240.410156 379.46875 240.917969 L 379.46875 391.636719 C 379.46875 392.347656 379.398438 393.050781 379.261719 393.75 C 379.121094 394.445312 378.917969 395.121094 378.644531 395.777344 C 378.371094 396.433594 378.039062 397.054688 377.644531 397.644531 C 377.25 398.238281 376.800781 398.78125 376.300781 399.285156 C 375.796875 399.785156 375.253906 400.234375 374.660156 400.628906 C 374.070312 401.023438 373.449219 401.355469 372.792969 401.628906 C 372.136719 401.902344 371.460938 402.105469 370.765625 402.246094 C 370.066406 402.382812 369.363281 402.453125 368.65625 402.453125 L 199.148438 402.453125 C 198.640625 402.453125 198.140625 402.402344 197.640625 402.304688 C 197.144531 402.203125 196.660156 402.058594 196.191406 401.863281 C 195.722656 401.667969 195.277344 401.433594 194.855469 401.148438 C 194.433594 400.867188 194.042969 400.546875 193.6875 400.1875 C 193.328125 399.832031 193.007812 399.441406 192.726562 399.019531 C 192.445312 398.597656 192.207031 398.152344 192.011719 397.683594 C 191.816406 397.214844 191.671875 396.730469 191.570312 396.234375 C 191.472656 395.734375 191.421875 395.230469 191.421875 394.726562 L 191.421875 343.476562 L 211.421875 343.476562 C 211.96875 343.476562 212.507812 343.417969 213.042969 343.304688 C 213.578125 343.191406 214.09375 343.023438 214.59375 342.800781 C 215.09375 342.578125 215.5625 342.308594 216.003906 341.988281 C 216.445312 341.667969 216.851562 341.304688 217.214844 340.898438 C 217.582031 340.492188 217.902344 340.054688 218.175781 339.582031 C 218.449219 339.109375 218.667969 338.613281 218.839844 338.09375 C 219.007812 337.574219 219.121094 337.042969 219.179688 336.5 C 219.238281 335.957031 219.238281 335.414062 219.183594 334.871094 C 218.777344 330.8125 215.058594 327.875 210.980469 327.875 Z M 191.421875 327.875 " fill-opacity="1" fill-rule="nonzero"/></g></svg>