<svg xmlns="http://www.w3.org/2000/svg" xmlns:xlink="http://www.w3.org/1999/xlink" width="1080" zoomAndPan="magnify" viewBox="0 0 810 809.999993" height="1080" preserveAspectRatio="xMidYMid meet" version="1.0"><defs><clipPath id="2635f95e16"><path d="M 114.617188 121 L 695.117188 121 L 695.117188 689 L 114.617188 689 Z M 114.617188 121 " clip-rule="nonzero"/></clipPath></defs><g clip-path="url(#2635f95e16)"><path fill="#6516cc" d="M 695.386719 404.933594 C 695.386719 425.863281 659.722656 442.507812 655.269531 462.085938 C 650.675781 482.300781 675.496094 512.730469 666.6875 530.972656 C 657.75 549.515625 618.398438 549.046875 605.683594 564.96875 C 592.90625 580.972656 602.082031 619.210938 586.078125 631.992188 C 570.152344 644.707031 534.929688 627.316406 516.382812 636.261719 C 498.144531 645.058594 489.847656 683.527344 469.632812 688.125 C 450.054688 692.578125 425.9375 661.609375 405.011719 661.609375 C 384.085938 661.609375 359.96875 692.578125 340.386719 688.125 C 320.164062 683.523438 311.871094 645.054688 293.628906 636.257812 C 275.085938 627.3125 239.851562 644.707031 223.929688 631.988281 C 207.925781 619.210938 217.09375 580.96875 204.316406 564.96875 C 191.597656 549.042969 152.25 549.519531 143.304688 530.972656 C 134.507812 512.734375 159.308594 482.300781 154.714844 462.085938 C 150.265625 442.507812 114.601562 425.863281 114.601562 404.933594 C 114.601562 384.007812 150.265625 367.371094 154.714844 347.792969 C 159.308594 327.578125 134.511719 297.144531 143.3125 278.902344 C 152.253906 260.359375 191.601562 260.839844 204.316406 244.917969 C 217.09375 228.917969 207.929688 190.671875 223.933594 177.894531 C 239.859375 165.175781 275.089844 182.578125 293.632812 173.636719 C 311.875 164.835938 320.167969 126.359375 340.386719 121.765625 C 359.96875 117.324219 384.082031 148.28125 405.007812 148.28125 C 425.933594 148.28125 450.046875 117.320312 469.621094 121.765625 C 489.84375 126.359375 498.136719 164.835938 516.375 173.632812 C 534.921875 182.578125 570.144531 165.175781 586.074219 177.894531 C 602.070312 190.671875 592.898438 228.914062 605.679688 244.917969 C 618.394531 260.839844 657.734375 260.367188 666.679688 278.910156 C 675.480469 297.148438 650.671875 327.578125 655.265625 347.792969 C 659.722656 367.371094 695.386719 384.007812 695.386719 404.933594 Z M 695.386719 404.933594 " fill-opacity="1" fill-rule="nonzero"/></g><path fill="#ffffff" d="M 340.34375 408.859375 C 309.832031 408.859375 285.007812 384.03125 285.007812 353.507812 C 285.007812 323.007812 309.832031 298.195312 340.34375 298.195312 C 370.855469 298.195312 395.683594 323.003906 395.683594 353.503906 C 395.683594 384.03125 370.855469 408.859375 340.34375 408.859375 Z M 340.34375 324.945312 C 324.589844 324.945312 311.765625 337.757812 311.765625 353.507812 C 311.765625 369.28125 324.589844 382.113281 340.34375 382.113281 C 356.105469 382.113281 368.929688 369.28125 368.929688 353.507812 C 368.929688 337.757812 356.105469 324.945312 340.34375 324.945312 Z M 340.34375 324.945312 " fill-opacity="1" fill-rule="nonzero"/><path fill="#ffffff" d="M 469.621094 515.453125 C 439.117188 515.453125 414.304688 490.628906 414.304688 460.113281 C 414.304688 429.605469 439.117188 404.777344 469.621094 404.777344 C 500.203125 404.777344 525.085938 429.601562 525.085938 460.113281 C 525.085938 490.628906 500.203125 515.453125 469.621094 515.453125 Z M 469.621094 431.535156 C 453.875 431.535156 441.066406 444.351562 441.066406 460.113281 C 441.066406 475.871094 453.875 488.695312 469.621094 488.695312 C 485.449219 488.695312 498.328125 475.871094 498.328125 460.113281 C 498.328125 444.351562 485.449219 431.535156 469.621094 431.535156 Z M 469.621094 431.535156 " fill-opacity="1" fill-rule="nonzero"/><path fill="#ffffff" d="M 302.589844 512.074219 C 299.0625 512.074219 295.542969 510.691406 292.921875 507.945312 C 287.804688 502.597656 288 494.132812 293.332031 489.035156 L 493.070312 298.085938 C 498.402344 292.980469 506.875 293.175781 511.980469 298.511719 C 517.089844 303.855469 516.902344 312.320312 511.5625 317.425781 L 311.832031 508.363281 C 309.242188 510.835938 305.914062 512.074219 302.589844 512.074219 Z M 302.589844 512.074219 " fill-opacity="1" fill-rule="nonzero"/></svg>