<svg xmlns="http://www.w3.org/2000/svg" xmlns:xlink="http://www.w3.org/1999/xlink" width="1080" zoomAndPan="magnify" viewBox="0 0 810 809.999993" height="1080" preserveAspectRatio="xMidYMid meet" version="1.0"><defs><clipPath id="ae74aa15c3"><path d="M 112.070312 173 L 729 173 L 729 630 L 112.070312 630 Z M 112.070312 173 " clip-rule="nonzero"/></clipPath></defs><g clip-path="url(#ae74aa15c3)"><path fill="#6516cc" d="M 720.804688 533.109375 C 718.914062 529.613281 716.722656 526.320312 714.226562 523.226562 C 711.730469 520.132812 708.976562 517.296875 705.957031 514.710938 C 702.941406 512.125 699.714844 509.835938 696.277344 507.839844 C 692.839844 505.847656 689.25 504.183594 685.503906 502.851562 C 679.726562 504.574219 673.867188 505.957031 667.925781 507.003906 C 654.757812 509.542969 642.328125 511.9375 630.523438 523.597656 C 618.695312 535.277344 614.613281 546.074219 610.296875 557.507812 C 607.636719 564.546875 604.890625 571.816406 600.261719 579.082031 C 600.921875 582.691406 601.976562 586.183594 603.421875 589.554688 C 604.578125 592.335938 605.921875 595.023438 607.449219 597.617188 C 608.980469 600.210938 610.679688 602.683594 612.554688 605.042969 C 614.425781 607.398438 616.453125 609.613281 618.636719 611.691406 C 620.816406 613.765625 623.132812 615.679688 625.578125 617.433594 C 628.027344 619.1875 630.582031 620.761719 633.25 622.160156 C 635.917969 623.558594 638.667969 624.765625 641.5 625.78125 C 644.335938 626.796875 647.226562 627.609375 650.175781 628.222656 C 653.121094 628.839844 656.097656 629.246094 659.101562 629.445312 C 662.105469 629.644531 665.109375 629.636719 668.113281 629.417969 C 671.113281 629.199219 674.089844 628.777344 677.03125 628.144531 C 679.976562 627.511719 682.863281 626.683594 685.691406 625.648438 C 688.519531 624.617188 691.261719 623.394531 693.921875 621.980469 C 696.578125 620.566406 699.125 618.976562 701.5625 617.207031 C 704 615.441406 706.304688 613.511719 708.472656 611.421875 C 710.640625 609.335938 712.65625 607.105469 714.515625 604.738281 C 716.375 602.371094 718.058594 599.886719 719.574219 597.28125 C 720.324219 596.011719 721.035156 594.722656 721.699219 593.398438 C 725.460938 585.945312 727.691406 578.054688 728.394531 569.734375 C 728.550781 567.902344 728.675781 566.054688 728.675781 564.179688 C 728.683594 558.753906 728.019531 553.410156 726.6875 548.152344 C 725.355469 542.890625 723.394531 537.875 720.804688 533.109375 Z M 698.117188 573.332031 C 697.917969 574.046875 697.695312 574.753906 697.449219 575.457031 C 697.203125 576.15625 696.9375 576.847656 696.648438 577.53125 C 696.359375 578.214844 696.050781 578.890625 695.71875 579.554688 C 695.386719 580.21875 695.035156 580.875 694.664062 581.515625 C 694.292969 582.160156 693.898438 582.789062 693.488281 583.40625 C 693.074219 584.023438 692.644531 584.628906 692.195312 585.21875 C 691.746094 585.8125 691.277344 586.386719 690.792969 586.949219 C 690.304688 587.511719 689.804688 588.054688 689.285156 588.585938 C 688.761719 589.117188 688.226562 589.628906 687.675781 590.125 C 687.121094 590.621094 686.554688 591.101562 685.972656 591.5625 C 685.390625 592.023438 684.792969 592.464844 684.183594 592.886719 C 683.574219 593.3125 682.953125 593.714844 682.316406 594.101562 C 681.679688 594.484375 681.035156 594.847656 680.375 595.191406 C 679.71875 595.535156 679.050781 595.859375 678.371094 596.160156 C 677.691406 596.460938 677.003906 596.742188 676.308594 597 C 675.613281 597.257812 674.910156 597.496094 674.199219 597.710938 C 673.488281 597.925781 672.769531 598.117188 672.046875 598.285156 C 671.324219 598.457031 670.597656 598.601562 669.867188 598.726562 C 669.132812 598.851562 668.398438 598.953125 667.660156 599.027344 C 666.921875 599.105469 666.179688 599.160156 665.4375 599.191406 C 664.699219 599.222656 663.957031 599.230469 663.214844 599.214844 C 662.46875 599.203125 661.730469 599.164062 660.988281 599.101562 C 660.25 599.039062 659.511719 598.953125 658.777344 598.847656 C 658.042969 598.738281 657.3125 598.605469 656.585938 598.453125 C 655.859375 598.300781 655.136719 598.121094 654.421875 597.925781 C 653.707031 597.726562 653 597.503906 652.296875 597.261719 C 651.597656 597.015625 650.902344 596.75 650.21875 596.464844 C 649.535156 596.175781 648.859375 595.867188 648.191406 595.539062 C 647.527344 595.210938 646.875 594.859375 646.230469 594.488281 C 645.585938 594.117188 644.953125 593.726562 644.335938 593.316406 C 643.71875 592.90625 643.109375 592.480469 642.519531 592.03125 C 641.925781 591.582031 641.351562 591.117188 640.785156 590.632812 C 640.222656 590.148438 639.675781 589.644531 639.144531 589.128906 C 638.613281 588.609375 638.101562 588.074219 637.601562 587.523438 C 637.105469 586.972656 636.625 586.40625 636.160156 585.824219 C 635.699219 585.242188 635.253906 584.648438 634.832031 584.039062 C 634.40625 583.429688 634 582.808594 633.613281 582.175781 C 633.230469 581.539062 632.863281 580.894531 632.515625 580.238281 C 632.171875 579.582031 631.847656 578.914062 631.542969 578.234375 C 631.242188 577.558594 630.957031 576.871094 630.699219 576.175781 C 630.4375 575.480469 630.199219 574.777344 629.984375 574.066406 C 629.765625 573.355469 629.574219 572.640625 629.402344 571.917969 C 629.230469 571.195312 629.082031 570.46875 628.957031 569.734375 C 628.828125 569.003906 628.726562 568.269531 628.648438 567.53125 C 628.566406 566.792969 628.511719 566.050781 628.476562 565.3125 C 628.445312 564.570312 628.433594 563.828125 628.449219 563.085938 C 628.460938 562.34375 628.5 561.601562 628.558594 560.859375 C 628.617188 560.121094 628.703125 559.382812 628.808594 558.648438 C 628.914062 557.914062 629.042969 557.183594 629.195312 556.457031 C 629.347656 555.730469 629.519531 555.007812 629.71875 554.292969 C 629.917969 553.574219 630.136719 552.867188 630.378906 552.164062 C 630.617188 551.460938 630.882812 550.769531 631.167969 550.082031 C 631.453125 549.398438 631.761719 548.722656 632.085938 548.054688 C 632.414062 547.390625 632.761719 546.734375 633.132812 546.089844 C 633.5 545.445312 633.890625 544.8125 634.296875 544.191406 C 634.707031 543.574219 635.132812 542.964844 635.582031 542.371094 C 636.027344 541.777344 636.492188 541.199219 636.976562 540.636719 C 637.457031 540.074219 637.957031 539.523438 638.476562 538.992188 C 638.992188 538.457031 639.527344 537.941406 640.078125 537.445312 C 640.625 536.945312 641.191406 536.460938 641.769531 536 C 642.351562 535.535156 642.945312 535.089844 643.550781 534.664062 C 644.160156 534.238281 644.78125 533.828125 645.414062 533.441406 C 646.046875 533.054688 646.691406 532.6875 647.347656 532.339844 C 648.003906 531.992188 648.671875 531.667969 649.347656 531.363281 C 650.027344 531.054688 650.710938 530.773438 651.40625 530.511719 C 652.101562 530.25 652.804688 530.007812 653.511719 529.789062 C 654.222656 529.570312 654.9375 529.375 655.660156 529.203125 C 656.382812 529.03125 657.109375 528.878906 657.839844 528.75 C 658.574219 528.625 659.308594 528.519531 660.046875 528.4375 C 660.785156 528.355469 661.523438 528.296875 662.265625 528.261719 C 663.007812 528.226562 663.75 528.214844 664.492188 528.226562 C 665.234375 528.238281 665.976562 528.273438 666.714844 528.332031 C 667.457031 528.390625 668.191406 528.46875 668.929688 528.574219 C 669.664062 528.679688 670.394531 528.804688 671.121094 528.957031 C 671.847656 529.105469 672.570312 529.28125 673.289062 529.476562 C 674.003906 529.671875 674.714844 529.886719 675.417969 530.128906 C 676.117188 530.367188 676.8125 530.628906 677.5 530.914062 C 678.1875 531.195312 678.863281 531.5 679.53125 531.828125 C 680.195312 532.152344 680.851562 532.5 681.5 532.867188 C 682.144531 533.234375 682.777344 533.621094 683.398438 534.027344 C 684.019531 534.4375 684.628906 534.863281 685.222656 535.308594 C 685.816406 535.75 686.394531 536.214844 686.960938 536.695312 C 687.527344 537.179688 688.074219 537.675781 688.609375 538.191406 C 689.144531 538.707031 689.660156 539.242188 690.160156 539.789062 C 690.664062 540.335938 691.144531 540.902344 691.609375 541.480469 C 692.074219 542.058594 692.523438 542.652344 692.949219 543.257812 C 693.378906 543.863281 693.789062 544.484375 694.175781 545.117188 C 694.566406 545.75 694.933594 546.394531 695.285156 547.046875 C 695.632812 547.703125 695.960938 548.371094 696.265625 549.046875 C 696.574219 549.722656 696.859375 550.40625 697.125 551.101562 C 697.386719 551.796875 697.628906 552.496094 697.851562 553.207031 C 698.070312 553.914062 698.269531 554.628906 698.441406 555.351562 C 698.617188 556.074219 698.769531 556.800781 698.898438 557.53125 C 699.027344 558.261719 699.136719 558.996094 699.21875 559.734375 C 699.300781 560.472656 699.363281 561.210938 699.398438 561.953125 C 699.4375 562.695312 699.449219 563.4375 699.441406 564.179688 C 699.398438 567.289062 698.957031 570.339844 698.117188 573.332031 Z M 634.695312 513.675781 C 638.335938 511.140625 642.226562 509.070312 646.363281 507.46875 C 647.671875 506.957031 648.984375 506.496094 650.300781 506.074219 C 655.5625 504.488281 660.898438 503.222656 666.308594 502.28125 C 667.660156 502.023438 669.011719 501.757812 670.371094 501.492188 C 672.277344 501.117188 674.191406 500.707031 676.117188 500.265625 C 676.929688 500.082031 677.746094 499.902344 678.566406 499.699219 C 682.832031 498.667969 686.984375 497.296875 691.027344 495.585938 C 693.664062 494.464844 696.210938 493.164062 698.667969 491.6875 C 699.71875 491.050781 700.664062 490.429688 701.507812 489.835938 C 703.730469 488.371094 705.703125 486.625 707.429688 484.597656 C 702.007812 480.570312 696.15625 477.324219 689.871094 474.859375 C 689.351562 474.648438 688.839844 474.425781 688.3125 474.222656 C 685.507812 473.148438 682.652344 472.226562 679.746094 471.453125 C 679.1875 471.304688 678.625 471.179688 678.0625 471.042969 C 675.007812 470.277344 671.914062 469.6875 668.792969 469.273438 C 665.578125 468.886719 662.355469 468.679688 659.117188 468.652344 C 658.5 468.644531 657.886719 468.621094 657.265625 468.625 C 654.722656 468.648438 652.167969 468.75 649.589844 469.003906 C 639.195312 470.046875 629.335938 472.921875 620.003906 477.617188 L 625.359375 469.851562 L 627.992188 466.03125 C 629.242188 464.214844 630.257812 462.273438 631.039062 460.210938 C 631.820312 458.148438 632.339844 456.019531 632.601562 453.828125 C 632.867188 451.640625 632.863281 449.449219 632.59375 447.257812 C 632.320312 445.070312 631.792969 442.945312 631.007812 440.882812 L 596.054688 349.230469 L 617.597656 352.65625 C 618.144531 352.742188 618.695312 352.769531 619.246094 352.738281 C 619.800781 352.703125 620.34375 352.613281 620.875 352.464844 C 621.40625 352.3125 621.917969 352.109375 622.40625 351.847656 C 622.894531 351.585938 623.347656 351.277344 623.769531 350.917969 C 624.1875 350.558594 624.566406 350.15625 624.898438 349.714844 C 625.234375 349.277344 625.515625 348.804688 625.75 348.300781 C 625.980469 347.800781 626.15625 347.277344 626.273438 346.738281 C 626.394531 346.195312 626.453125 345.648438 626.453125 345.097656 L 626.453125 304.863281 C 626.453125 304.308594 626.394531 303.761719 626.273438 303.222656 C 626.15625 302.679688 625.980469 302.160156 625.75 301.65625 C 625.515625 301.15625 625.234375 300.683594 624.898438 300.242188 C 624.566406 299.800781 624.1875 299.402344 623.769531 299.042969 C 623.347656 298.683594 622.894531 298.375 622.40625 298.113281 C 621.917969 297.851562 621.40625 297.644531 620.875 297.496094 C 620.34375 297.347656 619.800781 297.253906 619.246094 297.222656 C 618.695312 297.191406 618.144531 297.21875 617.597656 297.304688 L 568.203125 305.164062 C 567.679688 305.246094 567.167969 305.375 566.664062 305.546875 C 566.164062 305.722656 565.683594 305.9375 565.222656 306.199219 C 564.757812 306.457031 564.324219 306.753906 563.914062 307.089844 C 563.503906 307.429688 563.128906 307.796875 562.785156 308.199219 C 562.4375 308.605469 562.132812 309.035156 561.867188 309.492188 C 561.597656 309.949219 561.371094 310.425781 561.1875 310.921875 C 561.003906 311.421875 560.867188 311.929688 560.773438 312.453125 C 560.679688 312.972656 560.636719 313.5 560.636719 314.03125 L 560.636719 321.449219 C 559.878906 321.289062 559.117188 321.191406 558.347656 321.152344 L 518.972656 320.648438 C 517.644531 320.601562 516.382812 320.28125 515.195312 319.6875 C 514.003906 319.09375 512.988281 318.285156 512.148438 317.253906 L 476.503906 273.34375 C 456.785156 249.171875 423.132812 256.699219 416.796875 287.242188 L 398.269531 356.890625 C 397.972656 358.308594 397.742188 359.734375 397.578125 361.171875 C 397.414062 362.609375 397.320312 364.050781 397.289062 365.496094 C 397.257812 366.945312 397.296875 368.386719 397.398438 369.832031 C 397.503906 371.273438 397.675781 372.710938 397.914062 374.136719 C 398.148438 375.5625 398.453125 376.976562 398.820312 378.375 C 399.191406 379.773438 399.621094 381.152344 400.117188 382.511719 C 400.613281 383.871094 401.171875 385.203125 401.792969 386.511719 C 402.414062 387.820312 403.09375 389.09375 403.832031 390.339844 C 404.570312 391.582031 405.363281 392.789062 406.214844 393.960938 C 407.066406 395.132812 407.96875 396.257812 408.921875 397.347656 C 409.878906 398.433594 410.882812 399.472656 411.933594 400.464844 C 412.984375 401.460938 414.082031 402.402344 415.21875 403.292969 C 416.359375 404.1875 417.535156 405.023438 418.753906 405.804688 C 419.96875 406.589844 421.222656 407.3125 422.503906 407.980469 C 423.789062 408.648438 425.101562 409.253906 426.441406 409.796875 C 427.78125 410.34375 429.144531 410.824219 430.53125 411.242188 L 316.082031 411.242188 C 315.804688 411.242188 315.53125 411.269531 315.257812 411.324219 C 314.984375 411.378906 314.71875 411.457031 314.460938 411.566406 C 314.207031 411.671875 313.960938 411.800781 313.730469 411.957031 C 313.5 412.113281 313.285156 412.289062 313.089844 412.484375 C 312.894531 412.679688 312.71875 412.894531 312.5625 413.125 C 312.410156 413.359375 312.277344 413.601562 312.171875 413.859375 C 312.066406 414.117188 311.984375 414.378906 311.929688 414.652344 C 311.875 414.925781 311.851562 415.199219 311.851562 415.480469 L 311.851562 431.402344 C 311.851562 431.679688 311.878906 431.957031 311.929688 432.230469 C 311.984375 432.5 312.066406 432.765625 312.171875 433.023438 C 312.28125 433.28125 312.410156 433.523438 312.5625 433.753906 C 312.71875 433.984375 312.894531 434.199219 313.089844 434.394531 C 313.289062 434.59375 313.5 434.769531 313.730469 434.921875 C 313.964844 435.078125 314.207031 435.207031 314.464844 435.3125 C 314.71875 435.421875 314.984375 435.5 315.257812 435.554688 C 315.53125 435.609375 315.804688 435.636719 316.082031 435.636719 L 474.722656 435.636719 C 475.003906 435.636719 475.277344 435.609375 475.550781 435.554688 C 475.824219 435.5 476.089844 435.421875 476.34375 435.316406 C 476.601562 435.207031 476.847656 435.078125 477.078125 434.925781 C 477.308594 434.769531 477.523438 434.59375 477.71875 434.398438 C 477.914062 434.199219 478.089844 433.988281 478.246094 433.757812 C 478.402344 433.523438 478.53125 433.28125 478.636719 433.023438 C 478.746094 432.765625 478.824219 432.503906 478.878906 432.230469 C 478.933594 431.957031 478.960938 431.683594 478.960938 431.402344 L 478.960938 418.796875 L 500.589844 421.910156 L 483.472656 498.054688 C 483.371094 498.621094 483.300781 499.1875 483.257812 499.757812 C 483.210938 500.328125 483.195312 500.898438 483.207031 501.472656 C 483.21875 502.046875 483.257812 502.617188 483.324219 503.183594 C 483.390625 503.753906 483.484375 504.316406 483.605469 504.878906 C 483.726562 505.4375 483.875 505.988281 484.050781 506.535156 C 484.226562 507.078125 484.425781 507.617188 484.652344 508.140625 C 484.878906 508.667969 485.132812 509.179688 485.410156 509.679688 C 485.6875 510.183594 485.988281 510.667969 486.3125 511.140625 C 486.636719 511.613281 486.984375 512.066406 487.351562 512.503906 C 487.722656 512.945312 488.109375 513.363281 488.519531 513.761719 C 488.929688 514.164062 489.355469 514.542969 489.804688 514.902344 C 490.25 515.261719 490.714844 515.597656 491.191406 515.910156 C 491.671875 516.222656 492.164062 516.511719 492.671875 516.777344 C 493.179688 517.046875 493.699219 517.285156 494.230469 517.5 C 494.757812 517.714844 495.300781 517.90625 495.847656 518.066406 C 496.398438 518.230469 496.953125 518.367188 497.515625 518.476562 C 498.078125 518.582031 498.644531 518.664062 499.214844 518.71875 C 499.785156 518.773438 500.355469 518.796875 500.929688 518.796875 C 501.5 518.792969 502.070312 518.765625 502.640625 518.707031 C 503.210938 518.648438 503.777344 518.566406 504.339844 518.453125 C 504.898438 518.339844 505.453125 518.199219 506.003906 518.035156 C 506.550781 517.867188 507.089844 517.675781 507.617188 517.457031 C 508.148438 517.238281 508.664062 516.992188 509.171875 516.722656 C 509.675781 516.453125 510.167969 516.160156 510.644531 515.84375 C 511.121094 515.527344 511.582031 515.1875 512.027344 514.828125 C 512.46875 514.464844 512.894531 514.082031 513.300781 513.679688 C 513.710938 513.277344 514.09375 512.855469 514.460938 512.414062 C 514.828125 511.972656 515.171875 511.515625 515.492188 511.042969 C 515.8125 510.570312 516.109375 510.082031 516.382812 509.578125 C 516.660156 509.074219 516.90625 508.558594 517.132812 508.03125 C 517.355469 507.503906 517.550781 506.96875 517.722656 506.421875 C 517.894531 505.875 518.039062 505.320312 518.15625 504.761719 L 539.308594 420.730469 C 539.523438 419.722656 539.6875 418.703125 539.804688 417.679688 C 539.917969 416.65625 539.980469 415.628906 539.992188 414.597656 C 540.007812 413.566406 539.96875 412.535156 539.878906 411.507812 C 539.789062 410.480469 539.648438 409.460938 539.460938 408.449219 C 539.269531 407.433594 539.027344 406.433594 538.738281 405.445312 C 538.449219 404.453125 538.113281 403.480469 537.726562 402.523438 C 537.339844 401.570312 536.910156 400.632812 536.429688 399.71875 C 535.953125 398.808594 535.429688 397.917969 534.863281 397.058594 C 534.300781 396.195312 533.691406 395.363281 533.042969 394.5625 C 532.394531 393.761719 531.707031 392.992188 530.984375 392.257812 C 530.257812 391.523438 529.5 390.828125 528.707031 390.171875 C 527.914062 389.511719 527.089844 388.894531 526.234375 388.316406 C 525.382812 387.738281 524.5 387.207031 523.59375 386.714844 C 522.6875 386.226562 521.757812 385.78125 520.804688 385.382812 C 519.855469 384.988281 518.886719 384.636719 517.898438 384.335938 C 516.914062 384.03125 515.914062 383.78125 514.90625 383.578125 C 497.097656 379.996094 474.96875 375.683594 463.457031 373.449219 C 462.949219 373.347656 462.457031 373.199219 461.980469 373.003906 C 461.503906 372.804688 461.050781 372.5625 460.621094 372.273438 C 460.195312 371.984375 459.796875 371.652344 459.4375 371.285156 C 459.074219 370.917969 458.753906 370.515625 458.472656 370.082031 C 458.191406 369.648438 457.953125 369.191406 457.765625 368.710938 C 457.574219 368.230469 457.4375 367.734375 457.34375 367.226562 C 457.253906 366.71875 457.21875 366.207031 457.230469 365.691406 C 457.242188 365.171875 457.308594 364.664062 457.425781 364.160156 L 468.167969 316.398438 L 488.292969 340.234375 C 489.976562 342.304688 491.875 344.15625 493.984375 345.789062 C 496.097656 347.417969 498.371094 348.785156 500.800781 349.890625 C 503.230469 350.992188 505.757812 351.800781 508.375 352.320312 C 510.992188 352.835938 513.636719 353.046875 516.304688 352.953125 L 558.347656 350.652344 C 560.519531 350.574219 562.574219 350.039062 564.507812 349.042969 L 579.582031 432.933594 C 580.109375 435.878906 580.40625 438.851562 580.46875 441.847656 C 580.53125 444.839844 580.359375 447.820312 579.953125 450.789062 C 579.546875 453.757812 578.914062 456.675781 578.046875 459.542969 C 577.183594 462.410156 576.101562 465.195312 574.796875 467.890625 L 553.734375 511.523438 C 553.160156 512.71875 552.5 513.867188 551.761719 514.972656 C 551.023438 516.074219 550.210938 517.121094 549.328125 518.109375 C 548.441406 519.101562 547.492188 520.023438 546.476562 520.878906 C 545.460938 521.734375 544.390625 522.515625 543.265625 523.222656 C 542.144531 523.925781 540.976562 524.550781 539.761719 525.09375 C 538.550781 525.636719 537.304688 526.089844 536.03125 526.457031 C 534.753906 526.824219 533.460938 527.101562 532.144531 527.285156 C 530.828125 527.472656 529.507812 527.5625 528.179688 527.5625 L 488.253906 527.5625 C 487.25 527.5625 486.246094 527.507812 485.242188 527.398438 C 484.242188 527.289062 483.25 527.121094 482.269531 526.902344 C 481.285156 526.679688 480.320312 526.40625 479.367188 526.078125 C 478.414062 525.75 477.484375 525.375 476.574219 524.941406 C 475.664062 524.511719 474.78125 524.035156 473.921875 523.503906 C 473.066406 522.976562 472.238281 522.402344 471.445312 521.785156 C 470.652344 521.164062 469.894531 520.503906 469.171875 519.800781 C 468.453125 519.097656 467.773438 518.359375 467.132812 517.582031 C 466.492188 516.800781 465.898438 515.992188 465.351562 515.148438 C 464.800781 514.304688 464.296875 513.433594 463.84375 512.535156 C 463.390625 511.636719 462.988281 510.714844 462.636719 509.769531 C 462.285156 508.828125 461.988281 507.867188 461.742188 506.890625 C 461.496094 505.914062 461.308594 504.925781 461.171875 503.929688 C 461.035156 502.929688 460.953125 501.929688 460.929688 500.921875 C 460.902344 499.917969 460.933594 498.910156 461.019531 497.910156 C 461.101562 496.90625 461.242188 495.910156 461.4375 494.921875 L 471.949219 441.800781 L 320.777344 441.800781 C 318.65625 441.796875 316.695312 442.351562 314.890625 443.46875 C 313.472656 444.351562 311.566406 445.582031 309.292969 447.144531 C 308.03125 448.015625 306.636719 448.457031 305.105469 448.464844 L 240.484375 448.464844 C 239.972656 448.464844 239.464844 448.515625 238.960938 448.613281 C 238.460938 448.714844 237.972656 448.863281 237.5 449.058594 C 237.027344 449.253906 236.578125 449.496094 236.152344 449.777344 C 235.726562 450.0625 235.332031 450.386719 234.96875 450.75 C 234.605469 451.109375 234.285156 451.503906 234 451.929688 C 233.714844 452.355469 233.472656 452.804688 233.277344 453.28125 C 233.082031 453.753906 232.933594 454.242188 232.835938 454.742188 C 232.734375 455.246094 232.683594 455.753906 232.683594 456.265625 C 232.683594 456.777344 232.734375 457.285156 232.835938 457.785156 C 232.933594 458.289062 233.082031 458.777344 233.277344 459.25 C 233.472656 459.722656 233.714844 460.171875 234 460.597656 C 234.285156 461.023438 234.605469 461.417969 234.96875 461.78125 C 235.332031 462.140625 235.726562 462.464844 236.152344 462.75 C 236.578125 463.035156 237.027344 463.273438 237.5 463.46875 C 237.972656 463.667969 238.460938 463.816406 238.960938 463.914062 C 239.464844 464.015625 239.972656 464.0625 240.484375 464.0625 L 314.292969 464.0625 C 314.804688 464.0625 315.3125 464.113281 315.8125 464.214844 C 316.316406 464.3125 316.804688 464.460938 317.277344 464.65625 C 317.75 464.855469 318.199219 465.09375 318.625 465.378906 C 319.050781 465.664062 319.445312 465.988281 319.808594 466.347656 C 320.167969 466.710938 320.492188 467.105469 320.777344 467.53125 C 321.0625 467.957031 321.300781 468.40625 321.496094 468.878906 C 321.695312 469.351562 321.839844 469.839844 321.941406 470.34375 C 322.042969 470.84375 322.089844 471.351562 322.089844 471.863281 C 322.089844 472.375 322.042969 472.882812 321.941406 473.386719 C 321.839844 473.886719 321.695312 474.375 321.496094 474.847656 C 321.300781 475.320312 321.0625 475.773438 320.777344 476.199219 C 320.492188 476.625 320.167969 477.015625 319.808594 477.378906 C 319.445312 477.742188 319.050781 478.066406 318.625 478.347656 C 318.199219 478.632812 317.75 478.875 317.277344 479.070312 C 316.804688 479.265625 316.316406 479.414062 315.8125 479.515625 C 315.3125 479.613281 314.804688 479.664062 314.292969 479.664062 L 128.242188 479.664062 C 127.730469 479.664062 127.222656 479.714844 126.722656 479.8125 C 126.21875 479.914062 125.730469 480.0625 125.257812 480.257812 C 124.785156 480.453125 124.335938 480.695312 123.910156 480.980469 C 123.484375 481.261719 123.089844 481.585938 122.726562 481.949219 C 122.367188 482.3125 122.042969 482.703125 121.757812 483.128906 C 121.472656 483.554688 121.234375 484.007812 121.039062 484.480469 C 120.839844 484.953125 120.695312 485.441406 120.59375 485.941406 C 120.492188 486.445312 120.445312 486.953125 120.445312 487.464844 C 120.445312 487.976562 120.492188 488.484375 120.59375 488.984375 C 120.695312 489.488281 120.839844 489.976562 121.039062 490.449219 C 121.234375 490.921875 121.472656 491.371094 121.757812 491.796875 C 122.042969 492.222656 122.367188 492.617188 122.726562 492.980469 C 123.089844 493.339844 123.484375 493.664062 123.910156 493.949219 C 124.335938 494.234375 124.785156 494.472656 125.257812 494.671875 C 125.730469 494.867188 126.21875 495.015625 126.722656 495.113281 C 127.222656 495.214844 127.730469 495.265625 128.242188 495.265625 L 277.234375 495.265625 C 277.75 495.257812 278.261719 495.304688 278.765625 495.402344 C 279.273438 495.496094 279.765625 495.640625 280.242188 495.835938 C 280.71875 496.027344 281.175781 496.265625 281.605469 496.550781 C 282.035156 496.835938 282.433594 497.15625 282.800781 497.519531 C 283.167969 497.882812 283.492188 498.277344 283.78125 498.707031 C 284.070312 499.132812 284.3125 499.585938 284.511719 500.0625 C 284.710938 500.535156 284.859375 501.027344 284.960938 501.53125 C 285.0625 502.039062 285.113281 502.546875 285.113281 503.0625 C 285.113281 503.578125 285.0625 504.089844 284.960938 504.59375 C 284.859375 505.101562 284.710938 505.589844 284.511719 506.066406 C 284.3125 506.542969 284.070312 506.992188 283.78125 507.421875 C 283.492188 507.847656 283.167969 508.242188 282.800781 508.605469 C 282.433594 508.96875 282.035156 509.292969 281.605469 509.574219 C 281.175781 509.859375 280.71875 510.097656 280.242188 510.292969 C 279.765625 510.484375 279.273438 510.628906 278.765625 510.726562 C 278.261719 510.824219 277.75 510.867188 277.234375 510.863281 L 181.695312 510.863281 C 181.183594 510.863281 180.675781 510.914062 180.171875 511.011719 C 179.671875 511.113281 179.183594 511.261719 178.710938 511.457031 C 178.234375 511.652344 177.785156 511.894531 177.359375 512.175781 C 176.933594 512.460938 176.539062 512.785156 176.179688 513.148438 C 175.816406 513.507812 175.492188 513.902344 175.207031 514.328125 C 174.925781 514.753906 174.683594 515.203125 174.488281 515.679688 C 174.292969 516.152344 174.144531 516.640625 174.042969 517.140625 C 173.945312 517.644531 173.894531 518.152344 173.894531 518.664062 C 173.894531 519.175781 173.945312 519.683594 174.042969 520.183594 C 174.144531 520.6875 174.292969 521.175781 174.488281 521.648438 C 174.683594 522.121094 174.925781 522.570312 175.207031 522.996094 C 175.492188 523.421875 175.816406 523.816406 176.179688 524.179688 C 176.539062 524.539062 176.933594 524.863281 177.359375 525.148438 C 177.785156 525.433594 178.234375 525.671875 178.710938 525.867188 C 179.183594 526.066406 179.671875 526.210938 180.171875 526.3125 C 180.675781 526.414062 181.183594 526.460938 181.695312 526.460938 L 246.1875 526.460938 C 241.484375 539.972656 239.136719 553.878906 239.140625 568.183594 L 264.523438 568.183594 C 264.523438 568.335938 264.492188 568.484375 264.492188 568.636719 C 264.492188 570.386719 264.609375 572.105469 264.753906 573.8125 C 265.046875 577.355469 265.648438 580.839844 266.554688 584.273438 C 267.460938 587.707031 268.664062 591.035156 270.160156 594.253906 C 271.652344 597.476562 273.417969 600.542969 275.453125 603.453125 C 277.492188 606.363281 279.765625 609.070312 282.277344 611.578125 C 283.089844 612.402344 283.925781 613.199219 284.785156 613.972656 C 285.640625 614.746094 286.519531 615.496094 287.421875 616.21875 C 288.324219 616.941406 289.242188 617.640625 290.183594 618.308594 C 291.125 618.980469 292.085938 619.621094 293.0625 620.238281 C 294.039062 620.855469 295.035156 621.441406 296.046875 622 C 297.058594 622.558594 298.085938 623.085938 299.125 623.585938 C 300.167969 624.085938 301.222656 624.554688 302.292969 624.992188 C 303.359375 625.433594 304.441406 625.839844 305.53125 626.21875 C 306.625 626.59375 307.726562 626.941406 308.839844 627.253906 C 309.949219 627.566406 311.070312 627.847656 312.199219 628.097656 C 313.328125 628.347656 314.460938 628.566406 315.601562 628.75 C 316.742188 628.933594 317.886719 629.085938 319.035156 629.203125 C 320.183594 629.324219 321.335938 629.410156 322.492188 629.460938 C 323.644531 629.515625 324.800781 629.535156 325.953125 629.519531 C 327.109375 629.507812 328.261719 629.460938 329.414062 629.378906 C 330.570312 629.300781 331.71875 629.1875 332.863281 629.042969 C 334.011719 628.898438 335.152344 628.71875 336.285156 628.507812 C 337.421875 628.296875 338.550781 628.050781 339.671875 627.777344 C 340.796875 627.5 341.90625 627.191406 343.011719 626.851562 C 344.117188 626.511719 345.210938 626.140625 346.292969 625.738281 C 347.375 625.335938 348.445312 624.902344 349.503906 624.441406 C 350.5625 623.976562 351.605469 623.480469 352.636719 622.957031 C 353.664062 622.433594 354.679688 621.882812 355.675781 621.300781 C 356.675781 620.71875 357.65625 620.105469 358.621094 619.46875 C 359.582031 618.832031 360.527344 618.164062 361.449219 617.472656 C 362.375 616.78125 363.28125 616.0625 364.164062 615.316406 C 365.046875 614.574219 365.910156 613.804688 366.75 613.011719 C 367.585938 612.21875 368.402344 611.398438 369.195312 610.558594 C 369.988281 609.71875 370.757812 608.855469 371.5 607.972656 C 372.242188 607.085938 372.960938 606.183594 373.652344 605.257812 C 374.34375 604.332031 375.007812 603.386719 375.644531 602.421875 C 376.28125 601.457031 376.890625 600.476562 377.46875 599.476562 C 378.167969 598.292969 378.832031 597.089844 379.453125 595.859375 C 382.953125 588.914062 385.03125 581.566406 385.6875 573.8125 C 385.832031 572.105469 385.949219 570.386719 385.949219 568.636719 C 385.949219 568.488281 385.921875 568.339844 385.921875 568.183594 L 534.136719 568.183594 C 535.933594 568.164062 537.722656 568.039062 539.503906 567.804688 C 541.285156 567.574219 543.050781 567.234375 544.792969 566.796875 C 546.535156 566.355469 548.246094 565.8125 549.921875 565.171875 C 551.601562 564.527344 553.238281 563.789062 554.828125 562.953125 C 556.417969 562.117188 557.957031 561.191406 559.4375 560.171875 C 560.917969 559.15625 562.335938 558.054688 563.6875 556.871094 C 565.039062 555.683594 566.316406 554.425781 567.519531 553.089844 C 568.722656 551.753906 569.84375 550.351562 570.878906 548.882812 L 573.414062 545.203125 C 572.863281 550.773438 572.863281 556.339844 573.410156 561.90625 C 573.648438 564.339844 574.050781 566.714844 574.484375 569.074219 C 575.824219 576.300781 578.0625 583.238281 581.199219 589.882812 C 582.246094 589.429688 583.253906 588.894531 584.21875 588.28125 C 585.746094 587.335938 587.191406 586.277344 588.554688 585.109375 C 590.40625 583.53125 592.089844 581.792969 593.605469 579.894531 C 594.496094 578.78125 595.324219 577.625 596.089844 576.421875 C 597.09375 574.84375 597.980469 573.261719 598.820312 571.679688 C 607.597656 555.140625 608.5625 538.332031 627.046875 520.074219 C 629.414062 517.726562 631.964844 515.589844 634.695312 513.675781 Z M 358.714844 568.636719 C 358.699219 569.726562 358.632812 570.808594 358.511719 571.890625 C 358.390625 572.96875 358.21875 574.042969 357.992188 575.105469 C 357.765625 576.167969 357.488281 577.21875 357.164062 578.257812 C 356.835938 579.292969 356.457031 580.3125 356.03125 581.3125 C 355.605469 582.3125 355.128906 583.289062 354.609375 584.242188 C 354.085938 585.195312 353.519531 586.121094 352.90625 587.019531 C 352.296875 587.917969 351.640625 588.785156 350.945312 589.621094 C 350.246094 590.453125 349.511719 591.253906 348.738281 592.015625 C 347.964844 592.78125 347.15625 593.503906 346.308594 594.1875 C 345.464844 594.871094 344.589844 595.515625 343.683594 596.113281 C 342.773438 596.710938 341.839844 597.265625 340.878906 597.773438 C 339.917969 598.28125 338.933594 598.742188 337.929688 599.15625 C 336.921875 599.566406 335.898438 599.929688 334.859375 600.242188 C 333.816406 600.554688 332.765625 600.816406 331.699219 601.027344 C 330.628906 601.238281 329.554688 601.394531 328.472656 601.5 C 327.390625 601.605469 326.308594 601.660156 325.21875 601.660156 C 324.132812 601.660156 323.050781 601.605469 321.96875 601.5 C 320.886719 601.394531 319.808594 601.238281 318.742188 601.027344 C 317.675781 600.816406 316.625 600.554688 315.582031 600.242188 C 314.539062 599.929688 313.515625 599.566406 312.511719 599.15625 C 311.503906 598.742188 310.523438 598.28125 309.5625 597.773438 C 308.601562 597.265625 307.664062 596.710938 306.757812 596.113281 C 305.851562 595.515625 304.976562 594.871094 304.132812 594.1875 C 303.285156 593.503906 302.476562 592.78125 301.703125 592.015625 C 300.929688 591.253906 300.191406 590.453125 299.496094 589.621094 C 298.800781 588.785156 298.144531 587.917969 297.535156 587.019531 C 296.921875 586.121094 296.355469 585.195312 295.832031 584.242188 C 295.3125 583.289062 294.835938 582.3125 294.410156 581.3125 C 293.984375 580.3125 293.605469 579.292969 293.277344 578.257812 C 292.953125 577.21875 292.675781 576.167969 292.449219 575.105469 C 292.222656 574.042969 292.050781 572.96875 291.929688 571.890625 C 291.808594 570.808594 291.742188 569.726562 291.726562 568.636719 C 291.726562 568.488281 291.769531 568.339844 291.769531 568.183594 L 358.671875 568.183594 C 358.671875 568.339844 358.714844 568.484375 358.714844 568.636719 Z M 438.167969 237.367188 C 437.335938 231.105469 435.671875 217.945312 435.835938 214.503906 C 436.949219 190.511719 453.703125 171.796875 481.296875 173.078125 C 482.449219 173.132812 483.597656 173.230469 484.738281 173.375 C 485.882812 173.519531 487.019531 173.710938 488.148438 173.945312 C 489.277344 174.179688 490.394531 174.460938 491.5 174.785156 C 492.605469 175.109375 493.699219 175.476562 494.773438 175.886719 C 495.851562 176.296875 496.910156 176.75 497.953125 177.246094 C 498.992188 177.738281 500.011719 178.273438 501.011719 178.851562 C 502.011719 179.425781 502.984375 180.039062 503.933594 180.695312 C 504.882812 181.347656 505.804688 182.035156 506.699219 182.761719 C 507.597656 183.488281 508.460938 184.25 509.292969 185.046875 C 510.128906 185.839844 510.929688 186.667969 511.699219 187.527344 C 512.46875 188.386719 513.203125 189.273438 513.898438 190.191406 C 514.597656 191.109375 515.257812 192.054688 515.882812 193.023438 C 516.503906 193.992188 517.085938 194.984375 517.632812 196 C 518.175781 197.019531 518.679688 198.054688 519.140625 199.109375 C 519.601562 200.167969 520.023438 201.238281 520.398438 202.328125 C 520.773438 203.417969 521.109375 204.519531 521.394531 205.636719 L 479.144531 203.671875 C 478.855469 203.660156 478.570312 203.675781 478.285156 203.71875 C 478 203.761719 477.722656 203.832031 477.453125 203.929688 C 477.183594 204.027344 476.925781 204.148438 476.679688 204.296875 C 476.433594 204.445312 476.203125 204.617188 475.988281 204.8125 C 475.777344 205.003906 475.585938 205.21875 475.414062 205.449219 C 475.242188 205.679688 475.097656 205.925781 474.976562 206.1875 C 474.851562 206.449219 474.757812 206.71875 474.6875 206.996094 C 474.617188 207.277344 474.578125 207.558594 474.566406 207.847656 L 473.898438 222.148438 C 473.867188 222.8125 473.945312 223.464844 474.128906 224.105469 C 474.3125 224.746094 474.59375 225.339844 474.972656 225.886719 C 475.347656 226.433594 475.804688 226.90625 476.339844 227.304688 C 476.871094 227.703125 477.457031 228.003906 478.089844 228.210938 L 519.640625 241.730469 C 517.027344 249.46875 513.25 256.589844 508.308594 263.089844 C 507.933594 263.578125 507.496094 263.996094 506.988281 264.34375 C 506.476562 264.691406 505.929688 264.949219 505.335938 265.113281 C 504.746094 265.28125 504.140625 265.351562 503.527344 265.324219 C 502.914062 265.296875 502.320312 265.171875 501.746094 264.953125 L 441.765625 241.925781 C 441.289062 241.742188 440.84375 241.5 440.433594 241.195312 C 440.019531 240.894531 439.65625 240.542969 439.339844 240.140625 C 439.023438 239.738281 438.765625 239.304688 438.566406 238.832031 C 438.367188 238.363281 438.234375 237.875 438.167969 237.367188 Z M 196.761719 327.875 L 120.246094 327.875 C 119.699219 327.875 119.160156 327.816406 118.625 327.703125 C 118.089844 327.589844 117.574219 327.421875 117.074219 327.203125 C 116.578125 326.980469 116.105469 326.707031 115.664062 326.386719 C 115.222656 326.066406 114.816406 325.703125 114.453125 325.296875 C 114.085938 324.890625 113.765625 324.453125 113.492188 323.980469 C 113.21875 323.507812 113 323.011719 112.828125 322.492188 C 112.660156 321.972656 112.546875 321.441406 112.488281 320.898438 C 112.429688 320.355469 112.429688 319.8125 112.484375 319.269531 C 112.894531 315.210938 116.609375 312.277344 120.691406 312.277344 L 216.761719 312.277344 C 217.308594 312.277344 217.847656 312.21875 218.382812 312.105469 C 218.917969 311.992188 219.433594 311.824219 219.933594 311.601562 C 220.429688 311.378906 220.902344 311.109375 221.34375 310.789062 C 221.785156 310.46875 222.191406 310.105469 222.554688 309.699219 C 222.921875 309.292969 223.242188 308.855469 223.515625 308.382812 C 223.789062 307.910156 224.007812 307.414062 224.179688 306.894531 C 224.347656 306.375 224.460938 305.84375 224.519531 305.300781 C 224.578125 304.757812 224.578125 304.214844 224.523438 303.671875 C 224.117188 299.609375 220.398438 296.675781 216.316406 296.675781 L 139.347656 296.675781 C 138.835938 296.675781 138.328125 296.625 137.824219 296.527344 C 137.324219 296.425781 136.835938 296.277344 136.363281 296.082031 C 135.890625 295.886719 135.441406 295.644531 135.015625 295.363281 C 134.589844 295.078125 134.195312 294.753906 133.832031 294.390625 C 133.46875 294.03125 133.148438 293.636719 132.863281 293.210938 C 132.578125 292.785156 132.335938 292.335938 132.140625 291.859375 C 131.945312 291.386719 131.796875 290.898438 131.699219 290.398438 C 131.597656 289.894531 131.546875 289.386719 131.546875 288.875 C 131.546875 288.363281 131.597656 287.855469 131.699219 287.355469 C 131.796875 286.851562 131.945312 286.363281 132.140625 285.890625 C 132.335938 285.417969 132.578125 284.96875 132.863281 284.542969 C 133.148438 284.117188 133.46875 283.722656 133.832031 283.359375 C 134.195312 283 134.589844 282.675781 135.015625 282.390625 C 135.441406 282.105469 135.890625 281.867188 136.363281 281.671875 C 136.835938 281.472656 137.324219 281.324219 137.824219 281.226562 C 138.328125 281.125 138.835938 281.078125 139.347656 281.078125 L 216.761719 281.078125 C 217.308594 281.078125 217.847656 281.019531 218.382812 280.90625 C 218.917969 280.792969 219.433594 280.625 219.933594 280.402344 C 220.429688 280.179688 220.902344 279.910156 221.34375 279.589844 C 221.785156 279.269531 222.191406 278.90625 222.554688 278.5 C 222.921875 278.09375 223.242188 277.65625 223.515625 277.183594 C 223.789062 276.710938 224.007812 276.214844 224.179688 275.695312 C 224.347656 275.175781 224.460938 274.644531 224.519531 274.101562 C 224.578125 273.558594 224.578125 273.015625 224.523438 272.472656 C 224.117188 268.410156 220.398438 265.476562 216.316406 265.476562 L 162.535156 265.476562 C 161.988281 265.476562 161.449219 265.417969 160.914062 265.304688 C 160.378906 265.191406 159.863281 265.023438 159.363281 264.804688 C 158.867188 264.582031 158.394531 264.308594 157.953125 263.988281 C 157.511719 263.667969 157.105469 263.304688 156.742188 262.898438 C 156.375 262.492188 156.054688 262.054688 155.78125 261.582031 C 155.507812 261.109375 155.289062 260.613281 155.117188 260.09375 C 154.949219 259.574219 154.835938 259.042969 154.777344 258.5 C 154.71875 257.957031 154.71875 257.414062 154.773438 256.871094 C 155.183594 252.8125 158.898438 249.875 162.980469 249.875 L 196.761719 249.875 L 196.761719 240.917969 C 196.761719 240.410156 196.8125 239.90625 196.910156 239.410156 C 197.011719 238.910156 197.15625 238.429688 197.351562 237.960938 C 197.546875 237.492188 197.78125 237.046875 198.066406 236.625 C 198.347656 236.203125 198.667969 235.8125 199.027344 235.453125 C 199.382812 235.09375 199.773438 234.773438 200.195312 234.492188 C 200.617188 234.210938 201.0625 233.972656 201.53125 233.777344 C 202 233.585938 202.484375 233.4375 202.980469 233.339844 C 203.480469 233.238281 203.980469 233.191406 204.488281 233.191406 L 377.082031 233.191406 C 377.585938 233.191406 378.089844 233.238281 378.585938 233.339844 C 379.085938 233.4375 379.566406 233.585938 380.035156 233.777344 C 380.503906 233.972656 380.949219 234.210938 381.371094 234.492188 C 381.792969 234.773438 382.183594 235.09375 382.542969 235.453125 C 382.902344 235.8125 383.222656 236.203125 383.503906 236.625 C 383.785156 237.046875 384.023438 237.492188 384.21875 237.960938 C 384.414062 238.429688 384.558594 238.910156 384.65625 239.410156 C 384.757812 239.90625 384.808594 240.410156 384.808594 240.917969 L 384.808594 391.636719 C 384.808594 392.347656 384.738281 393.050781 384.597656 393.746094 C 384.460938 394.445312 384.253906 395.121094 383.984375 395.777344 C 383.710938 396.433594 383.378906 397.054688 382.984375 397.644531 C 382.589844 398.238281 382.140625 398.78125 381.640625 399.285156 C 381.136719 399.785156 380.589844 400.234375 380 400.628906 C 379.410156 401.023438 378.789062 401.355469 378.132812 401.628906 C 377.476562 401.902344 376.800781 402.105469 376.101562 402.246094 C 375.40625 402.382812 374.703125 402.453125 373.992188 402.453125 L 204.488281 402.453125 C 203.980469 402.453125 203.480469 402.402344 202.980469 402.304688 C 202.484375 402.203125 202 402.058594 201.53125 401.863281 C 201.0625 401.667969 200.617188 401.433594 200.195312 401.148438 C 199.773438 400.867188 199.382812 400.546875 199.027344 400.1875 C 198.667969 399.828125 198.347656 399.441406 198.066406 399.019531 C 197.78125 398.597656 197.542969 398.152344 197.351562 397.683594 C 197.15625 397.214844 197.011719 396.730469 196.910156 396.230469 C 196.8125 395.734375 196.761719 395.230469 196.761719 394.726562 L 196.761719 343.476562 L 216.761719 343.476562 C 217.308594 343.476562 217.847656 343.417969 218.382812 343.304688 C 218.917969 343.191406 219.433594 343.023438 219.933594 342.800781 C 220.429688 342.578125 220.902344 342.308594 221.34375 341.988281 C 221.785156 341.667969 222.1875 341.304688 222.554688 340.898438 C 222.921875 340.492188 223.238281 340.054688 223.515625 339.582031 C 223.789062 339.109375 224.007812 338.613281 224.179688 338.09375 C 224.347656 337.574219 224.460938 337.042969 224.519531 336.5 C 224.578125 335.957031 224.578125 335.414062 224.523438 334.871094 C 224.117188 330.8125 220.398438 327.875 216.320312 327.875 Z M 196.761719 327.875 " fill-opacity="1" fill-rule="nonzero"/></g></svg>